<svg xmlns="http://www.w3.org/2000/svg">

  <!-- ////////////////////////////////////////////////////////// PAGE LOGO -->
  <symbol id="page-logo" viewBox="0 0 1000 1000">
    <path class="svg-my-logo-1" d="M500.1,0C364.5,40.5,260.3,149.3,225.7,286.5C191,423.6,231,568.9,331.1,668.9 c100,100,245.3,140.1,382.4,105.4c137.2-34.7,246-138.9,286.5-274.4c0,202.2-121.8,384.5-308.6,461.9 c-186.8,77.4-401.8,34.6-544.8-108.4c-143-143-185.7-358-108.4-544.8C115.6,121.8,297.9,0,500.1,0z"/>
    <path class="svg-my-logo-2" d="M689.4,16v245.7H500.1c-96.7,0-183.1,57.7-220.1,147c-11.1,26.8-17.1,54.8-18.1,82.6 c-3.4-11.3-6.3-22.9-8.6-34.5c-14.3-71.8-7-145.5,21-213.1c28-67.6,75-124.9,135.9-165.5C471,37.5,541.9,16,615.1,16H689.4 M705.4,0c-30.1,0-60.2,0-90.3,0c-155.7,0-296,93.8-355.6,237.6C200,381.4,232.9,547,343,657c-63.5-63.5-82.6-159.1-48.2-242.1 c34.4-83,115.4-137.2,205.3-137.2c68.5,0,136.9,0,205.4,0C705.4,185.2,705.4,92.6,705.4,0L705.4,0z"/>
    <path class="svg-my-logo-3" d="M984,16v368.9c0,73.2-21.5,144.1-62.2,204.9c-40.7,60.9-97.9,107.8-165.5,135.9 c-45,18.6-92.5,28.1-141.1,28.1c-36.5,0-72.3-5.3-106.9-15.8c28.5-1,56.4-7,82.9-18c89.3-37,147-123.4,147-220.1V16H984 M1000,0 c-92.6,0-185.2,0-277.7,0c0,166.6,0,333.3,0,499.9c0,89.9-54.1,170.9-137.2,205.3c-27.5,11.4-56.4,16.9-85,16.9 c-57.8,0-114.7-22.6-157.2-65.1c73.6,73.6,172.1,112.7,272.2,112.7c49.6,0,99.6-9.6,147.2-29.3C906.2,680.9,1000,540.6,1000,384.9 C1000,256.6,1000,128.3,1000,0L1000,0z"/>
  </symbol>

  <!-- ////////////////////////////////////////////////////////////// ICONS -->
  <symbol id="burger-button" viewBox="0 0 1000 1000">
    <path class="bb-1" d="M940,120H60C26.9,120,0,93.1,0,60v0C0,26.9,26.9,0,60,0h880c33.1,0,60,26.9,60,60v0	C1000,93.1,973.1,120,940,120z"/>
    <path class="bb-2" d="M940,560H60c-33.1,0-60-26.9-60-60v0c0-33.1,26.9-60,60-60h880c33.1,0,60,26.9,60,60v0 C1000,533.1,973.1,560,940,560z"/>
    <path class="bb-3" d="M940,1000H60c-33.1,0-60-26.9-60-60v0c0-33.1,26.9-60,60-60h880c33.1,0,60,26.9,60,60v0 C1000,973.1,973.1,1000,940,1000z"/>
  </symbol>

  <symbol id="close-button" viewBox="0 0 1000 1000">
    <!-- <filter id="dropshadow">
      <feGaussianBlur in="SourceAlpha" stdDeviation="10"/>
      <feOffset dx="0" dy="0" result="offsetblur"/>
        <feComponentTransfer>
        <feFuncA type="linear" slope="0.5"/>
      </feComponentTransfer>
      <feMerge> 
        <feMergeNode/>
        <feMergeNode in="SourceGraphic"/>
      </feMerge>
    </filter> -->
    <path d="M50 50l900 900M50 950l900-900"/>
  </symbol>

  <symbol id="arrow" viewBox="0 0 1000 1000">
    <path class="svg-lightbox-icons" d="M281 950l450-450-450-450"/>
  </symbol>
  
  <symbol id="checkmark" viewBox="0 0 24 24">
    <path class="checkmark" d="M9 21l-9-8.6 2.8-2.9 6.2 5.9 12.2-12.4 2.8 2.8-15 15.2z"/>
  </symbol>

  <!-- ////////////////////////////////////////////////// CLIENTS LOGOTYPES -->
  <symbol id="konior-studio" viewBox="0 0 512 512">
    <path d="M16.3 270.6l6-8.7 13.4 30.5h11.9l-18.8-41 18.8-31.9h-12l-19.4 31.8v-31.8h-10.2v72.9h10.3v-21.8zm49 1.4c0 5.7 4.6 10.3 10.3 10.3 5.7 0 10.3-4.6 10.3-10.3v-31.9c0-5.7-4.6-10.3-10.3-10.3s-10.3 4.6-10.3 10.3v31.9zm-10.3 0v-32c0-11.4 9.2-20.5 20.5-20.5s20.5 9.2 20.5 20.5v31.9c0 11.4-9.2 20.5-20.5 20.5s-20.4-9.1-20.5-20.4zm147.1 0c0 5.7 4.6 10.3 10.3 10.3s10.3-4.6 10.3-10.3v-31.9c0-5.7-4.6-10.3-10.3-10.3s-10.3 4.6-10.3 10.3v31.9zm-10.2 0v-32c0-11.4 9.2-20.5 20.5-20.5 11.4 0 20.5 9.2 20.5 20.5v31.9c0 11.4-9.2 20.5-20.5 20.5-11.3.1-20.5-9.1-20.5-20.4zm291.9-14.6c0 4.1 3.3 7.4 7.4 7.4s7.4-3.3 7.4-7.4v-23.1c0-4.1-3.3-7.4-7.4-7.4s-7.4 3.3-7.4 7.4v23.1zm-7.4 0v-23.1c0-8.2 6.6-14.8 14.8-14.8s14.9 6.6 14.9 14.8v23.1c0 8.2-6.6 14.9-14.9 14.9s-14.8-6.7-14.8-14.9zm-73.1-37.9v37.9c0 8.2-6.6 14.9-14.9 14.9s-14.9-6.6-14.9-14.9v-37.9h7.5v37.9c0 4.1 3.3 7.4 7.4 7.4s7.4-3.3 7.4-7.4v-37.9h7.5zm-236.8 0h11.1v72.9h-11.1v-72.9zm-55.4 0v72.9h10.4v-46.1l19.7 46.1h11.1v-72.9h-10.8v46.3l-19.6-46.3h-10.8zm147.5 11h9.8c5.7 0 10.3 4.6 10.3 10.3 0 5.7-4.6 10.3-10.3 10.3h-9.9l.1-20.6zm31.1 10.4c0-11.8-9.5-21.3-21.4-21.3h-20.6v72.9h10.9v-30.3h9.2l10.3 30.3h11.7l-12.2-32.3c7.1-3.5 12.1-10.8 12.1-19.3zm166.4-21.4h7.3v52.8h-7.3v-52.8zm-109.2 7.4v45.4h8.1v-45.4h9.2v-7.4h-26.3v7.4h9zm82.1 37.9c4.1 0 7.4-3.3 7.4-7.4v-23.1c0-4.1-3.3-7.4-7.4-7.4h-7.1v37.9h7.1zm0-45.3c8.2 0 14.9 6.6 14.9 14.8v23.1c0 8.2-6.6 14.9-14.9 14.9h-14.5v-52.8h14.5zm-128 46.1l5.4-5.5c5.3 6.3 12.8 5.4 15.9 2.4 3.2-3.1 2.5-8.2.1-10.3-3.3-2.9-8.9-3.1-12.4-4.8-2.8-1.4-6.2-3.4-7.8-7.8-1.4-3.8-2.2-9 1.1-13.8 4.2-6.1 11.5-6.4 13.5-6.4 8.1-.3 13.5 4.8 14.5 5.9l-5.4 5.5c-2.9-3.3-4.4-4.9-9.2-4.9-4.2 0-8.1 2.7-8.1 8.3 0 7 7.7 8 13.8 9.4 6.5 1.5 9.1 7.5 9.1 13.4 0 7.9-6.7 15.1-14.8 15.1-9.8.2-15.2-5.9-15.7-6.5z"/>
  </symbol>

  <symbol id="mofo" viewBox="0 0 512 512">
    <path d="M176.4 306h-13.4l6.7-13.5 6.7 13.5zm-15.1 3.5h16.8l4 8.2h4.1l-14.9-30.4h-3.1l-15.2 30.4h4.1l4.2-8.2zm111.3-116h93.3v13.3h-93.3v-13.3zm-.1 66.7h13.3v-26.7h80v-13.1h-93.2v39.8zm133.6-13.4v-39.8h66.4v39.8h-66.4zm79.9-53.3h-93.3v66.7h93.3v-66.7zm-319.9 53.3v-39.8h66.4v39.8h-66.4zm79.9-53.3h-93.3v66.7h93.3v-66.7zm-120.1 66.7h-13.4v-53.3h-39.8v53.3h-13.4v-53.3h-39.9v53.3h-13.4v-66.7h119.9v66.7zm376.3 26.9h3.8v30.6h-3.8v-30.6zm-15.6 23.1c-1.4 2.6-3.3 4.7-5.8 6.1-2.4 1.4-5.1 2.1-8.3 2.1-4.5 0-8.3-1.5-11.3-4.5s-4.5-6.8-4.5-11.4c0-4.6 1.5-8.4 4.5-11.4s6.7-4.5 11.3-4.5c2.8 0 5.4.6 7.7 1.9s4.1 3 5.6 5.3l-3.1 2.3c-1-1.8-2.4-3.3-4.1-4.3s-3.8-1.5-6-1.5c-3.4 0-6.2 1.1-8.5 3.5-2.3 2.3-3.4 5.3-3.4 8.9s1.1 6.5 3.4 8.9c2.3 2.3 5 3.5 8.5 3.5 4.9 0 8.5-2.3 11-6.9l3 2zm-41.1 7.5h-4.5l-12.3-17.1-7.4 6.2v10.9h-3.8v-30.5h3.8v15.2l17.4-15.2h5l-12.3 10.8 14.1 19.7zm-42.5 0h-25.1v-30.4h23.9v3.5h-20.1v8.9h12.2v3.5h-12.2v10.9h21.3v3.6zm-35.5-26.9h-12.9v26.9h-3.8v-26.9h-12.8v-3.5h29.4v3.5zm-43.6-3.7h3.8v30.6h-3.8v-30.6zm-18 30.6h-3.8v-14.9h-18v14.9h-3.8v-30.4h3.8v12h18v-12h3.8v30.4zm-41.1-7.5c-1.4 2.6-3.3 4.7-5.8 6.1-2.4 1.4-5.1 2.1-8.3 2.1-4.6 0-8.3-1.5-11.3-4.5s-4.4-6.8-4.4-11.4c0-4.6 1.5-8.4 4.4-11.4s6.8-4.5 11.3-4.5c2.8 0 5.4.6 7.7 1.9 2.3 1.3 4.2 3 5.6 5.3l-3.1 2.3c-1-1.8-2.4-3.3-4.1-4.3-1.8-1-3.8-1.5-6-1.5-3.4 0-6.2 1.1-8.4 3.5-2.3 2.3-3.4 5.3-3.4 8.9s1.1 6.5 3.4 8.9c2.3 2.3 5.1 3.5 8.4 3.5 4.9 0 8.5-2.3 10.9-6.9l3.1 2zm-52.9-9.4h-13.4v-10h13.6c1.8 0 3.2.4 4.1 1.4.9.9 1.4 2.1 1.4 3.8.2 3.2-1.7 4.8-5.7 4.8zm2.6 3.6c2.2-.4 3.9-1.4 5.3-2.9 1.3-1.6 1.9-3.5 1.9-5.6 0-2.6-.9-4.8-2.5-6.2-1.7-1.5-4-2.3-7-2.3h-17.4v30.4h3.8v-13.3h11.8l7.6 13.3h4.1l-7.6-13.4z"/>
  </symbol>

  <symbol id="echo" viewBox="0 0 512 512">
    <path d="M466.3 331.5v-23.9h4.7v-5.2h-4.7v-11.7h-5.6v11.7h-7.8v5.2h7.8v22.4s0 4.3 1 6.3c.8 1.5 2.3 2.8 4.6 3.4 0 0 2.2.6 4.7.4v-5.2s-2 0-3.4-.6c-1.3-.7-1.3-2.8-1.3-2.8zm-51.4-53.4c-31 0-56.1-23.7-56.1-52.9s25.1-52.9 56.1-52.9 56.1 23.7 56.1 52.9-25.1 52.9-56.1 52.9zm0-80.7c-16.3 0-29.4 12.4-29.4 27.7s13.2 27.7 29.4 27.7 29.4-12.4 29.4-27.7-13.2-27.7-29.4-27.7zm-37.2 103.4c5.3 0 9 1.3 12 3.2 9.6 6.4 8.6 18.4 8.6 18.4h-35.1c1 9.7 8.8 12.3 14.6 12.4 11.4.5 13.7-8.3 13.7-8.3h5.9c-.7 1.8-4 13.8-19.7 13.6-16.5-.4-20.5-12.3-20.3-20.3 1.4-19.7 20.3-19 20.3-19zm14.4 16.4s-1.7-11.1-14.4-11.1c-12.8.2-14.3 11.1-14.3 11.1h28.7zm-46.6-3.3s.6-7.2-5.6-10.8c-2.2-1.3-6.2-2.2-9.8-2.2-4.6 0-9.7 1.2-13.3 6.5-2.8-5-7.8-6.5-13.4-6.5-5.2.2-9.1 1.8-12.1 4.8v-3.7h-5.6v37h5.6v-21.8s-.3-6.5 5.1-9.6c2.1-.9 3.8-1.5 6.5-1.5 4.9 0 7.4 1.6 8.7 3.4 1.2 1.9 1.2 3.9 1.2 4.4v25.1h5.6v-23.4s0-3.7 2.3-6.1c1.7-1.8 4.7-3.4 9.3-3.4 9.4.3 9.6 6.5 9.9 7.8v25.1h5.6v-25.1zm-30.1-35.8h28v-106.2h-28v40.4h-40.6v-40.4h-28v106.2h28.1v-41h40.6v41zm-101.2 33.4c.3-1.9.9-3.6 4.3-4.7 3.5-1.2 9.8-.9 12.8.3 3 1.1 4.4 2.9 4.7 6.8h5.6s.1-3.1-1.5-6.3c-1-2-3.1-3.9-6-5.1-3-1.2-6.2-1.6-9.7-1.6-8 0-11.2 2.7-12.2 3.4-1.5 1.2-4.6 4.7-3.5 9.6 1 5 5.2 6.5 6.5 7 1.2.5 3.4.9 4.9 1.1 2.7.3 10.8 1.4 10.8 1.4s4.6.2 5.8 2.9c.9 2.3.6 5.6-2.7 7.3-3.8 1.2-7.4 1.6-12.6 1-4-.5-6.6-1.8-8-4.1-.8-1.4-.9-2.9-1-4h-5.4c.1 1 .3 4.6 2.3 7.3 2 3 4.7 4.4 7.6 5.3 4.8 1.5 13 1.3 17.2 0 4.9-1.3 7.6-4 8.6-8.1.3-2.1 1-7.2-3.9-10.6-1.4-.9-3.4-1.6-5.3-2.1-1.7-.3-5.1-.8-7.9-1.2-3.4-.5-6-.8-6-.8s-5.7-.5-5.4-4.8zm-61.6-86.4c0-15.3 13.2-27.7 29.4-27.7 11.1 0 20.8 5.8 25.8 14.4l23.9-11.3c-9.4-16.8-28.1-28.3-49.7-28.3-31 0-56.2 23.7-56.2 53 0 29.2 25.2 53 56.2 53 22 0 41.1-12 50.2-29.4l-24.1-10.8c-4.8 9.2-14.5 15-26.1 15-16.2-.1-29.4-12.5-29.4-27.9zm-111.6 53h76.7v-24h-48.5v-20.9h41.3v-21.6h-41.3v-16.8h47.2v-22.6h-75.4v105.9zm0 10.7h5.5v9.6h-5.5v-9.6zm0 13.5h5.5v36.7h-5.5v-36.7zm26.4-.3h-5.6v37h5.6v-21.8s-.2-11.1 13.7-11.1c10 0 11.4 5.4 11.2 11.1v21.8h5.7v-24.3c0-2.3-.5-13.9-16.9-13.9-9.4 0-13.2 5-13.7 5.5v-4.3zm45-.1h-6.3l18.4 37h4.6l18.2-37h-6.3l-14.3 29.8-14.3-29.8zm61.8-1.1c5.3 0 9 1.3 12 3.2 9.6 6.5 8.6 18.4 8.6 18.4h-35.1c1 9.7 8.8 12.3 14.6 12.4 11.4.5 13.8-8.3 13.8-8.3h5.9c-.7 1.8-4 13.8-19.7 13.6-16.5-.4-20.4-12.3-20.3-20.3 1.3-19.7 20.2-19 20.2-19zm14.4 16.4s-1.7-11.1-14.4-11.1c-12.8.2-14.3 11.1-14.3 11.1h28.7zm70.9-14.8h-7.8v5.2h7.9v22.4s0 4.3 1 6.3c.8 1.5 2.3 2.8 4.6 3.4 0 0 2.2.6 4.7.4v-5.2s-2 0-3.4-.6-1.4-2.8-1.4-2.8v-23.9h4.7v-5.2h-4.7v-11.7h-5.7v11.7h.1zm156.4-.4h-5.6v37h5.6v-21.8s-.2-11.1 13.7-11.1c10 0 11.4 5.4 11.2 11.1v21.8h5.7v-24.3c0-2.3-.5-13.9-16.9-13.9-9.4 0-13.2 5-13.7 5.5v-4.3z"/>
  </symbol>

  <symbol id="hackett-hamilton" viewBox="0 0 512 512">
    <path d="M6 333.8l14.9-.5 76-28.4-6.4-2.2-22.2 9.6 14.6-19.8 21.8-13.3-98.7 54.6zm88-32.4l10 2.9 31-5.3 2.6-16.7-43.6 19.1zm-19.5 6.1l92.4-40 8.6-28.4-90.6 54.5-10.4 13.9zm65.4-26.1l-2.4 17.8h32l27-9.5 16.3-41.4-27.6-4.4-8.3-13.5-29.4 21-3 4.5 34-20.5-9.8 33.5-28.8 12.5zm60.8 3.3l27-29.1.7-28.7h-2.7l-7.8 22.2-3.5-.4-13.7 36zm8.5-5.7l24.4-21.5 11.7-27.1-5.2-31.7.9-12.8-1.2-.5-5.5 6.8-3.1 11.2-17.4-8.6-20.2 10.9-6.4 11.6 26.7-19.8 13.8 23.2-.9 4.1 3.7.4-1 31.5-20.3 22.3zm-22.9-37l30.4 4.8 9-25.6-12.1-21-36.2 27.4 8.9 14.4zm6-37.9l21.5-11.5 16 8 3-10.1 5.5-6.1-9.2-6.6 14.4-3-11.9-7.5-16.2 6.2-23.1 30.6zm41.5-25.2l8.8 6.1 1.9-2.7-2.6-2.8.8-2.4-8.9 1.8zm11.5-2.7l-.8 3.1 2.3 1.8 4.6-1.3-6.1-3.6zm-123.4 154c-2.1 0-2.2.1-2.2 1.4v6.1c0 4.5.2 5.1 2.6 5.4l1.3.1c.3.2.2 1-.1 1.1-2.3-.1-3.8-.1-5.5-.1-1.9 0-3.3.1-5 .1-.3-.1-.4-.8-.1-1.1l.8-.1c2.4-.5 2.5-.9 2.5-5.4v-15.4c0-4.5-.3-5.2-2.5-5.4l-1.1-.1c-.3-.1-.2-1 .1-1.1 2.1 0 3.6.1 5.4.1 1.7 0 3.1-.1 5-.1.3.1.4.9.1 1.1l-.8.1c-2.5.3-2.6.9-2.6 5.4v4.9c0 1.3.1 1.4 2.2 1.4h12.2c2.1 0 2.2 0 2.2-1.4v-4.9c0-4.5-.1-5.2-2.6-5.4l-.8-.1c-.3-.1-.2-1 .1-1.1 2 .1 3.4.1 5.2.1 1.7 0 3.1-.1 5.1-.1.3.1.4.9.1 1.1l-.9.1c-2.5.3-2.6.9-2.6 5.4v15.4c0 4.5.1 5.1 2.6 5.4l1.1.1c.3.2.1 1-.1 1.1-2.1-.1-3.5-.1-5.2-.1-1.8 0-3.3 0-5.2.1-.3-.1-.4-.8-.1-1.1l.8-.1c2.6-.5 2.6-.9 2.6-5.4v-6.1c0-1.3-.1-1.4-2.2-1.4h-12.4zm189.1 0c-2.1 0-2.2.1-2.2 1.4v6.1c0 4.5.2 5.1 2.6 5.4l1.3.1c.3.2.1 1-.1 1.1-2.3-.1-3.8-.1-5.5-.1-1.9 0-3.3.1-5 .1-.3-.1-.4-.8-.1-1.1l.8-.1c2.4-.5 2.5-.9 2.5-5.4v-15.4c0-4.5-.3-5.2-2.5-5.4l-1.1-.1c-.3-.1-.1-1 .1-1.1 2.1 0 3.6.1 5.4.1 1.7 0 3.1-.1 5-.1.3.1.4.9.1 1.1l-.8.1c-2.5.3-2.6.9-2.6 5.4v4.9c0 1.3.1 1.4 2.2 1.4h12.2c2.1 0 2.2 0 2.2-1.4v-4.9c0-4.5-.1-5.2-2.6-5.4l-.8-.1c-.3-.1-.1-1 .1-1.1 2 .1 3.4.1 5.2.1 1.7 0 3.1-.1 5.1-.1.3.1.4.9.1 1.1l-.9.1c-2.5.3-2.6.9-2.6 5.4v15.4c0 4.5.1 5.1 2.6 5.4l1.1.1c.3.2.1 1-.1 1.1-2.1-.1-3.5-.1-5.2-.1-1.8 0-3.3 0-5.2.1-.3-.1-.4-.8-.1-1.1l.8-.1c2.6-.5 2.6-.9 2.6-5.4v-6.1c0-1.3-.1-1.4-2.2-1.4h-12.4zm-149.4 5.9c-.3-.8-.4-.9-1.6-.9h-5.8c-1 0-1.2.1-1.5.8l-1.4 3.6c-.6 1.6-.9 2.5-.9 2.9 0 .4.2.6 1.1.7l1.3.1c.3.1.3.7-.1.9-1 0-2.2 0-4-.1-1.3 0-2.6.1-3.7.1-.3-.1-.3-.7-.1-.9l1.3-.1c.9-.1 1.8-.5 2.3-1.7.7-1.6 1.8-3.8 3.4-7.6l3.9-9.2c.6-1.3.8-1.9.7-2.4.9-.3 1.6-.9 2-1.3.3 0 .5.1.6.3.5 1.5 1.1 3.1 1.7 4.6l5.2 13.7c1.1 3 1.6 3.5 3.2 3.6l1 .1c.3.1.2.7 0 .9-1.6-.1-2.9-.1-4.6-.1-1.8 0-3.3 0-4.4.1-.3-.1-.4-.7-.1-.9l1.1-.1c.8-.1 1.4-.3 1.4-.6 0-.4-.2-1-.5-1.8l-1.5-4.7zm-7.5-3c-.3.8-.3.8.8.8h4.7c1.1 0 1.2-.1.9-1.1l-2.1-5.6c-.3-.8-.7-1.8-.9-2.2h-.1c-.1.1-.5 1-.9 2l-2.4 6.1zm197.3 3c-.3-.8-.4-.9-1.6-.9h-5.8c-1 0-1.2.1-1.5.8l-1.4 3.6c-.6 1.6-.9 2.5-.9 2.9 0 .4.2.6 1.1.7l1.3.1c.3.1.3.7-.1.9-1 0-2.2 0-4-.1-1.3 0-2.6.1-3.7.1-.3-.1-.3-.7-.1-.9l1.3-.1c.9-.1 1.8-.5 2.3-1.7.7-1.6 1.8-3.8 3.4-7.6l3.9-9.2c.5-1.3.8-1.9.6-2.4.9-.3 1.6-.9 2-1.3.3 0 .5.1.5.3.5 1.5 1.1 3.1 1.7 4.6l5.2 13.7c1.1 3 1.6 3.5 3.2 3.6l1 .1c.3.1.2.7 0 .9-1.6-.1-2.9-.1-4.6-.1-1.8 0-3.3 0-4.4.1-.3-.1-.4-.7-.1-.9l1.1-.1c.8-.1 1.4-.3 1.4-.6 0-.4-.2-1-.5-1.8l-1.3-4.7zm-7.5-3c-.3.8-.3.8.8.8h4.7c1.1 0 1.2-.1.9-1.1l-2.1-5.6c-.3-.8-.6-1.8-.9-2.2h-.1c-.1.1-.5 1-.9 2l-2.4 6.1zm-167.5-9.2c2.6-2 6-2.9 9.7-2.9 2 0 4.7.4 6.4.8.4.1.7.1 1 .1.1.8.2 3 .5 5-.2.3-.7.3-1 0-.6-2.3-2.2-5-7.4-5-5.5 0-10.2 3.3-10.2 10.4 0 7.2 4.8 11.1 10.7 11.1 4.7 0 6.7-2.9 7.5-4.9.3-.1.8-.1 1 .1-.3 1.8-1.2 4-1.7 4.7-.4 0-.9.2-1.3.4-.8.3-3.4.8-5.7.8-3.3 0-6.3-.6-9-2.3-2.9-1.9-5.1-5-5.1-9.4.1-3.7 1.9-6.9 4.6-8.9zm25.3 2.7c0-3.6-.1-4.1-2.1-4.3l-.9-.1c-.2-.1-.2-.8.1-.9 1.7.1 2.8.1 4.3.1 1.4 0 2.5 0 4-.1.2.1.3.7.1.9l-.7.1c-2 .2-2.1.7-2.1 4.3v3.9c0 .6.1 1.3.5 1.3.3 0 .7-.2 1-.4.5-.4 1.4-1.3 1.8-1.7l3.7-3.7c.7-.6 2.3-2.4 2.7-2.9.1-.3.3-.4.3-.6 0-.1-.1-.3-.6-.4l-.9-.2c-.3-.3-.2-.7.1-.9l3.8.1s2.4-.1 3.4-.1c.3.1.3.6.1.9-.9.1-2.2.4-3.2 1-1 .5-2.9 2.2-4.8 4l-3.1 2.9c-.5.5-.8.8-.8 1.1s.2.5.6 1.1c3.3 3.7 5.9 6.8 8.5 9.6.8.8 1.6 1.3 2.8 1.4l.9.1c.3.1.2.8-.1.9-.9-.1-2.2-.1-3.8-.1-1.4 0-2.6 0-4.2.1-.3-.1-.4-.7-.1-.9l.8-.1c.5-.1.8-.1.8-.4s-.3-.5-.5-.8c-.7-.8-1.6-1.8-2.9-3.2l-2.8-3.1c-2-2.2-2.5-2.9-3.3-2.9-.5 0-.6.5-.6 1.7v4.4c0 3.6.1 4.1 2 4.3l.9.1c.2.1.2.8-.1.9-1.7 0-2.9-.1-4.2-.1l-4 .1c-.2-.1-.3-.6-.1-.9l.7-.1c1.8-.3 1.9-.7 1.9-4.3l.1-12.1zm24.3 0c0-3.6-.1-4.1-2.1-4.3l-.6-.1c-.2-.1-.2-.8.1-.9 1.5.1 2.6.1 4 .1h6.4c2.2 0 4.2 0 4.6-.1.2.6.4 3.1.6 4.6-.1.2-.7.3-.9.1-.5-1.6-.8-2.8-2.6-3.3-.7-.1-1.8-.2-3.3-.2h-2.5c-1 0-1 0-1 1.4v6.8c0 1 .1 1 1.1 1h2c1.5 0 2.5-.1 2.9-.2.4-.1.6-.4.8-1.2l.3-1.4c.1-.2.8-.2.9.1 0 .8-.1 2.2-.1 3.5 0 1.3.1 2.5.1 3.3-.1.3-.7.3-.9 0l-.3-1.4c-.2-.6-.4-1.1-1.1-1.3-.5-.1-1.3-.1-2.6-.1h-2c-1 0-1.1 0-1.1.9v4.8c0 1.8.1 3 .7 3.6.4.4 1.1.8 4.1.8 2.6 0 3.6-.1 4.4-.5.6-.4 1.6-1.6 2.4-3.3.3-.1.7 0 .9.3-.3 1.2-1.1 3.8-1.6 4.8-3.1-.1-6.1-.1-9.2-.1h-3.1c-1.5 0-2.6 0-4.7.1-.2-.1-.3-.7-.1-.9l1.1-.1c2-.1 2.1-.7 2.1-4.3v-12.3h.3zm27.5 12.3c0 3.6.1 4.1 2.1 4.3l1.1.1c.2.1.2.8 0 .9-2 0-3.1-.1-4.5-.1s-2.6.1-4.8.1c-.2-.1-.3-.7 0-.9l1.3-.1c2-.1 2.1-.7 2.1-4.3v-15.3c0-1.1 0-1.1-1-1.1h-1.9c-1.5 0-3.4.1-4.2.9-.8.8-1.2 1.5-1.6 2.4-.3.2-.8.1-.9-.3.6-1.6 1.1-3.7 1.3-5.1.1-.1.6-.1.7 0 .2 1.1 1.4 1.1 2.9 1.1h13.8c1.9 0 2.2-.1 2.7-1 .1-.1.5-.1.6.1-.4 1.4-.6 4.2-.5 5.2-.1.3-.7.3-.9 0-.1-.9-.4-2.1-.9-2.5-.8-.6-2.1-.9-4-.9h-2.5c-1 0-1 .1-1 1.2l.1 15.3zm22.9 0c0 3.6 0 4.1 2.1 4.3l1.1.1c.2.1.1.8 0 .9-2 0-3.1-.1-4.5-.1s-2.6.1-4.8.1c-.2-.1-.3-.7 0-.9l1.3-.1c2-.1 2.1-.7 2.1-4.3v-15.3c0-1.1 0-1.1-1-1.1h-1.9c-1.5 0-3.4.1-4.2.9-.8.8-1.2 1.5-1.6 2.4-.3.2-.8.1-.9-.3.6-1.6 1.1-3.7 1.3-5.1.1-.1.5-.1.6 0 .2 1.1 1.4 1.1 2.9 1.1h13.8c1.9 0 2.2-.1 2.7-1 .1-.1.5-.1.6.1-.4 1.4-.6 4.2-.5 5.2-.1.3-.7.3-.9 0-.1-.9-.4-2.1-.9-2.5-.8-.6-2.1-.9-4-.9h-2.4c-1 0-1 .1-1 1.2l.1 15.3zm98.6-4c.9 1.6 1.7 3.2 2.6 4.7h.1c1-1.6 2-3.4 2.9-5.1l3.6-6.5c1.7-3.1 2.8-5 2.9-6.6 1.3.1 2.1.1 2.8.1 1 0 2.2 0 3.4-.1.3.1.3.7 0 .9l-.8.1c-2.4.2-2.7.9-2.7 3.3.1 3.6.1 9.9.4 14.8.1 1.7.1 2.6 1.9 2.8l1.2.1c.3.2.2.7-.1.9-1.6 0-3.1-.1-4.5-.1-1.3 0-3 .1-4.6.1-.3-.1-.3-.6-.1-.9l1.1-.1c1.9-.1 1.9-.7 1.9-2.9l-.1-14.2h-.1c-.3.4-1.7 3.1-2.5 4.5l-3.4 6c-1.7 3-3.4 6.2-4.1 7.8-.1.1-.3.1-.4.1l-.4-.1c-.7-1.8-2.5-5.2-3.3-6.8l-3.4-6.6-2.4-4.9c-.2 2.1-.3 4.1-.4 6.1-.1 2.1-.3 5.1-.3 8 0 2.5.3 3.1 1.7 3.2l1.5.1c.3.2.3.8 0 .9-1.3-.1-2.8-.1-4.2-.1-1.2 0-2.6.1-3.9.1-.3-.2-.3-.7-.1-.9l.9-.1c1.6-.2 2.1-.4 2.4-2.8.3-2.3.4-4.1.6-7.5.2-2.9.4-5.8.4-7.6.1-2.2-.3-2.7-2.5-3h-.6c-.2-.2-.1-.7.1-.9 1.2.1 2.1.1 3 .1.9 0 1.9 0 3.1-.1-.1 1.4.8 3.5 2 5.6l4.4 7.6zm25-8.2c0-3.6 0-4.2-2.1-4.4l-.9-.1c-.2-.1-.1-.8 0-.9 1.7.1 2.9.1 4.3.1s2.5 0 4.3-.1c.2.1.3.7 0 .9l-.9.1c-2 .1-2.1.8-2.1 4.4v12.2c0 3.6 0 4.1 2.1 4.4l.9.1c.2.1.1.8 0 .9-1.7-.1-2.9-.1-4.3-.1-1.5 0-2.6 0-4.3.1-.2-.1-.3-.7 0-.9l.9-.1c2-.3 2.1-.7 2.1-4.4v-12.2zm13.8-.1c0-3.6 0-4.1-2.2-4.3l-.9-.1c-.2-.1-.1-.8 0-.9 1.9.1 3.1.1 4.5.1s2.5 0 4.2-.1c.2.1.3.7 0 .9l-.8.1c-2 .1-2.1.7-2.1 4.3v11.9c0 2.2.1 3.1.7 3.7.4.4 1 .8 3.7.8 2.9 0 3.6-.1 4.2-.4.7-.4 1.6-1.7 2.3-3.4.2-.1.9 0 .9.2 0 .4-1 3.9-1.5 4.8-1.8 0-5-.1-8.5-.1h-3.2c-1.5 0-2.5.1-4.5.1-.2-.1-.3-.6 0-.9l1-.1c2-.2 2.1-.7 2.1-4.3v-12.3h.1zm24.7 12.3c0 3.6 0 4.1 2.1 4.3l1.1.1c.2.1.1.8 0 .9-2 0-3.1-.1-4.5-.1s-2.6.1-4.8.1c-.2-.1-.3-.7 0-.9l1.3-.1c2-.1 2.1-.7 2.1-4.3v-15.3c0-1.1 0-1.1-1-1.1h-1.9c-1.5 0-3.4.1-4.2.9-.8.8-1.1 1.5-1.6 2.4-.3.2-.8.1-.9-.3.5-1.6 1-3.7 1.3-5.1.1-.1.5-.1.6 0 .2 1.1 1.4 1.1 2.9 1.1h13.8c1.9 0 2.2-.1 2.7-1 .2-.1.6-.1.6.1-.4 1.4-.6 4.2-.5 5.2-.1.3-.7.3-.9 0-.1-.9-.4-2.1-.9-2.5-.8-.6-2.1-.9-4-.9h-2.4c-1 0-1 .1-1 1.2l.1 15.3zm10.5-5.9c0-6.8 5.7-12.1 13.5-12.1 8.8 0 13.1 5.7 13.1 11.7 0 6.9-5.8 11.9-13.1 11.9-8.4.1-13.5-5.4-13.5-11.5zm22.8.7c0-5.6-2.8-11.7-10-11.7-4 0-9.1 2.4-9.1 9.9 0 5.1 2.7 11.6 10.2 11.6 4.6 0 8.9-3.1 8.9-9.8zm30.8 4.5c0 1 0 5.1.1 6-.1.2-.3.4-.8.4-.5-.6-1.6-1.8-4.9-5.2l-8.9-9c-1.1-1.1-3.7-3.9-4.5-4.6h-.1c-.1.4-.2 1.2-.2 2.2v7.5c0 1.6 0 6.1.7 7.1.3.4 1 .6 2 .6l1.2.1c.3.3.2.7-.1.9-1.7 0-3.1-.1-4.5-.1-1.6 0-2.7.1-4 .1-.3-.1-.3-.6-.1-.9l1.1-.1c.9-.1 1.5-.3 1.7-.7.5-1.3.5-5.4.5-7v-9.9c0-1 0-1.7-.9-2.5-.6-.5-1.5-.7-2.4-.8l-.6-.1c-.3-.2-.3-.7.1-.9 1.6.1 3.7.1 4.4.1.6 0 1.3 0 1.8-.1.8 1.8 5.3 6.3 6.6 7.5l3.7 3.7c2.7 2.6 4.5 4.6 6.3 6.2h.1c.2-.1.2-.7.2-1.5v-7.2c0-1.6-.1-6.1-.8-7.1-.3-.3-.9-.5-2.4-.7h-.6c-.3-.2-.3-.8.1-.9 1.8.1 3.1.1 4.5.1 1.7 0 2.7 0 4-.1.3.1.3.7.1.9h-.5c-1.3.2-2 .5-2.2.7-.6 1.3-.5 5.5-.5 7l-.2 8.3z"/>
  </symbol>

  <symbol id="mallson" viewBox="0 0 512 512">
    <path d="M41.1 275.3c.1 0 0-80.3 0-80.3h33.9l15.4 52.8 16.2-52.8h32.8v80.3h-21.2v-59.1l-18.5 59.1h-20.5l-17.9-57.8v57.8h-20.2zm175.4-80.3h21.2v80.3h-21.2v-80.3zm32.5 0h21.2v80.3h-21.2v-80.3zm121.6 81.5h-8.8c-16.2 0-29.5-13.3-29.5-29.5v-3.5c0-16.2 13.3-29.5 29.5-29.5h8.8c16.2 0 29.5 13.3 29.5 29.5v3.5c0 16.2-13.3 29.5-29.5 29.5zm-4.4-47.2c-6.4 0-11.7 7.1-11.7 16 0 8.8 5.2 16 11.7 16 6.4 0 11.7-7.1 11.7-16s-5.2-16-11.7-16zm-190.8 32.7c-5.2 0-7.9-2.2-7.9-5.8 0-4 4-7.1 9.5-7.1h8.7c0 8.5-5.2 12.9-10.3 12.9zm-4.1-25.2c-4.4 0-13.6 1.1-19.8 7.6-4.2 4.4-4.6 7.4-4.6 13 0 5.9 1.9 10.1 6.4 14.1 4.1 3.7 9.1 3.8 14.6 3.8 9.4 0 14.5-2.2 19.1-7.5v7.5h19v-37.8c0-4.8-2.1-11.6-6.9-16.9-4.5-4.9-12.2-7.2-21.9-7.2-10.1 0-18.2 2.4-23.3 4.8v15.4c10.3-5.6 13.2-5.8 21-5.8 4.3 0 10.7 3.1 10.7 8.9l-14.3.1m108.3 19.2c4.1 2.6 9.6 5.2 16 5.2 7.1 0 10.9 0 10.9-3.6s-3.2-4.3-9.8-6.2c-14.3-4.5-19.2-7.3-19.2-18.8 0-10.6 11-18.7 28-18.7 7.8 0 14.5 1.5 19 3.3l-1.8 15.7c-3.3-1.4-9.1-4.8-14.9-4.8-6.2 0-8.3 1.8-8.3 3.6 0 2.1 2.1 4 11.8 6.5 13.1 3.4 16.9 8.6 16.9 18.7 0 9.1-5.5 19.6-29.8 19.6-8.4 0-13.8-.7-18.9-3l.1-17.5zm148.5-34.2c3.8-3.4 8.5-7.9 19.1-7.9 15.2 0 23.7 7.7 23.7 24.5v36.8h-21.2v-32.5c0-7.4-3.2-11-10.2-11-4.8 0-9.2 4.3-9.2 10.7v32.8h-21.8v-60h19.6v6.6zm-387.1 94.8v-23.4c1.7-.3 4-.5 7.1-.5 3.4 0 6 .6 7.7 1.9 1.6 1.2 2.6 3.1 2.6 5.3 0 6.5-6.2 8-10.3 8-.7 0-1.4 0-1.9-.1v8.9c0-.1-5.2-.1-5.2-.1zm5.2-12.4c.5.1 1.1.1 1.8.1 3.3 0 5.2-1.6 5.2-4.2 0-2.5-1.8-3.9-4.7-3.9-1.1 0-1.8.1-2.3.2v7.8zm26.6-10.9c1.8-.3 4.3-.5 7-.5 3.4 0 10.4.4 10.4 6.7 0 2.9-2.1 5-4.6 5.9v.1c1.9.6 3 2.2 3.6 4.6.8 2.8 1.5 5.6 2 6.5h-5.5c-.4-.7-1.1-2.8-1.7-5.6-.7-3.1-1.8-4-4.3-4h-1.7v9.6h-5.2v-23.3zm5.2 10.4h2.1c3 0 4.8-1.5 4.8-3.7 0-3.1-2.6-3.7-4.5-3.7-1.2 0-2 0-2.4.2v7.2zm48.5.8c0 8.3-4.8 12.5-11.6 12.5-7.2 0-11.2-5.2-11.2-12.1 0-7.1 4.5-12.3 11.6-12.3 7.6 0 11.2 5.6 11.2 11.9zm-17.3.3c0 4.6 2.1 8.5 5.9 8.5s5.9-3.8 5.9-8.6c0-4.3-1.9-8.4-5.8-8.4-4.1 0-6 4.1-6 8.5zm31.9 11.8v-23.4c1.7-.3 4-.5 7.1-.5 3.4 0 6 .6 7.7 1.9 1.6 1.2 2.6 3.1 2.6 5.3 0 6.5-6.2 8-10.3 8-.7 0-1.4 0-1.9-.1v8.9h-5.2v-.1zm5.2-12.4c.5.1 1.1.1 1.8.1 3.3 0 5.2-1.6 5.2-4.2 0-2.5-1.8-3.9-4.7-3.9-1.1 0-1.8.1-2.3.2v7.8zm41.8 8.6v3.8h-15.2v-23.6h14.6v3.8h-9.4v5.7h8.9v3.7h-8.9v6.6h10zm14.6-19.5c1.8-.3 4.3-.5 7-.5 3.4 0 10.4.4 10.4 6.7 0 2.9-2.1 5-4.6 5.9v.1c1.9.6 3 2.2 3.6 4.6.8 2.8 1.5 5.6 2 6.5h-5.4c-.4-.7-1.1-2.8-1.7-5.6-.7-3.1-1.8-4-4.3-4h-1.7v9.6h-5.2l-.1-23.3zm5.2 10.4h2.1c3 0 4.8-1.5 4.8-3.7 0-3.1-2.6-3.7-4.5-3.7-1.2 0-2 0-2.4.2v7.2zm43.6-10.7v4h-6.7v19.7h-5.2v-19.7h-6.7v-4h18.6zm26.4 0h5.8l-8 13.9v9.8h-5.2v-9.7l-7.7-14.1h5.8l2.7 5.8c.8 1.7 1.4 3.2 2.1 4.8h.1c.5-1.6 1.2-3.1 2-4.9l2.4-5.6zm56.8 10.4v12.3c-1.6.5-4.6 1.2-7.7 1.2-4.1 0-7.3-.9-9.6-2.9s-3.7-5.2-3.7-9c0-8 6.1-12.3 13.9-12.3 2.8 0 5 .4 6.4 1l-1.1 3.7c-1.2-.5-2.8-.9-5.2-.9-4.9 0-8.5 2.6-8.5 8.3 0 5.5 3.4 8.3 7.8 8.3 1.3 0 2.2-.2 2.7-.3v-5.8h-3.9v-3.6h8.9zm15.3-10.1c1.8-.3 4.3-.5 7-.5 3.4 0 10.4.4 10.4 6.7 0 2.9-2.1 5-4.6 5.9v.1c1.9.6 3 2.2 3.6 4.6.8 2.8 1.5 5.6 2 6.5h-5.4c-.4-.7-1.1-2.8-1.7-5.6-.7-3.1-1.8-4-4.3-4h-1.8v9.6h-5.2v-23.3zm5.2 10.4h2.1c3 0 4.8-1.5 4.8-3.7 0-3.1-2.6-3.7-4.5-3.7-1.2 0-2 0-2.4.2v7.2zm48.6.8c0 8.3-4.8 12.5-11.6 12.5-7.2 0-11.2-5.2-11.2-12.1 0-7.1 4.5-12.3 11.6-12.3 7.5 0 11.2 5.6 11.2 11.9zm-17.4.3c0 4.6 2.1 8.5 5.9 8.5 3.9 0 5.9-3.8 5.9-8.6 0-4.3-1.9-8.4-5.8-8.4-4.1 0-6 4.1-6 8.5zm51.4-11.9v13.9c0 6.9-3.8 10.2-9.9 10.2-6.1 0-9.6-3.2-9.6-10.1v-13.9h5.2v14.3c0 4.2 1.8 6 4.5 6 2.8 0 4.6-1.8 4.6-6v-14.3h5.2v-.1zm15.8 23.7v-23.4c1.7-.3 4-.5 7.1-.5 3.4 0 6 .6 7.7 1.9 1.6 1.2 2.6 3.1 2.6 5.3 0 6.5-6.2 8-10.3 8-.7 0-1.4 0-1.9-.1v8.9h-5.2v-.1zm5.2-12.4c.5.1 1.1.1 1.8.1 3.3 0 5.2-1.6 5.2-4.2 0-2.5-1.8-3.9-4.7-3.9-1.1 0-1.8.1-2.3.2v7.8z"/>
  </symbol>

  <symbol id="studio-thoernblom" viewBox="0 0 512 512">
    <path d="M66.9 252l9.4-1.1c.4 1.4 1 2.3 1.6 2.9.7.6 1.6.9 2.8.9 1.3 0 2.3-.3 3-1 .6-.5.8-1.1.8-1.8 0-.8-.4-1.5-1.1-1.9-.5-.3-1.9-.7-4.1-1.2-3.3-.7-5.6-1.3-6.9-1.9-1.3-.6-2.4-1.6-3.3-3-.9-1.4-1.3-3-1.3-4.8 0-2 .5-3.6 1.4-5.1 1-1.4 2.3-2.5 3.9-3.2s3.9-1.1 6.7-1.1c3 0 5.1.3 6.5.8 1.4.6 2.6 1.4 3.5 2.5s1.7 2.7 2.4 4.6l-9 1.1c-.3-1-.6-1.7-1.2-2.1-.8-.6-1.7-.9-2.7-.9-1.1 0-1.9.3-2.4.7-.5.5-.8 1-.8 1.7s.3 1.3 1 1.7c.6.4 2 .7 4.1 1 3.2.5 5.5 1 7 1.8 1.6.8 2.7 1.9 3.5 3.3.8 1.4 1.2 3 1.2 4.7 0 1.7-.5 3.4-1.3 5-.9 1.6-2.2 2.9-4.1 3.9-1.9 1-4.4 1.5-7.6 1.5-4.5 0-7.7-.8-9.6-2.3-1.6-1.6-2.9-3.9-3.4-6.7zm40.9-30.4v9.7h5v7.1h-5v11.1c0 1.3 0 1.8.2 2.2.3.7.9.8 1.6.8.7 0 1.7-.1 3.3-.1v8h-6c-2.3 0-3.9-.4-5-1.1-1.1-.7-1.9-1.8-2.4-3.3-.5-1.5-.8-3.3-.8-6.6v-11h-3.3v-7.1h3.3v-9.7h9.1zm-54.4 0h-21.8v8.6h4.4v6.7h-4.4v11.1c0 1.2 0 1.7.2 2 .3.6.9.8 1.6.8.7 0 1.7-.1 3.3-.1v7.6h-6c-2.3 0-3.9-.4-5-1s-1.9-1.7-2.4-3.1c-.5-1.4-.8-3.1-.8-6.2v-11h-2.7v-6.7h2.7v-8.6h-16.5v48h47.4v-48.1zm197.2 0v9.7h5v7.1h-5v11.1c0 1.3 0 1.8.2 2.2.3.7.9.8 1.6.8.7 0 1.7-.1 3.3-.1v8h-6c-2.3 0-3.9-.4-5-1.1-1.1-.7-1.9-1.8-2.4-3.3-.5-1.5-.8-3.3-.8-6.6v-11h-3.3v-7.1h3.3v-9.7h9.1zm-106.5 38.7h-8.2v-4.8c-1.3 2-2.7 3.4-4 4.2-1.4.9-3 1.3-5 1.3-2.6 0-4.7-1-6.1-2.8-1.5-1.9-2.2-4.8-2.2-8.6v-18.8h8.3v16.3c0 1.9.3 3.2.9 4 .6.8 2 1.2 3 1.2 1.2 0 2.7-.5 3.4-1.6.7-1.1 1.1-2.9 1.1-5.6v-14.2h8.9l-.1 29.4zm31.7-40.9v40.8h-8.3v-4.4c-1.3 1.9-2.4 3.1-3.4 3.8-1.4.9-2.9 1.3-4.6 1.3-3.4 0-5.9-1.6-7.7-4.6-1.8-3.1-2.7-6.8-2.7-11.2 0-4.9 1-8.7 3-11.3 2-2.6 4.5-3.9 7.5-3.9 1.5 0 2.8.3 4 .9 1.2.6 2.3 1.5 3.2 2.7v-14.2c0 .1 9 .1 9 .1zm-8.9 26c0-2.3-.4-4.1-1.3-5.2-.8-1.2-1.9-1.7-3.1-1.7-1.1 0-2 .6-2.8 1.7-.8 1.1-1.1 3-1.1 5.5 0 2.4.4 4.2 1.2 5.3s1.7 1.7 2.9 1.7 2.2-.6 3-1.7c.8-1.2 1.2-3.1 1.2-5.6zm15.6-26h8.9v6.5h-8.9v-6.5zm0 11.3h8.9v29.6h-8.9v-29.6zm14.2 14.4c0-4.7 1.2-8.5 3.6-11.5 2.4-3 5.6-4.5 9.6-4.5 4.6 0 8.1 1.8 10.4 5.3 1.9 2.9 2.9 6.4 2.9 10.5 0 4.7-1.2 8.5-3.5 11.5-2.4 3-5.6 4.5-9.7 4.5-3.7 0-6.7-1.3-9-3.7-2.9-3.1-4.3-7.1-4.3-12.1zm8.8 0c0 2.7.4 4.7 1.3 6 .9 1.3 1.9 2 3.1 2 1.3 0 2.3-.7 3.1-1.9.8-1.3 1.2-3.4 1.2-6.2 0-2.7-.4-4.6-1.3-5.9-.8-1.3-1.9-2-3.1-2-1.3 0-2.4.7-3.2 2-.7 1.3-1.1 3.3-1.1 6zm85.9 0c0-4.7 1.2-8.5 3.6-11.5 2.4-3 5.6-4.5 9.6-4.5 4.6 0 8.1 1.8 10.4 5.3 1.9 2.9 2.9 6.4 2.9 10.5 0 4.7-1.2 8.5-3.5 11.5-2.4 3-5.6 4.5-9.7 4.5-3.7 0-6.7-1.3-9-3.7-2.9-3.1-4.3-7.1-4.3-12.1zm8.8 0c0 2.7.4 4.7 1.3 6 .9 1.3 1.9 2 3.1 2 1.3 0 2.3-.7 3.1-1.9.8-1.3 1.2-3.4 1.2-6.2 0-2.7-.4-4.6-1.3-5.9-.8-1.3-1.9-2-3.1-2-1.3 0-2.4.7-3.2 2-.7 1.3-1.1 3.3-1.1 6zm131.3 0c0-4.7 1.2-8.5 3.6-11.5 2.4-3 5.6-4.5 9.6-4.5 4.6 0 8.1 1.8 10.4 5.3 1.9 2.9 2.9 6.4 2.9 10.5 0 4.7-1.2 8.5-3.5 11.5s-5.6 4.5-9.7 4.5c-3.7 0-6.7-1.3-9-3.7-2.9-3.1-4.3-7.1-4.3-12.1zm8.8 0c0 2.7.4 4.7 1.3 6 .9 1.3 1.9 2 3.1 2s2.3-.7 3.1-1.9c.8-1.3 1.2-3.4 1.2-6.2 0-2.7-.4-4.6-1.3-5.9-.8-1.3-1.9-2-3.1-2-1.3 0-2.4.7-3.2 2-.6 1.3-1.1 3.3-1.1 6zm-179.6-25.7h9.5v15.1c1.3-1.6 2.6-2.8 3.9-3.4 1.3-.7 2.8-1.1 4.5-1.1 2.6 0 4.6 1 6.1 2.8 1.5 1.9 2.2 4.8 2.2 8.7v18.8h-9.5v-16.3c0-1.9-.3-3.2-.9-4-.6-.8-1.4-1.2-2.4-1.2-1.2 0-2.1.5-2.8 1.6-.7 1.1-1.1 2.9-1.1 5.6v14.2h-9.5v-40.8zm62.5 10.1h8.9v6.1c.9-2.1 1.8-3.6 2.7-4.4.9-.8 2.8-1.7 5.3-1.7 2.4 0 4 .5 6.5 2.7l-6.7 7.5c-1.1-.6-2-.9-2.7-.9-1.3 0-2.2.6-2.9 1.9-1 1.8-1.5 5-1.5 9.7v9.9h-9.5l-.1-30.8zm26 0h8.8v3.2c1.3-2 2.1-2.4 3.5-2.8 2.2-.6 3.6-.5 5.7-.5 2.6 0 4.4 1.5 5.9 3.4s2.2 4.8 2.2 8.7v18.8h-9.5v-16.3c0-1.9-.3-3.2-.9-4-.6-.8-1.4-1.2-2.4-1.2-1.2 0-2.1.5-2.8 1.6-.7 1.1-1.1 2.9-1.1 5.6v14.2h-9.5l.1-30.7zm33.1-10.1h9.2v14.2c.9-1.2 2-2.1 3.1-2.7 1.2-.6 2.5-.9 3.8-.9 2.9 0 5.3 1.3 7.2 3.9 1.9 2.6 2.9 6.3 2.9 11.2 0 3.3-.5 6.1-1.3 8.6-.9 2.5-2.1 4.3-3.6 5.5-1.5 1.2-3.2 1.8-5.1 1.8-1.6 0-3.1-.5-4.4-1.3-1-.7-2.1-1.9-3.3-3.8v4.4h-8.5v-40.9zm9.1 26c0 2.6.4 4.4 1.2 5.5.8 1.2 1.8 1.7 2.9 1.7 1.1 0 2-.6 2.8-1.7.8-1.1 1.1-3 1.1-5.7 0-2.4-.4-4.1-1.1-5.2-.7-1.1-1.6-1.7-2.6-1.7-1.3 0-2.3.6-3 1.7-1 1.3-1.3 3-1.3 5.4zm71.9-15.6h9v4.5c1.3-1.9 2.6-3.2 4-4 1.3-.8 2.9-1.2 4.8-1.2 2 0 3.6.5 4.8 1.3s2.2 2.2 2.9 3.9c1.5-2 2.9-3.4 4.2-4.1s2.8-1.1 4.6-1.1c2.7 0 4.8 1 6.3 2.9s2.3 5 2.3 9.1v19.1h-9.7v-17.4c0-1.4-.2-2.4-.7-3.1-.7-1.1-1.5-1.6-2.4-1.6-1.2 0-2.1.5-2.8 1.5-.7 1-1.1 2.6-1.1 4.8v15.7h-9.7v-16.8c0-1.4 0-2.3-.2-2.7-.2-.8-.6-1.4-1.1-1.9-.5-.5-1.1-.7-1.8-.7-1.1 0-2 .5-2.8 1.5-.7 1-1.1 2.7-1.1 5v15.6h-9.7l.2-30.3zm-40.7-10.4h-9.1v32.1c0 4.9 3.9 8.8 8.8 8.8h5.5v-8h-3.9c-.7 0-1.3-.6-1.3-1.3v-31.6zm-128.6-1.9h8v8h-8v-8zm12.6 0h8v8h-8v-8zm-217.7 58.3h3.1v3.1h-3.1v-3.1zm5.5 0h3.1v3.1h-3.1v-3.1zm79.2 0h3.1v3.1h-3.1v-3.1zm5.5 0h3.1v3.1h-3.1v-3.1zm-109.1 18.4h-2.1v-18h2.2v6.4c1-1.2 2.1-1.8 3.6-1.8.8 0 1.6.1 2.3.5.7.3 1.3.8 1.8 1.4.5.6.9 1.3 1.1 2.1.3.9.4 1.7.4 2.7 0 2.3-.6 4-1.7 5.2-1.1 1.2-2.5 1.9-4 1.9-1.6 0-2.8-.7-3.6-2v1.6zm0-6.6c0 1.6.2 2.7.7 3.4.7 1.2 1.7 1.7 2.9 1.7 1 0 1.8-.4 2.5-1.3s1.1-2.1 1.1-3.8c0-1.7-.4-3-1-3.8-.7-.8-1.5-1.2-2.5-1.2s-1.8.4-2.5 1.3c-.9.9-1.2 2.1-1.2 3.7zm26.8 6.6v-1.9c-1 1.5-2.4 2.2-4.2 2.2-.8 0-1.5-.1-2.2-.5-.7-.3-1.2-.7-1.5-1.1-.4-.5-.6-1-.7-1.7-.1-.5-.2-1.1-.2-2.1v-8.1h2.2v7.3c0 1.2.1 2 .2 2.4.2.6.5 1.1.9 1.4.5.4 1 .5 1.7.5s1.3-.2 1.9-.5c.6-.4 1-.8 1.3-1.4.3-.6.4-1.5.4-2.6v-7h2.2v13.1h-2zm13 0v-13.1h2v2c.5-1 1-1.6 1.4-1.9.5-.3.9-.5 1.4-.5.8 0 1.5.3 2.3.7l-.8 2.1c-.6-.3-1.1-.5-1.6-.5s-.9.2-1.3.5-.7.7-.8 1.2c-.3.8-.4 1.7-.4 2.6v6.9h-2.2zm15.6-6.5c0-2.4.7-4.2 2-5.4 1.1-1 2.5-1.5 4.1-1.5 1.8 0 3.3.6 4.4 1.8 1.2 1.2 1.7 2.8 1.7 4.9 0 1.7-.3 3-.8 4s-1.3 1.7-2.2 2.3c-1 .6-2 .8-3.2.8-1.9 0-3.3-.6-4.5-1.8-1-1.2-1.5-2.9-1.5-5.1zm2.3 0c0 1.7.4 2.9 1.1 3.8.8.9 1.7 1.3 2.8 1.3s2-.4 2.8-1.3c.8-.9 1.1-2.1 1.1-3.8 0-1.6-.4-2.9-1.1-3.7-.8-.9-1.7-1.3-2.8-1.3s-2 .4-2.8 1.3c-.7.7-1.1 2-1.1 3.7zm31.5 6.5v-11.4h-2v-1.7h2v-1.4c0-.9.1-1.6.3-2 .2-.6.6-1.1 1.1-1.4.6-.4 1.3-.6 2.3-.6.6 0 1.3.1 2.1.2l-.4 2c-.5-.1-.9-.1-1.3-.1-.7 0-1.2.2-1.4.5-.3.3-.4.8-.4 1.6v1.2h2.6v1.7h-2.6v11.4h-2.3zm21.9 0v-1.9c-1 1.5-2.4 2.2-4.2 2.2-.8 0-1.5-.1-2.2-.5-.7-.3-1.2-.7-1.5-1.1-.3-.5-.6-1-.7-1.7-.1-.5-.2-1.1-.2-2.1v-8.1h2.2v7.3c0 1.2.1 2 .2 2.4.2.6.5 1.1.9 1.4.5.4 1 .5 1.7.5s1.3-.2 1.9-.5c.6-.4 1-.8 1.3-1.4.3-.6.4-1.5.4-2.6v-7h2.2v13.1h-2zm13.6 0v-13.1h2v2c.5-1 1-1.6 1.4-1.9.5-.3.9-.5 1.4-.5.8 0 1.5.3 2.3.7l-.8 2.1c-.6-.3-1.1-.5-1.6-.5s-.9.2-1.3.5-.7.7-.8 1.2c-.3.8-.4 1.7-.4 2.6v6.9h-2.2zm28-15.5v-2.6h2.2v2.6h-2.2zm0 15.5v-13.1h2.2v13.1h-2.2zm13.7 0v-13.1h2v1.9c1-1.5 2.4-2.2 4.2-2.2.8 0 1.5.1 2.2.4.7.3 1.2.7 1.5 1.1s.6 1 .7 1.7c.1.4.1 1.2.1 2.2v8h-2.2v-8c0-.9-.1-1.6-.3-2s-.5-.8-.9-1.1c-.5-.3-1-.4-1.6-.4-1 0-1.8.3-2.5.9-.7.6-1.1 1.8-1.1 3.4v7.1l-2.1.1zm19.7 0v-13.1h2v1.9c1-1.5 2.4-2.2 4.2-2.2.8 0 1.5.1 2.2.4.7.3 1.2.7 1.5 1.1s.6 1 .7 1.7c.1.4.1 1.2.1 2.2v8h-2.2v-8c0-.9-.1-1.6-.3-2-.2-.5-.5-.8-.9-1.1-.5-.3-1-.4-1.6-.4-1 0-1.8.3-2.5.9-.7.6-1.1 1.8-1.1 3.4v7.1l-2.1.1zm29.9-4.2l2.3.3c-.4 1.4-1.1 2.4-2 3.1-1 .8-2.2 1.1-3.8 1.1-1.9 0-3.4-.6-4.6-1.8-1.1-1.2-1.7-2.8-1.7-5s.6-3.9 1.7-5.1c1.2-1.2 2.6-1.8 4.4-1.8 1.8 0 3.2.6 4.3 1.8 1.1 1.2 1.7 2.9 1.7 5v.6h-9.8c.1 1.5.5 2.6 1.2 3.3.8.8 1.7 1.2 2.8 1.2.8 0 1.5-.2 2.1-.7s1-1.1 1.4-2zm-7.3-3.6h7.3c-.1-1.1-.4-1.9-.9-2.5-.7-.9-1.6-1.3-2.8-1.3-1 0-1.9.4-2.6 1-.6.7-.9 1.7-1 2.8zm18.6 7.8v-13.1h2v1.9c1-1.5 2.4-2.2 4.2-2.2.8 0 1.5.1 2.2.4.7.3 1.2.7 1.5 1.1s.6 1 .7 1.7c.1.4.1 1.2.1 2.2v8h-2.2v-8c0-.9-.1-1.6-.3-2-.2-.5-.5-.8-.9-1.1-.5-.3-1-.4-1.6-.4-1 0-1.8.3-2.5.9-.7.6-1.1 1.8-1.1 3.4v7.1l-2.1.1zm29.5-1.6c-.8.7-1.6 1.2-2.4 1.5-.8.3-1.6.5-2.5.5-1.5 0-2.6-.4-3.3-1.1-.8-.7-1.2-1.6-1.2-2.7 0-.7.2-1.2.5-1.8.3-.6.7-1 1.2-1.3.5-.3 1-.6 1.6-.7.5-.1 1.1-.3 2-.4 1.8-.2 3.1-.5 4-.8v-.6c0-.9-.2-1.6-.7-1.9-.6-.5-1.4-.8-2.5-.8s-1.8.2-2.3.6c-.5.4-.9 1-1.1 2l-2.2-.3c.2-1 .5-1.7 1-2.3.5-.6 1.1-1 2-1.3.9-.3 1.9-.5 3-.5s2 .2 2.7.4c.7.3 1.2.6 1.6 1 .4.4.6.9.7 1.5 0 .4.1 1.1.1 2.1v3c0 2.1 0 3.4.2 3.9.1.6.3 1.1.6 1.6h-2.3c-.5-.5-.7-1-.7-1.6zm-.2-5c-.8.4-2 .6-3.6.9-.9.2-1.6.3-2 .5s-.7.4-.9.7-.3.7-.3 1.1c0 .6.2 1.1.7 1.5.5.4 1.1.6 2 .6.9 0 1.6-.2 2.3-.6.7-.4 1.2-.9 1.5-1.6.3-.5.4-1.3.4-2.2l-.1-.9zm11.3 6.6v-13.1h2v2c.5-1 1-1.6 1.4-1.9.5-.3.9-.5 1.4-.5.8 0 1.5.3 2.3.7l-.8 2.1c-.6-.3-1.1-.5-1.6-.5s-.9.2-1.3.5-.7.7-.8 1.2c-.3.8-.4 1.7-.4 2.6v6.9h-2.2zm26.3-4.8l2.2.3c-.3 1.5-.9 2.7-1.8 3.5-1 .9-2.2 1.3-3.6 1.3-1.8 0-3.2-.6-4.3-1.8s-1.7-2.9-1.7-5c0-1.4.3-2.7.7-3.7.5-1.1 1.2-1.9 2.2-2.4 1-.6 2-.8 3.1-.8 1.4 0 2.6.4 3.5 1.1.9.7 1.5 1.8 1.8 3.1l-2.2.4c-.2-.9-.6-1.6-1.1-2-.5-.5-1.2-.7-1.9-.7-1.1 0-2 .4-2.7 1.2s-1.1 2.1-1.1 3.8.4 3.1 1 3.8c.7.8 1.6 1.2 2.7 1.2.9 0 1.6-.3 2.2-.8.4-.6.8-1.4 1-2.5zm9.7 4.8v-18h2.2v6.5c1.1-1.2 2.4-1.8 3.9-1.8 1 0 1.8.2 2.5.6.7.4 1.2.9 1.6 1.6.3.7.5 1.7.5 2.9v8.3h-2.2v-8.3c0-1.1-.3-1.9-.7-2.4-.5-.5-1.2-.8-2.1-.8-.7 0-1.3.2-1.9.5-.6.4-1 .8-1.3 1.4-.3.6-.4 1.4-.4 2.4v7.2h-2.1v-.1zm20.4-15.5v-2.6h2.2v2.6h-2.2zm0 15.5v-13.1h2.2v13.1h-2.2zm17.9-2l.3 2c-.6.2-1.2.2-1.7.2-.8 0-1.4-.1-1.9-.4s-.8-.6-1-1c-.2-.4-.3-1.3-.3-2.6v-7.5h-1.6v-1.7h1.6v-3.3l2.2-1.4v4.6h2.2v1.7h-2v7.7c0 .7 0 1.1.1 1.2.1.2.2.3.4.5.2.1.5.1.8.1.2 0 .5 0 .9-.1zm18.6-2.2l2.3.3c-.4 1.4-1.1 2.4-2 3.1-1 .8-2.2 1.1-3.8 1.1-1.9 0-3.4-.6-4.6-1.8-1.1-1.2-1.7-2.8-1.7-5s.6-3.9 1.7-5.1c1.2-1.2 2.6-1.8 4.4-1.8 1.8 0 3.2.6 4.3 1.8 1.1 1.2 1.7 2.9 1.7 5v.6h-9.8c.1 1.5.5 2.6 1.2 3.3.7.8 1.7 1.2 2.8 1.2.8 0 1.5-.2 2.1-.7s1.1-1.1 1.4-2zm-7.3-3.6h7.3c-.1-1.1-.4-1.9-.9-2.5-.7-.9-1.6-1.3-2.8-1.3-1 0-1.9.4-2.6 1-.5.7-.9 1.7-1 2.8zm18.7 7.8v-18h2.2v10.3l5.3-5.3h2.9l-5 4.9 5.5 8.2h-2.8l-4.3-6.7-1.6 1.5v5.2h-2.2v-.1zm24.9-2l.3 2c-.6.2-1.2.2-1.7.2-.8 0-1.4-.1-1.9-.4s-.8-.6-1-1c-.2-.4-.3-1.3-.3-2.6v-7.5h-1.6v-1.7h1.6v-3.3l2.2-1.4v4.6h2.2v1.7h-2.2v7.7c0 .7 0 1.1.1 1.2.1.2.2.3.4.5.2.1.5.1.8.1.4 0 .7 0 1.1-.1zm18.8 2v-1.9c-1 1.5-2.4 2.2-4.2 2.2-.8 0-1.5-.1-2.2-.5-.7-.3-1.2-.7-1.5-1.1-.3-.5-.6-1-.7-1.7-.1-.5-.1-1.1-.1-2.1v-8.1h2.2v7.3c0 1.2 0 2 .2 2.4.1.6.5 1.1.9 1.4.5.4 1 .5 1.7.5s1.3-.2 1.9-.5c.6-.4 1-.8 1.3-1.4.3-.6.4-1.5.4-2.6v-7h2.2v13.1h-2.1zm12.4 0v-13.1h2v2c.5-1 1-1.6 1.4-1.9.5-.3.9-.5 1.4-.5.8 0 1.5.3 2.3.7l-.8 2.1c-.6-.3-1.1-.5-1.6-.5s-.9.2-1.3.5-.7.7-.8 1.2c-.3.8-.4 1.7-.4 2.6v6.9h-2.2z"/>
  </symbol>

  <symbol id="terroir" viewBox="0 0 512 512">
    <path d="M6 217.4v9.1h23.9v68.2h9.4v-68.2h23.5v-9.1h-56.8zm399.5 0h9.7v77.3h-9.7v-77.3zm-318.4 0v77.3h45.6v-8.3h-35.9v-26.9h33.3v-8.9h-33.3v-24.4h35.9v-8.8h-45.6zm271.4 77.2h-14.3c-11.5 0-20.9-9.3-20.9-20.9v-35.5c0-11.6 9.4-20.9 20.9-20.9h14.3c11.5 0 21 9.3 21 20.9v35.5c0 11.6-9.4 20.9-21 20.9zm11.3-21.7v-33.8c0-7.8-6.3-14-14-14h-8.8c-7.8 0-14 6.3-14 14v33.8c0 7.8 6.3 14 14 14h8.8c7.7 0 14-6.3 14-14zm-168-7.1l20.1 28.9h-11.1l-19.6-28.1h-5.6v-7.9h10.1c4.9 0 8.9-4 8.9-8.9v-14.5c0-5-4-9-8.9-9h-23.7v68.4h-10.1v-77.3h34.9c9.4 0 17.1 7.6 17.1 17.1v14.9c0 7.7-5.1 14.2-12.1 16.4zm83.2 0l20 28.9h-11l-19.6-28.1h-5.6v-7.9h10.1c5 0 9-4 9-8.9v-14.5c0-5-4-9-9-9h-23.6v68.4h-10.1v-77.3h34.8c9.5 0 17.1 7.6 17.1 17.1v14.9c.1 7.7-5.1 14.2-12.1 16.4zm201 0l20 28.9h-11l-19.6-28.1h-5.6v-7.9h10.1c5 0 9-4 9-8.9v-14.5c0-5-4-9-9-9h-23.6v68.4h-10.1v-77.3h35c9.5 0 17.1 7.6 17.1 17.1v14.9c-.2 7.7-5.3 14.2-12.3 16.4z"/>
  </symbol>

  <symbol id="olawolczyk" viewBox="0 0 512 512">
    <path d="M53.2 214.5c6.6 0 12 2.4 16.3 7.1 3.9 4.3 5.9 9.4 5.9 15.4s-2.1 11.2-6.2 15.6c-4.1 4.5-9.5 6.7-16 6.7s-11.9-2.2-16-6.7-6.2-9.6-6.2-15.6c0-5.9 2-11 5.9-15.3 4.3-4.8 9.8-7.2 16.3-7.2zm0 5.3c-4.5 0-8.5 1.7-11.7 5-3.3 3.4-4.9 7.4-4.9 12.2 0 3.1.8 5.9 2.3 8.6 1.5 2.7 3.5 4.7 6.1 6.2 2.5 1.4 5.3 2.2 8.4 2.2 3.1 0 5.9-.7 8.4-2.2 2.5-1.4 4.5-3.5 6.1-6.2 1.5-2.7 2.3-5.5 2.3-8.6 0-4.8-1.7-8.9-4.9-12.2-3.6-3.3-7.5-5-12.1-5zm31.6-32.6h5.5v71h-5.5v-71zm58.1 28.3v42.6h-5.4v-7.3c-2.3 2.8-4.9 4.9-7.7 6.3-2.9 1.4-6 2.1-9.4 2.1-6 0-11.2-2.2-15.4-6.6-4.3-4.4-6.4-9.7-6.4-16 0-6.1 2.2-11.4 6.5-15.8s9.5-6.5 15.6-6.5c3.5 0 6.7.8 9.5 2.3 2.8 1.5 5.3 3.7 7.5 6.7v-7.8h5.2zm-21.9 4.2c-3.1 0-5.8.8-8.5 2.3-2.6 1.5-4.6 3.6-6.2 6.3s-2.3 5.6-2.3 8.6.8 5.8 2.3 8.6c1.5 2.7 3.6 4.9 6.2 6.4s5.4 2.3 8.4 2.3 5.8-.8 8.5-2.3c2.7-1.5 4.8-3.6 6.2-6.1 1.4-2.6 2.2-5.5 2.2-8.7 0-4.9-1.6-9-4.9-12.4-3.2-3.3-7.2-5-11.9-5zm27.1-4.2h11.4l9.4 24.3 10.1-24.3h7l9.9 24 9.4-24h11.5l-17 42.6h-7.4l-9.9-24.3-10.3 24.3h-7.3l-16.8-42.6zm95-2.9c4.2 0 8.1 1 11.8 3.1 3.7 2.1 6.6 4.9 8.6 8.6 2.1 3.6 3.1 7.5 3.1 11.7s-1 8.1-3.1 11.7c-2.1 3.6-4.9 6.5-8.5 8.5-3.6 2.1-7.6 3.1-11.9 3.1-6.4 0-11.8-2.3-16.3-6.8s-6.8-10-6.8-16.5c0-6.9 2.6-12.7 7.7-17.4 4.5-4 9.6-6 15.4-6zm.2 10.5c-3.5 0-6.3 1.2-8.6 3.6-2.3 2.4-3.5 5.5-3.5 9.2 0 3.9 1.1 7 3.4 9.4 2.3 2.4 5.2 3.6 8.6 3.6 3.5 0 6.4-1.2 8.7-3.6 2.3-2.4 3.5-5.5 3.5-9.4 0-3.8-1.1-6.9-3.4-9.3-2.3-2.4-5.1-3.5-8.7-3.5zm46.9-7.4l4.2-3.1 5.3 6.3-9.5 7v32.3h-10.7v-24.4l-4.3 3.2-4.8-6.6 9-6.7v-36.4h10.7l.1 28.4zm52.2 7l-8.1 5.1c-1.5-1.8-3-3.1-4.5-3.8-1.5-.7-3.2-1.1-5.2-1.1-3.6 0-6.6 1.3-8.8 3.7-2.3 2.5-3.4 5.7-3.4 9.5s1.1 6.8 3.2 9.3c2.2 2.4 5 3.6 8.5 3.6 4.4 0 7.7-1.7 10.2-5.1l7.7 6c-4.1 6.2-10 9.3-17.6 9.3-6.8 0-12.1-2.3-16-6.9-3.9-4.6-5.8-10-5.8-16.2 0-4.3.9-8.3 2.8-11.9 1.9-3.6 4.5-6.5 7.9-8.5 3.4-2.1 7.1-3.1 11.3-3.1 3.9 0 7.3.9 10.4 2.7 3.1 1.7 5.5 4.2 7.4 7.4zm3.4-7.2h37.8l-22.2 33.6h20.9v9h-40l22.3-33.6h-18.9l.1-9zm92.2-28.3h10.9v45.4l16.1-18h13.7l-18.7 20.9 21 22.7h-13.6l-18.5-20.1v20.1h-10.9v-71zm-394.4 101.5l11.8 28.4h-2.7l-4-9.3h-10.9l-3.9 9.4h-2.9l11.9-28.4.7-.1zm-.4 6l-4.3 10.3h8.6l-4.3-10.3zm15.3-6h4.8c2.7 0 4.5.1 5.4.4 1.4.4 2.6 1.2 3.5 2.5.9 1.3 1.3 2.8 1.3 4.7 0 1.5-.3 2.9-.9 4.1-.6 1.2-1.5 2.1-2.7 2.7s-2.7.9-4.8.9l8.7 13.2h-3l-8.7-13.2h-1.3v13.2h-2.4v-28.5h.1zm2.4 2.8v9.7h4.1c1.6 0 2.8-.2 3.6-.5.8-.4 1.4-.9 1.8-1.7.5-.8.6-1.7.6-2.7 0-.9-.2-1.8-.7-2.6-.4-.8-1-1.4-1.7-1.7-.7-.3-1.9-.5-3.6-.5h-4.1zm41.7 2.5l-2.1 1.7c-1.2-1.6-2.5-2.8-4.1-3.6-1.6-.8-3.4-1.3-5.3-1.3-2.1 0-4.1.5-5.9 1.6-1.8 1.1-3.2 2.6-4.2 4.4s-1.5 3.9-1.5 6.2c0 3.5 1.1 6.3 3.3 8.7 2.2 2.3 5 3.5 8.4 3.5 3.7 0 6.8-1.6 9.3-4.7l2.1 1.7c-1.3 1.8-3 3.2-4.9 4.2-2 1-4.2 1.5-6.6 1.5-4.6 0-8.3-1.7-11-5-2.3-2.8-3.4-6.2-3.4-10.1 0-4.2 1.4-7.6 4.1-10.5 2.7-2.8 6.1-4.3 10.2-4.3 2.5 0 4.7.5 6.7 1.6s3.6 2.5 4.9 4.4zm2.7-5.3h2.8v11.9h14.3v-11.9h2.8v28.4h-2.8v-13.7h-14.3v13.7h-2.8v-28.4zm28.9 0h2.8v28.4h-2.8v-28.4zm8.4 2.8v-2.8h15.4v2.8h-6.3v25.6h-2.9v-25.6h-6.2zm22.5-2.8h13.9v2.8h-11.4v8.9h11.3v2.8h-11.3v11.2h11.3v2.8h-13.8v-28.5zm19.9 0h3v10.7l11.8-10.7h4l-14.1 12.8 15.3 15.7h-4l-13-13.3v13.2h-3v-28.4zm21.6 2.8v-2.8h15.4v2.8h-6.3v25.6h-2.9v-25.6h-6.2zm31-2.8h2.8l5.5 20.5 7.8-20.5h.6l7.7 20.5 5.7-20.5h2.8l-7.8 28.4h-.5l-8.1-21.5-8.2 21.5h-.5l-7.8-28.4zm37.7 28.5v-28.4h.6l18.7 21.8v-21.8h2.8v28.4h-.6l-18.6-21.6v21.6h-2.9zm28.8-28.5h16.1v2.8h-13.3v8.9h13.2v2.8h-13.2v11.2h13.2v2.8h-16v-28.5zm12.2 28.5h2.1c-1.5 1.4-2.3 2.6-2.3 3.7 0 .6.2 1.1.7 1.5.5.4 1.2.6 2.1.6.4 0 .8 0 1.3-.1l-.2 1.7c-.5.1-1.1.2-1.6.2-1.4 0-2.5-.4-3.2-1-.8-.7-1.1-1.5-1.1-2.5-.1-1.7.6-3.1 2.2-4.1zm6.8-25.7v-2.8h15.4v2.8h-6.3v25.6h-2.9v-25.6h-6.2zm22.4-2.8h4.9c2.7 0 4.5.1 5.5.4 1.4.4 2.7 1.2 3.6 2.5.9 1.3 1.4 2.8 1.4 4.7 0 1.5-.3 2.9-.9 4.1-.6 1.2-1.5 2.1-2.7 2.7s-2.8.9-4.8.9l8.8 13.2h-3.1l-8.8-13.2h-1.4v13.2h-2.4l-.1-28.5zm2.5 2.8v9.7h4.2c1.6 0 2.8-.2 3.6-.5.8-.4 1.4-.9 1.8-1.7.4-.8.7-1.7.7-2.7 0-.9-.2-1.8-.7-2.6-.5-.8-1-1.4-1.8-1.7-.7-.3-1.9-.5-3.6-.5h-4.2zm18.4-.1v-2.7h17.2l-13.6 25.6h12.9v2.8h-18l13.8-25.7h-12.3zm37.3-13.8h-372.7v-2.2h362.5l9.8-20.4-16.6-39.5h11.2l11.3 26.8 12.5-26.8h11.2l-29.2 62.1z"/>
  </symbol>

  <symbol id="real2b" viewBox="0 0 512 512">
    <path d="M111.5 368.3h3c.8 0 1.5.1 2 .2.6.2 1.1.4 1.5.8 1.2 1 1.8 2.6 1.8 4.7 0 .7-.1 1.3-.2 1.9-.1.6-.3 1.1-.5 1.5-.3.4-.6.9-1 1.2-.3.3-.6.5-1 .7-.4.2-.8.3-1.2.4-.4.1-.9.1-1.4.1h-3c-.4 0-.7-.1-1-.2-.2-.1-.4-.3-.4-.5-.1-.2-.1-.5-.1-.9v-8.4c0-.5.1-.9.4-1.1.3-.3.6-.4 1.1-.4zm.9 1.9v7.8h2.7c.2 0 .4-.1.7-.2.2-.1.4-.2.6-.4.8-.7 1.2-1.8 1.2-3.4 0-1.1-.2-2-.5-2.6-.4-.6-.8-.9-1.3-1.1-.5-.2-1.1-.2-1.8-.2l-1.6.1zm35.4-.1h-5.2v2.8h4.8c.4 0 .6.1.8.2.2.2.3.4.3.6 0 .3-.1.5-.3.6-.2.2-.4.3-.8.3h-4.8v3.3h5.4c.4 0 .6.1.8.3s.3.4.3.7c0 .3-.1.5-.3.7-.2.2-.4.3-.8.3h-6.3c-.5 0-.9-.1-1.1-.4-.2-.2-.3-.6-.3-1.1v-8.6c0-.3.1-.6.2-.8.1-.2.3-.4.5-.4.2-.1.5-.2.8-.2h6.1c.4 0 .6.1.8.3.2.2.3.4.3.6 0 .3-.1.5-.3.6s-.5.2-.9.2zm22.5-.4l2.6 7.7 2.6-7.8c.1-.4.2-.7.3-.9.1-.2.2-.3.4-.4.2-.1.4-.2.6-.2.2 0 .4.1.5.2.2.1.3.2.4.4.1.2.2.3.2.5v.4l-.1.4c-.1.1-.1.3-.1.4l-2.8 7.5c-.1.3-.2.6-.3.8s-.2.5-.4.7c-.1.2-.3.4-.5.5-.2.1-.5.2-.8.2-.3 0-.6-.1-.8-.2-.2-.1-.4-.3-.5-.5-.1-.2-.3-.4-.4-.7l-.3-.8-2.8-7.5c0-.1-.1-.3-.2-.4-.1-.1-.1-.3-.1-.4 0-.2-.1-.3-.1-.4 0-.3.1-.5.3-.7s.5-.3.8-.3c.4 0 .7.1.8.4.4.1.6.5.7 1.1zm34.7.4h-5.2v2.8h4.8c.4 0 .6.1.8.2.2.2.3.4.3.6 0 .3-.1.5-.3.6-.2.2-.4.3-.8.3h-4.8v3.3h5.4c.4 0 .6.1.8.3s.3.4.3.7c0 .3-.1.5-.3.7-.2.2-.4.3-.8.3h-6.3c-.5 0-.9-.1-1.1-.4-.2-.2-.3-.6-.3-1.1v-8.6c0-.3.1-.6.2-.8.1-.2.3-.4.5-.4.2-.1.5-.2.8-.2h6.1c.4 0 .6.1.8.3.2.2.3.4.3.6 0 .3-.1.5-.3.6-.2.1-.5.2-.9.2zm23.2-.5v8.4h4.7c.4 0 .7.1.9.3.2.2.3.4.3.7 0 .3-.1.5-.3.7-.2.2-.5.3-.9.3h-5.6c-.5 0-.9-.1-1.1-.4-.2-.2-.3-.6-.3-1.1v-8.9c0-.5.1-.8.3-1.1.2-.2.5-.4.8-.4s.6.1.9.4c.2.2.3.6.3 1.1zm30-1.4c1.2 0 2.2.3 3.1.7.9.5 1.5 1.2 2 2 .4.9.7 2 .7 3.1 0 .9-.1 1.7-.4 2.4-.3.7-.6 1.3-1.1 1.9-.5.5-1.1.9-1.8 1.2-.7.3-1.5.4-2.4.4s-1.7-.2-2.4-.4c-.7-.3-1.3-.7-1.8-1.2s-.8-1.2-1.1-1.9c-.3-.7-.4-1.5-.4-2.4 0-.9.1-1.7.4-2.4s.6-1.4 1.1-1.9c.5-.5 1.1-.9 1.8-1.2.6-.2 1.4-.3 2.3-.3zm3.3 5.8c0-.8-.1-1.6-.4-2.2-.3-.6-.7-1.1-1.2-1.4-.5-.3-1.1-.5-1.7-.5-.5 0-.9.1-1.3.3-.4.2-.7.4-1 .8-.3.3-.5.8-.7 1.3-.2.5-.3 1.1-.3 1.8 0 .6.1 1.2.3 1.8.2.5.4 1 .7 1.3.3.4.6.6 1 .8.4.2.8.3 1.3.3.6 0 1.2-.2 1.6-.4.5-.3.9-.8 1.2-1.4.3-.8.5-1.5.5-2.5zm27 1.4h-2.1v3.3c0 .5-.1.8-.3 1.1-.2.3-.5.4-.8.4-.4 0-.6-.1-.8-.4-.2-.2-.3-.6-.3-1.1v-8.9c0-.5.1-.9.4-1.1.2-.2.6-.3 1.1-.3h3c.9 0 1.6.1 2 .2.5.1.9.4 1.2.6.4.3.6.7.8 1.1.2.4.3.9.3 1.5 0 1.2-.4 2-1.1 2.7-.8.6-1.9.9-3.4.9zm-.5-5.3h-1.6v3.5h1.6c.5 0 1-.1 1.4-.2.4-.1.6-.3.8-.6.2-.3.3-.6.3-1 0-.5-.2-.9-.4-1.2-.4-.3-1.1-.5-2.1-.5zm28 8l-1.9-7.3v7.9c0 .4-.1.8-.3 1-.2.2-.4.3-.8.3-.3 0-.6-.1-.8-.3s-.3-.5-.3-1v-9.1c0-.5.1-.8.4-1 .3-.2.6-.3 1.1-.3h.7c.4 0 .7 0 1 .1.2.1.4.2.4.4.1.2.2.5.3 1l1.7 6.3 1.7-6.3c.1-.4.2-.8.3-1 .1-.2.2-.4.4-.4.2-.1.5-.1 1-.1h.7c.4 0 .8.1 1.1.3.3.2.4.5.4 1v9.1c0 .4-.1.8-.3 1-.2.2-.4.3-.8.3-.3 0-.6-.1-.8-.3s-.3-.5-.3-1v-7.9l-1.9 7.3c-.1.5-.2.8-.3 1.1-.1.2-.2.4-.4.6s-.5.3-.8.3c-.3 0-.5-.1-.7-.2-.2-.1-.3-.3-.4-.4l-.3-.6c0-.3 0-.6-.1-.8zm35.1-8h-5.2v2.8h4.8c.4 0 .6.1.8.2.2.2.3.4.3.6 0 .3-.1.5-.3.6-.2.2-.4.3-.8.3h-4.8v3.3h5.4c.4 0 .6.1.8.3s.3.4.3.7c0 .3-.1.5-.3.7-.2.2-.4.3-.8.3h-6.3c-.5 0-.9-.1-1.1-.4-.2-.2-.3-.6-.3-1.1v-8.6c0-.3.1-.6.2-.8.1-.2.3-.4.5-.4.2-.1.5-.2.8-.2h6.1c.4 0 .6.1.8.3.2.2.3.4.3.6 0 .3-.1.5-.3.6-.3.1-.6.2-.9.2zm23.8-.6l4.5 6.8v-6.8c0-.4.1-.8.3-1 .2-.2.4-.3.8-.3.3 0 .6.1.8.3.2.2.3.5.3 1v9.1c0 1-.4 1.5-1.2 1.5-.2 0-.4 0-.6-.1l-.5-.3c-.2-.1-.3-.3-.4-.4-.1-.2-.3-.4-.4-.5l-4.3-6.7v6.8c0 .4-.1.8-.3 1-.2.2-.5.4-.8.4s-.6-.1-.8-.4c-.2-.2-.3-.5-.3-1v-8.9c0-.4 0-.7.1-.9s.3-.4.5-.6c.2-.2.5-.2.7-.2.2 0 .4 0 .5.1.2.1.3.2.4.3.1.1.2.3.4.4.1 0 .2.2.3.4zm34.6.8h-2.5v8.4c0 .5-.1.8-.3 1.1s-.5.4-.8.4-.6-.1-.8-.4c-.2-.2-.3-.6-.3-1.1v-8.4h-2.5c-.4 0-.7-.1-.9-.3-.2-.2-.3-.4-.3-.7 0-.3.1-.5.3-.7.2-.2.5-.3.9-.3h7.4c.4 0 .7.1.9.3.2.2.3.4.3.7 0 .3-.1.5-.3.7-.5.2-.7.3-1.1.3zm-280.5-55c-1.4.7-3.6 2.7-4.4 3.8-1 1.5-1.7 2.7-2.2 4.4-.6 1.7-.7 2-1 4.4s-.3 5.1-.3 8.4v9.2c0 2.2-.5 3.9-1.6 5s-2.4 1.7-4 1.7-2.9-.6-3.9-1.7-1.5-2.8-1.5-5v-34.5c0-5 1.8-7.4 5.4-7.4 1.8 0 3 .7 4 1.7 1.1 1.3 1.3 1.9 1.3 8.1 1.3-2.3 2.2-3.3 3.3-4.7 1.7-2.2 4.6-5.1 8.9-5.1 3.6 0 4.9 1.2 5.1 3.7.3 3.2-.6 5.3-2.9 6-1.9.6-3.8.9-6.2 2zm48.6 32c-1.8 1.2-2.7 1.8-5.3 2.7-2.5.9-5.3 1.2-8.8 1.2-7.5 0-11.9-1.9-16.5-6.2-4.4-4.3-7.5-10.1-7.5-17.8 0-3.6.8-6.8 1.8-9.9 1-3.1 2.7-5.5 4.6-7.7 2-2.2 4.4-4.1 7-5.3 2.8-1.2 6-1.9 9.5-1.9 4.6 0 8.5 1 11.8 3s5.3 4.9 7.4 7.8c2.2 3.1 3 7.2 3 10.5 0 3.1-.9 5.4-2.7 6.2-1.5.6-4.4.4-7.5.4h-24.2c.1 4 1.6 6.1 3.2 7.8 1.9 2 5.3 4.5 9.5 4.5 2.3 0 5-.2 6.8-.8 2.5-.9 5.5-4.3 8.2-4.3 2.8 0 4.1 3.1 4 4.4-.2 3.2-2.3 4.1-4.3 5.4zm-27.3-23.9h24.4c-.3-4.2-1.7-6.5-3.8-9-1.8-2.1-5.4-3.3-8.5-3.3-2.9 0-6.1 1.5-8.2 3.4-2.5 2.4-3.5 4.8-3.9 8.9m92.3 22v-53.1c0-2.2.5-3.9 1.5-5s2.3-1.7 4-1.7c1.7 0 3 .5 4 1.7 1 1.1 1.5 2.8 1.5 5v53.1c0 2.2-.5 3.9-1.6 5-1 1.1-2.4 1.7-4 1.7s-2.9-.6-3.9-1.7c-1-1.2-1.5-2.8-1.5-5zm136.4 5.9h-27.5c-4 0-6.8-.9-8.5-2.7-1.7-1.8-2.6-4.6-2.6-7.6v-68.4c0-4.8.9-7.6 2.6-9.4 1.7-1.7 4.5-2.6 5.6-2.6h29.1c7.1 0 10.8.3 14 .8 3.1.5 6 1.6 8.5 3.1 2.1 1.3 4 2.9 5.6 4.8 1.6 2 3.2 4.5 4 6.9.9 2.3 1 5.1 1 7.7 0 9-4.4 16-13.4 20.2 11.8 3.8 18.5 10.7 18.5 21.6 0 5-1.4 10-4 14s-6.1 6.6-10.5 8.5c-2.8 1.2-6.4 1.9-10 2.3-3.5.5-7.6.8-12.4.8zm-23.1-76.3v23.2h23.1c4.5 0 6.6-.3 9.1-1.2 2.5-.9 4.4-2.5 5.7-4.9 1-1.7 1.5-3.6 1.5-5.8 0-4.5-1.9-7-4.8-9.1-3.9-2.8-6.7-2.4-13.3-2.4l-21.3.2zm25.4 37.1h-25.3v25.4h26c12.3 0 18.5-4.4 18.5-13.3 0-4.5-1.6-7-4.8-9.1-3.4-1.9-8.1-3-14.4-3zm-154.2 38.5c-1.6 0-2.6-.3-3.6-1.2-1.6-1.6-1.4-2.5-1.8-4.9-1.6 1.6-6.8 6.4-14.6 6.8-2.2.1-6.9.4-11.2-2.9-5.6-4.2-5.9-10.8-5.9-11.3 0-.6-.1-6.5 4.3-10.8 4.1-4.1 9.6-4.3 14.9-4.4 5.5-.2 10 .9 13 1.9.1-1 .3-5.8-2.9-8.9-3.2-3.1-7.9-2.8-9.5-2.8-4.8.3-6.9.9-9.8 1.9-2.4.8-5.1.1-5.8-2.3-.7-2.4.4-4.5 1.9-5.3 3.8-2.2 9-3.3 15.6-3.2 6.9.1 12.2 1.8 16 5.7 2.2 2.2 4.4 5.1 4.4 10.5v27.3c.1 2.6-2.3 3.8-5 3.9zm-4.6-20.4c-2.2-1.1-6.1-2.1-11-2-2.5 0-6.4.1-9.1 3-.5.6-2.2 2.4-2.2 5.1 0 3.3 2.6 5.4 3 5.8 2.6 2.1 5.6 2 7.5 1.9 1.3-.1 4.9-.3 8-3 2.6-2.3 3.4-4.9 3.6-6.1.1-1.6.2-3.2.2-4.7zm95.6-19c-10.1 8.6-20.9 17.9-31 26.6h37.6c3.5 0 6.9 3.2 6.9 6.7 0 3.4-3.1 6.7-6.4 6.7-20.2 0-41.6.1-54.2.1-1.7 0-4.4-1.8-5.6-4.4-1.7-3.4-.8-7.1 1.4-9.3 9.5-7.9 32.1-27.8 40.8-35.5 8.6-7.8 8.2-20.3.8-26.1-5.2-4.1-13-3.7-19.6-.1-4.4 2.4-6.1 6.2-9.5 8.8-2.3 1.8-5 2-8.4-.5-2.8-2.1-3.4-6.1-1.3-9.2 3-4.6 6.9-7.6 10.8-10.2 2.8-1.9 9.1-5.6 18.8-5.5 4.9 0 13.3 0 20.7 6.2 8 6.6 9.4 15.9 9.8 18.7.2 1.4.8 8.2-2.8 15.8-2.6 5.8-6.6 9.4-8.8 11.2zm-178.9-42.4l-40.8-40.8c-3.2-3.2-3.2-8.4 0-11.6l40.8-40.8c3.2-3.2 8.4-3.2 11.6 0l40.8 40.8c3.2 3.2 3.2 8.4 0 11.6l-40.8 40.8c-3.3 3.2-8.4 3.2-11.6 0zm63.3 16.6l-23.2-23.2c-1.6-1.6-1.6-4.2 0-5.8l23.2-23.2c1.6-1.6 4.2-1.6 5.8 0l23.2 23.2c1.6 1.6 1.6 4.2 0 5.8l-23.2 23.2c-1.6 1.6-4.2 1.6-5.8 0zm-2.9-75.4l-33.1-33.1c-2.7-2.7-2.7-7.1 0-9.9l33.1-33.1c2.7-2.7 7.1-2.7 9.9 0l33.1 33.1c2.7 2.7 2.7 7.1 0 9.9l-33.1 33.1c-2.8 2.7-7.2 2.7-9.9 0zm29.9 29.9l-14.8-14.8c-1.2-1.2-1.2-3 0-4.1l14.8-14.8c1.2-1.2 3-1.2 4.1 0l14.8 14.8c1.2 1.2 1.2 3 0 4.1l-14.8 14.8c-1.1 1.1-3 1.1-4.1 0z"/>
  </symbol>

  <symbol id="atelier3" viewBox="0 0 512 512">
    <path d="M242.4 190.8c5.5 0 10.4 3 12.6 7.2l10.3 17.7h-38.9l16-24.9zm-4.2-21.7l-54.7 84.8h17.8l17.8-27.6h52.3l11.8 20.6c2.2 3.8 6.6 7 11.2 7h39.8l-43.8-76.5c-2.7-4.4-7.8-8.3-13.4-8.3h-38.8zm104 97.3c-2.7-4.4-7.8-8.3-13.4-8.3h-38.7l-32.9 51-24.4-42.6c-2.7-4.4-7.8-8.3-13.4-8.3h-38.7l-54.7 84.7h17.8l17.8-27.6h52.3l11.8 20.6c2.2 3.8 6.6 6.9 11.2 6.9h39.8l-11-19.2 5.4-8.3h52.3l11.8 20.6c2.2 3.8 6.6 6.9 11.2 6.9h39.6l-43.8-76.4zm-173.4 38.2l16-24.9c5.5 0 10.4 3 12.6 7.2l10.3 17.7h-38.9zm109.4 0l16-24.9c5.5 0 10.4 3 12.6 7.2l10.3 17.7h-38.9z"/>
  </symbol>

  <symbol id="svet-vmes" viewBox="0 0 512 512">
    <path d="M110.2 381.6c.6.8.9 1.6.9 2.5 0 .6-.1 1.2-.3 1.7-.2.5-.5 1-.9 1.4-.4.4-.8.7-1.3.9-.5.2-1 .3-1.6.3-1.4 0-2.5-.5-3.4-1.6-.3-.4-.7-.7-1.3-1-.6-.3-1.2-.5-1.9-.7-.7-.2-1.4-.3-2.1-.3-.7-.1-1.3-.1-1.9-.1-1.2 0-2.1.2-3 .4-.8.2-1.6.6-2.1 1s-1 .9-1.3 1.4c-.3.5-.4 1-.4 1.5 0 .6.2 1.1.5 1.6s.8.9 1.4 1.3c.6.3 1.4.7 2.2.9.8.2 1.8.3 2.8.4 2 .1 3.8.5 5.6 1.1s3.3 1.4 4.6 2.4c1.3 1 2.4 2.2 3.1 3.7s1.2 3 1.2 4.8c0 2-.4 3.7-1.2 5.4-.8 1.6-1.9 3-3.3 4.2-1.4 1.2-3 2.1-4.8 2.8s-3.8 1-5.8 1c-1.8 0-3.6-.2-5.4-.8-1.8-.5-3.3-1.2-4.7-2.1-1.4-.9-2.5-1.8-3.3-2.9-.9-1.1-1.3-2.2-1.3-3.3 0-.6.1-1 .3-1.6.2-.5.5-.9.9-1.3.3-.4.8-.7 1.3-.9.5-.2 1.1-.3 1.7-.3.7 0 1.4.1 2 .5.6.3 1.2.8 1.6 1.4.1.2.3.4.6.7.3.3.7.6 1.3 1 .6.3 1.3.7 2.1.9.8.2 1.7.4 2.8.4 1 0 1.9-.1 2.8-.4.9-.3 1.6-.6 2.2-1 .6-.5 1.1-.9 1.5-1.5s.5-1.2.5-1.8c0-1-.6-1.8-1.7-2.5s-2.8-1.1-4.9-1.3c-2.2-.1-4.2-.5-6-1.2-1.8-.7-3.4-1.5-4.7-2.6-1.3-1.1-2.3-2.3-3-3.8-.8-1.5-1.2-3.1-1.2-4.9 0-1.6.3-3.3 1-4.8s1.7-2.9 3.1-4.1c1.4-1.2 3-2.2 5-2.9 1.9-.7 4.2-1.1 6.6-1.1.9 0 1.9.1 3.1.2s2.3.4 3.6.8c1.2.4 2.4.9 3.6 1.6.9.6 1.9 1.5 2.9 2.6m7.3.4c-.2-.6-.3-1.1-.3-1.6 0-.6.1-1.2.4-1.7.2-.5.6-.9 1-1.3s.8-.6 1.4-.8c.5-.2 1-.3 1.5-.3.9 0 1.8.2 2.4.8.7.5 1.2 1.2 1.5 1.9l8.7 23.3 8.7-23.3c.3-.7.8-1.4 1.5-1.9.7-.6 1.5-.8 2.4-.8.6 0 1.1.1 1.6.3.5.2.9.5 1.4.9.4.4.7.8.9 1.4.2.5.3 1.1.3 1.7l-.1.7c0 .2-.1.5-.2.7l-12.6 33.8c-.2.5-.4.9-.7 1.3-.3.3-.7.6-1 .8-.3.2-.7.4-1.1.5-.4.1-.7.1-1 .1-1 0-1.8-.2-2.5-.8-.7-.5-1.2-1.2-1.4-2l-6.4-16.9-6.4-16.8zm49 5.3c-.6.9-1.1 1.8-1.4 2.8-.3 1-.5 2-.7 3.1h16.1c-.2-1.2-.5-2.3-.8-3.4s-.8-2-1.4-2.7c-.6-.8-1.4-1.4-2.3-1.8-.9-.4-2.1-.6-3.5-.6s-2.5.2-3.5.7c-1 .5-1.8 1.1-2.5 1.9m11.9 20.3c.4-.5.9-1 1.4-1.3.6-.3 1.2-.5 2-.5.5 0 1 .1 1.5.3.5.2.9.5 1.3.9s.7.8.9 1.3c.2.5.3 1 .3 1.6 0 .6-.1 1.1-.3 1.6-.2.5-.5 1-.8 1.4-.3.4-.7.8-1.2 1.2-.4.3-.8.7-1 .9-1 .8-1.9 1.4-2.8 1.8s-1.8.7-2.6 1c-.8.2-1.6.4-2.4.4-.8.1-1.5.1-2.2.1-2.6 0-5-.5-7.1-1.4-2.1-.9-3.8-2.3-5.3-4.1-1.4-1.8-2.5-4-3.3-6.6-.8-2.6-1.2-5.6-1.2-9 0-3.5.4-6.6 1.2-9.2.8-2.6 1.9-4.8 3.4-6.6 1.5-1.7 3.2-3.1 5.3-4 2.1-.9 4.4-1.3 6.9-1.3 2.3 0 4.5.4 6.5 1.2 2 .8 3.8 2.1 5.3 3.8s2.7 3.9 3.6 6.6c.9 2.7 1.3 5.8 1.3 9.5 0 .6-.1 1.2-.3 1.6s-.5.9-.9 1.3-.8.7-1.3.9c-.5.2-1 .3-1.6.3h-20.6c.2 1.3.5 2.5.8 3.6s.9 2 1.5 2.7c.6.7 1.4 1.3 2.4 1.6s2 .6 3.3.6c.9 0 1.7-.1 2.3-.2.7-.2 1.2-.3 1.6-.6.5-.2.8-.5 1.2-.8.4 0 .7-.3.9-.6m19.9-44c0-.6.1-1.2.3-1.6s.5-.9.9-1.3.8-.7 1.3-.9c.5-.2 1.1-.3 1.7-.3.6 0 1.2.1 1.7.3.5.2 1 .5 1.3.9.4.4.7.8.9 1.3.2.5.3 1 .3 1.6v12.7h4.2c.6 0 1.2.1 1.7.3.5.2.9.6 1.3.9.3.4.7.8.9 1.4.2.5.3 1 .3 1.6 0 .6-.1 1.2-.3 1.7s-.5.9-.9 1.3-.8.7-1.3.9c-.5.2-1 .3-1.6.3h-4.2v22.4c0 .2.1.5.1.6l.2.3.3.3.5.8c.1.2.2.3.4.4s.3.2.6.3c.2.1.6.2 1.2.4h.9c.5 0 1 .1 1.6.3.5.2.9.5 1.3.9s.7.8.9 1.3c.2.5.3 1.1.3 1.7s-.1 1.2-.3 1.7c-.2.5-.5.9-.9 1.3-.4.3-.8.7-1.3.9-.5.2-1 .3-1.6.3-3 0-5.7-.8-7.9-2.4s-3.8-4.2-4.7-7.7c-.2-.8-.2-1.6-.2-2.5v-21.1c-1.2 0-2.2-.4-3-1.2-.8-.8-1.2-1.8-1.2-3 0-.6.1-1.1.3-1.6.2-.5.5-1 .9-1.3.4-.4.8-.7 1.3-.9.5-.2 1-.3 1.6-.3l.2-13zm57.1 18.4c-.2-.6-.3-1.1-.3-1.6 0-.6.1-1.2.4-1.7.2-.5.6-.9 1-1.3.4-.3.8-.6 1.4-.8.5-.2 1-.3 1.5-.3.9 0 1.8.2 2.5.8.7.5 1.2 1.2 1.5 1.9l8.7 23.3 8.7-23.3c.3-.7.8-1.4 1.5-1.9s1.5-.8 2.4-.8c.6 0 1.1.1 1.6.3.5.2.9.5 1.4.9s.7.8.9 1.4c.2.5.3 1.1.3 1.7l-.1.7c0 .2-.1.5-.2.7l-12.6 33.8c-.2.5-.4.9-.7 1.3-.3.3-.7.6-1 .8-.3.2-.7.4-1.1.5-.4.1-.7.1-1 .1-1 0-1.8-.2-2.5-.8-.7-.5-1.2-1.2-1.4-2l-6.4-16.9-6.5-16.8zm47.9-3.2c.8-.5 1.6-.8 2.3-1.2s1.4-.6 2.1-.8l2.1-.5c.7-.1 1.4-.1 2.2-.1 2.2 0 4.4.4 6.4 1.3 2 .8 3.9 2.1 5.6 3.7l.3.4.4.4c1.6-1.7 3.5-3.1 5.6-4.1 2.1-1.1 4.4-1.6 7-1.6 1.4 0 2.7.2 4.1.6 1.4.3 2.7.9 3.9 1.6 1.3.7 2.4 1.5 3.5 2.5s2 2.1 2.8 3.4c.8 1.3 1.4 2.6 1.9 4.1.5 1.5.7 3.1.7 4.8v21.1c0 .6-.1 1.1-.3 1.6-.2.5-.5 1-.9 1.3-.4.4-.8.7-1.3.9-.5.2-1 .3-1.6.3s-1.2-.1-1.6-.3c-.5-.2-.9-.5-1.3-.9-.4-.3-.7-.8-.9-1.3-.2-.5-.3-1.1-.3-1.6v-21.1c0-.9-.2-1.9-.6-2.9-.4-1-.9-1.9-1.6-2.8-.7-.8-1.6-1.5-2.7-2-1-.5-2.2-.8-3.6-.8s-2.7.3-3.8.8c-1.1.6-2 1.3-2.7 2.1-.7.8-1.2 1.8-1.5 2.7-.3 1-.5 1.9-.5 2.8v21.1c0 .6-.1 1.2-.3 1.7-.2.5-.6 1-.9 1.3s-.8.7-1.3.8c-.5.2-1 .3-1.5.3-.6 0-1.2-.1-1.6-.3-.5-.2-.9-.5-1.3-.9s-.7-.8-.9-1.3c-.2-.5-.3-1-.3-1.6v-21.1c0-1.1-.2-2.1-.6-3.2s-1-2-1.7-2.7c-.7-.8-1.6-1.4-2.7-1.9-1-.5-2.2-.7-3.4-.7-1.4 0-2.6.2-3.6.8-1 .5-1.9 1.2-2.7 2s-1.3 1.7-1.6 2.8c-.4 1-.6 2-.6 2.9v21.1c0 .6-.1 1.1-.3 1.6-.2.5-.5 1-.9 1.3-.4.4-.8.7-1.3.9-.5.2-1 .3-1.6.3-.6 0-1.1-.1-1.6-.3-.5-.2-1-.5-1.3-.9-.4-.4-.7-.8-.9-1.3-.2-.5-.3-1-.3-1.6v-33.8c0-.6.1-1.1.3-1.6.2-.5.5-1 .9-1.3.4-.4.8-.7 1.3-.9.5-.2 1-.4 1.6-.4.8 0 1.6.2 2.3.7s.7 1 1.1 1.8m68.3 8.5c-.6.9-1.1 1.8-1.4 2.8-.3 1-.5 2-.7 3.1h16.1c-.2-1.2-.5-2.3-.8-3.4-.3-1-.8-2-1.4-2.7-.6-.8-1.4-1.4-2.3-1.8-.9-.4-2.1-.6-3.5-.6s-2.5.2-3.5.7c-1 .5-1.8 1.1-2.5 1.9m11.9 20.3c.4-.5.9-1 1.4-1.3.6-.3 1.2-.5 2-.5.5 0 1 .1 1.5.3.5.2.9.5 1.3.9s.7.8.9 1.3c.2.5.3 1 .3 1.6 0 .6-.1 1.1-.3 1.6-.2.5-.5 1-.8 1.4-.3.4-.7.8-1.2 1.2-.4.3-.8.7-1 .9-1 .8-1.9 1.4-2.8 1.8-.9.4-1.8.7-2.6 1-.8.2-1.6.4-2.4.4-.8.1-1.5.1-2.2.1-2.6 0-5-.5-7.1-1.4s-3.8-2.3-5.3-4.1c-1.4-1.8-2.5-4-3.3-6.6-.8-2.6-1.2-5.6-1.2-9 0-3.5.4-6.6 1.2-9.2.8-2.6 1.9-4.8 3.4-6.6 1.5-1.7 3.2-3.1 5.3-4 2.1-.9 4.4-1.3 6.9-1.3 2.3 0 4.5.4 6.6 1.2 2 .8 3.8 2.1 5.3 3.8s2.7 3.9 3.6 6.6c.9 2.7 1.3 5.8 1.3 9.5 0 .6-.1 1.2-.3 1.6-.2.5-.5.9-.9 1.3s-.8.7-1.3.9c-.5.2-1 .3-1.6.3h-20.6c.2 1.3.5 2.5.8 3.6.4 1 .9 2 1.5 2.7.6.7 1.4 1.3 2.3 1.6.9.4 2 .6 3.3.6.9 0 1.7-.1 2.3-.2.7-.2 1.2-.3 1.6-.6.5-.2.8-.5 1.2-.8.5 0 .7-.3.9-.6m46.6-26c.6.8.9 1.6.9 2.5 0 .6-.1 1.2-.3 1.7-.2.5-.5 1-.9 1.4-.4.4-.8.7-1.3.9-.5.2-1 .3-1.6.3-1.4 0-2.5-.5-3.4-1.6-.3-.4-.7-.7-1.3-1-.6-.3-1.2-.5-1.9-.7-.7-.2-1.4-.3-2.1-.3-.7-.1-1.3-.1-1.9-.1-1.2 0-2.1.2-3 .4-.9.2-1.6.6-2.1 1s-1 .9-1.3 1.4-.4 1-.4 1.5c0 .6.2 1.1.5 1.6s.8.9 1.4 1.3c.6.3 1.4.7 2.2.9.8.2 1.8.3 2.8.4 2 .1 3.8.5 5.6 1.1 1.7.6 3.3 1.4 4.6 2.4 1.3 1 2.3 2.2 3.1 3.7.8 1.4 1.2 3 1.2 4.8 0 2-.4 3.7-1.2 5.4-.8 1.6-1.9 3-3.3 4.2-1.4 1.2-3 2.1-4.9 2.8-1.8.7-3.8 1-5.8 1-1.8 0-3.6-.2-5.4-.8-1.7-.5-3.3-1.2-4.7-2.1-1.4-.9-2.5-1.8-3.3-2.9-.8-1.1-1.3-2.2-1.3-3.3 0-.6.1-1 .3-1.6.2-.5.5-.9.9-1.3.3-.4.8-.7 1.3-.9.5-.2 1.1-.3 1.7-.3.7 0 1.4.1 2 .5.6.3 1.2.8 1.6 1.4.1.2.3.4.6.7s.8.6 1.3 1c.6.3 1.3.7 2.1.9.8.2 1.7.4 2.8.4 1 0 1.9-.1 2.8-.4.8-.3 1.6-.6 2.2-1 .6-.5 1.1-.9 1.5-1.5s.5-1.2.5-1.8c0-1-.6-1.8-1.7-2.5-1.2-.7-2.8-1.1-4.9-1.3-2.2-.1-4.2-.5-6-1.2-1.8-.7-3.4-1.5-4.7-2.6-1.3-1.1-2.3-2.3-3-3.8-.7-1.4-1.1-3-1.1-4.8 0-1.6.3-3.3 1-4.8s1.7-2.9 3.1-4.1c1.4-1.2 3-2.2 4.9-2.9 1.9-.7 4.2-1.1 6.6-1.1.9 0 1.9.1 3.1.2s2.3.4 3.6.8c1.2.4 2.4.9 3.6 1.6 1 .5 2.1 1.4 3 2.5m-86.7-109.7c5.5 0 10.6 1.5 15 4.2 3-4.9 5.7-10.1 8-15.5-5.4 6.9-13.7 11.3-23 11.3m23-105.5c-2.3-5.4-5-10.5-8-15.5-4.4 2.7-9.5 4.2-15 4.2 9.3.1 17.6 4.5 23 11.3m-221.2 94.3c2.3 5.4 5 10.5 8 15.5 4.4-2.7 9.5-4.2 15-4.2-9.4-.1-17.7-4.5-23-11.3m23-105.5c-5.5 0-10.6-1.5-15-4.2-3 4.9-5.7 10.1-8 15.5 5.3-6.9 13.6-11.3 23-11.3m146 29.1c0-16.1 13.1-29.2 29.2-29.2-16.1 0-29.2-13.1-29.2-29.2 0 16.1-13.1 29.2-29.2 29.2 16.1.1 29.2 13.1 29.2 29.2m-105.5-81.4c-5.4 2.3-10.5 5-15.5 8 2.7 4.4 4.2 9.5 4.2 15 0-9.3 4.4-17.6 11.3-23m105.5 139.9c0 16.1-13.1 29.2-29.2 29.2 16.1 0 29.2 13.1 29.2 29.2 0-16.1 13.1-29.2 29.2-29.2-16.2-.1-29.2-13.1-29.2-29.2m0-116.8c0-5.5 1.5-10.6 4.2-15-4.9-3-10.1-5.7-15.5-8 6.9 5.3 11.3 13.6 11.3 23m-87.6 29.2c-16.1 0-29.2-13.1-29.2-29.2 0 16.1-13.1 29.2-29.2 29.2 16.1 0 29.2 13.1 29.2 29.2 0-16.2 13.1-29.2 29.2-29.2m29.2 145.9c0-16.1 13.1-29.2 29.2-29.2-16.1 0-29.2-13.1-29.2-29.2s13.1-29.2 29.2-29.2 29.2 13.1 29.2 29.2c0-16.1 13.1-29.2 29.2-29.2 15.9 0 28.8 12.7 29.2 28.6 2.2-9.2 3.4-18.7 3.4-28.6s-1.2-19.4-3.4-28.6c-.3 15.8-13.3 28.6-29.2 28.6-16.1 0-29.2-13.1-29.2-29.2 0 16.1-13.1 29.2-29.2 29.2s-29.2-13.1-29.2-29.2 13.1-29.2 29.2-29.2c-16.1 0-29.2-13.1-29.2-29.2 0-15.9 12.7-28.8 28.6-29.2-9.2-2.3-18.7-3.5-28.6-3.5-9.8 0-19.4 1.2-28.6 3.4 15.8.3 28.6 13.3 28.6 29.2 0 16.1-13.1 29.2-29.2 29.2 16.1 0 29.2 13.1 29.2 29.2s-13.1 29.2-29.2 29.2-29.2-13.1-29.2-29.2c0 16.1-13.1 29.2-29.2 29.2-15.9 0-28.8-12.7-29.2-28.6-2.2 9.2-3.4 18.7-3.4 28.6 0 9.8 1.2 19.4 3.4 28.6.3-15.8 13.3-28.6 29.2-28.6 16.1 0 29.2 13.1 29.2 29.2 0-16.1 13.1-29.2 29.2-29.2s29.2 13.1 29.2 29.2-13.1 29.2-29.2 29.2c16.1.1 29.2 13.2 29.2 29.3 0 15.9-12.7 28.8-28.6 29.2 9.2 2.2 18.7 3.5 28.6 3.5 9.8 0 19.4-1.2 28.6-3.5-15.9-.3-28.6-13.2-28.6-29.2m47.1 23.1c5.4-2.3 10.5-5 15.5-8-2.7-4.4-4.2-9.5-4.2-15 0 9.3-4.4 17.6-11.3 23m-105.5-23c0 5.5-1.5 10.6-4.2 15 4.9 3 10.1 5.7 15.5 8-6.9-5.4-11.3-13.7-11.3-23m0-58.4c0 16.1-13.1 29.2-29.2 29.2 16.1 0 29.2 13.1 29.2 29.2 0-16.1 13.1-29.2 29.2-29.2-16.1-.1-29.2-13.1-29.2-29.2"/>
  </symbol>
  
  <symbol id="pres" viewBox="0 0 512 512">
    <path d="M246.1 153.8l-82.8 55.2c-1.3.9-1.7 2.7-.7 4 .9 1.2 2.5 1.5 3.8.8l80.1-48.9c3.6-2.2 8.2-2.2 11.8.1 17.2 10.7 67.2 41.9 78.3 48.8 1.3.8 2.9.5 3.9-.6 1.1-1.4.8-3.4-.6-4.4l-81.1-54.9c-4-2.6-8.9-2.6-12.7-.1zm-64.2 78.5v36.9c0 1.4 1.1 2.5 2.5 2.5h141.2c1.8 0 2.9-2.1 1.8-3.5l-5.2-7.5c-.8-1.1-2.1-1.8-3.4-1.8h-120.8c-1.4 0-2.5-1.1-2.5-2.5v-32.7l53-33.6c2.3-1.5 5.3-1.5 7.7 0l78.4 49.7c3.6 2.3 8.3 1.2 10.5-2.5 2.1-3.5 1-8.1-2.4-10.3l-83.2-52.1c-4.3-2.7-9.8-2.7-14.1 0l-85 54c-3.3 2.1-4.3 6.6-2.2 9.9 2.1 3.3 6.6 4.3 9.9 2.2l13.8-8.7zm159.2 78.3-2.7-3.8l-4.9-6.9c-.4-.6-1.2-1-1.9-1h-61.6c-1.3 0-2.3 1-2.3 2.3v56.3c0 1.3 1 2.3 2.3 2.3h67c1.8 0 3-1.9 2.1-3.5l-3.6-6.3c-.4-.7-1.2-1.2-2.1-1.2h-42.6c-1.3 0-2.3-1-2.3-2.3v-33.7c0-1.3 1-2.3 2.3-2.3h45.7c1.9.1 3.1-2.1 1.9-3.7zm-41 21.6l4.2 6.4c.4.6 1.2 1 2 1h17.6c.8 0 1.4-.4 1.9-.9l4.8-6.4c1.2-1.5 0-3.7-1.9-3.7h-26.6c-1.9 0-3 2.1-2 3.6zm-221.4 31.6v-51c0-5.5 4.5-10 10-10h49.2c17.8 0 26.9 9.1 26.9 20.4s-9.4 20.4-26.9 20.4h-22.8c-.6 0-1.3-.3-1.6-.8l-5.8-8c-.9-1.2 0-2.8 1.4-2.8h20.6c8.7 0 12.2-4.2 12.2-9.4s-3.7-9.4-12.2-9.4h-30.3v50.6h-20.7zm163.6-21.3l19.2 21.3h-23l-18-20.2h-10.5c-.6 0-1.3-.3-1.6-.8l-5.8-8c-.9-1.2 0-2.8 1.4-2.8h20.6c8.7 0 12.2-4.2 12.2-9.4s-3.7-9.4-12.2-9.4h-30.3v50.6h-20.7v-51c0-5.5 4.5-10 10-10h49.1c17.8 0 26.9 9.1 26.9 20.4 0 8.9-6 16.6-17.3 19.3zm181-30.6l-6.3-8.1c-.5-.7-1.3-1.1-2.2-1.1h-38.3c-16.8 0-23 8.3-23 18.5s6.1 18.5 23 18.5h32.8c6.6 0 9 3 9 6.8s-2.4 6.8-9 6.8h-44c-.8 0-1.4.3-2 .8l-7.1 7.1c-1 1-.3 2.6 1.1 2.6h60c15.9 0 21.6-7.9 21.6-17.6s-6.6-17.6-21.6-17.6h-33.8c-7.4 0-9.4-3.2-9.4-7.1 0-3.9 2.6-7.1 9.4-7.1h38.7c1.1 0 1.8-1.5 1.1-2.5z"/>
  </symbol>
</svg>