<svg xmlns="http://www.w3.org/2000/svg" style="display: none;">

  <symbol id="page-logo" viewBox="0 0 1000 1000">
    <path class="svg-my-logo-1" d="M500.1,0C364.5,40.5,260.3,149.3,225.7,286.5C191,423.6,231,568.9,331.1,668.9 c100,100,245.3,140.1,382.4,105.4c137.2-34.7,246-138.9,286.5-274.4c0,202.2-121.8,384.5-308.6,461.9 c-186.8,77.4-401.8,34.6-544.8-108.4c-143-143-185.7-358-108.4-544.8C115.6,121.8,297.9,0,500.1,0z"/>
    <path class="svg-my-logo-2" d="M689.4,16v245.7H500.1c-96.7,0-183.1,57.7-220.1,147c-11.1,26.8-17.1,54.8-18.1,82.6 c-3.4-11.3-6.3-22.9-8.6-34.5c-14.3-71.8-7-145.5,21-213.1c28-67.6,75-124.9,135.9-165.5C471,37.5,541.9,16,615.1,16H689.4 M705.4,0c-30.1,0-60.2,0-90.3,0c-155.7,0-296,93.8-355.6,237.6C200,381.4,232.9,547,343,657c-63.5-63.5-82.6-159.1-48.2-242.1 c34.4-83,115.4-137.2,205.3-137.2c68.5,0,136.9,0,205.4,0C705.4,185.2,705.4,92.6,705.4,0L705.4,0z"/>
    <path class="svg-my-logo-3" d="M984,16v368.9c0,73.2-21.5,144.1-62.2,204.9c-40.7,60.9-97.9,107.8-165.5,135.9 c-45,18.6-92.5,28.1-141.1,28.1c-36.5,0-72.3-5.3-106.9-15.8c28.5-1,56.4-7,82.9-18c89.3-37,147-123.4,147-220.1V16H984 M1000,0 c-92.6,0-185.2,0-277.7,0c0,166.6,0,333.3,0,499.9c0,89.9-54.1,170.9-137.2,205.3c-27.5,11.4-56.4,16.9-85,16.9 c-57.8,0-114.7-22.6-157.2-65.1c73.6,73.6,172.1,112.7,272.2,112.7c49.6,0,99.6-9.6,147.2-29.3C906.2,680.9,1000,540.6,1000,384.9 C1000,256.6,1000,128.3,1000,0L1000,0z"/>
  </symbol>

  <symbol id="burger-button" viewBox="0 0 1000 1000">
    <path class="bb-1" d="M940,120H60C26.9,120,0,93.1,0,60v0C0,26.9,26.9,0,60,0h880c33.1,0,60,26.9,60,60v0	C1000,93.1,973.1,120,940,120z"/>
    <path class="bb-2" d="M940,560H60c-33.1,0-60-26.9-60-60v0c0-33.1,26.9-60,60-60h880c33.1,0,60,26.9,60,60v0 C1000,533.1,973.1,560,940,560z"/>
    <path class="bb-3" d="M940,1000H60c-33.1,0-60-26.9-60-60v0c0-33.1,26.9-60,60-60h880c33.1,0,60,26.9,60,60v0 C1000,973.1,973.1,1000,940,1000z"/>
  </symbol>

  <symbol id="close-button" viewBox="0 0 1000 1000">
    <!-- <filter id="dropshadow">
      <feGaussianBlur in="SourceAlpha" stdDeviation="10"/>
      <feOffset dx="0" dy="0" result="offsetblur"/>
        <feComponentTransfer>
        <feFuncA type="linear" slope="0.5"/>
      </feComponentTransfer>
      <feMerge> 
        <feMergeNode/>
        <feMergeNode in="SourceGraphic"/>
      </feMerge>
    </filter> -->
    <path class="svg-lightbox-icons" d="M50 50l900 900M50 950l900-900"/>
  </symbol>

  <symbol id="arrow" viewBox="0 0 1000 1000">
    <path class="svg-lightbox-icons" d="M281 950l450-450-450-450"/>
  </symbol>
  
  <symbol id="checkmark" viewBox="0 0 24 24">
    <path class="checkmark" d="M9 21l-9-8.6 2.8-2.9 6.2 5.9 12.2-12.4 2.8 2.8-15 15.2z"/>
  </symbol>

  <symbol id="konior-studio" viewBox="0 0 1000 145.9">
    <path class="svg__logo" d="M20.5 102.2l12-17.3 26.8 61h23.9l-37.6-82.1 37.6-63.8h-23.9l-38.8 63.5v-63.5h-20.5v145.9h20.5zM118.6 104.9c0 11.3 9.2 20.5 20.5 20.5s20.5-9.2 20.5-20.5v-63.8c0-11.3-9.2-20.5-20.5-20.5s-20.5 9.2-20.5 20.5v63.8zm-20.5 0v-63.9c0-22.7 18.4-41 41-41s41 18.4 41 41v63.8c0 22.7-18.4 41-41 41s-41-18.2-41-40.9zM392.2 104.9c0 11.3 9.2 20.5 20.5 20.5s20.5-9.2 20.5-20.5v-63.8c0-11.3-9.2-20.5-20.5-20.5s-20.5 9.2-20.5 20.5v63.8zm-20.5 0v-63.9c0-22.7 18.4-41 41-41 22.7 0 41 18.4 41 41v63.8c0 22.7-18.4 41-41 41-22.6.1-41-18.2-41-40.9zM955.5 75.8c0 8.2 6.6 14.8 14.8 14.8s14.8-6.6 14.8-14.8v-46.1c0-8.2-6.6-14.8-14.8-14.8s-14.8 6.6-14.8 14.8v46.1zm-14.8 0v-46.1c0-16.4 13.3-29.7 29.6-29.7s29.7 13.3 29.7 29.7v46.1c0 16.4-13.3 29.7-29.7 29.7s-29.6-13.3-29.6-29.7zM794.5 0v75.8c0 16.4-13.3 29.7-29.7 29.7s-29.7-13.3-29.7-29.7v-75.8h14.9v75.8c0 8.2 6.6 14.8 14.8 14.8s14.8-6.6 14.8-14.8v-75.8h14.9zM321 0h22.2v145.9h-22.2zM210.1 0v145.9h20.8v-92.3l39.3 92.3h22.2v-145.9h-21.6v92.6l-39.1-92.6zM505.1 22h19.7c11.4 0 20.6 9.2 20.6 20.6s-9.2 20.6-20.6 20.6h-19.7v-41.2zm62.3 20.7c0-23.6-19.1-42.7-42.7-42.7h-41.3v145.9h21.7v-60.6h18.4l20.5 60.6h23.4l-24.4-64.7c14.4-6.8 24.4-21.5 24.4-38.5zM900.3 0h14.6v105.5h-14.6zM681.8 14.8v90.7h16.2v-90.7h18.4v-14.8h-52.6v14.8zM846.1 90.6c8.2 0 14.8-6.6 14.8-14.8v-46.1c0-8.2-6.6-14.8-14.8-14.8h-14.3v75.8h14.3zm0-90.6c16.4 0 29.7 13.3 29.7 29.7v46.1c0 16.4-13.3 29.7-29.7 29.7h-29v-105.5h29zM589.9 92.2l10.8-11c10.5 12.7 25.5 10.9 31.7 4.9 6.4-6.3 4.9-16.4.2-20.6-6.5-5.8-17.8-6.1-24.7-9.6-5.5-2.8-12.4-6.9-15.6-15.5-2.8-7.5-4.4-18 2.3-27.6 8.4-12.2 22.9-12.7 27-12.8 16.2-.5 27 9.7 29.1 11.8l-10.8 11c-5.8-6.6-8.7-9.7-18.4-9.7-8.4 0-16.3 5.3-16.3 16.5 0 14 15.4 16.1 27.5 18.9 12.9 3 18.3 15.1 18.3 26.9 0 15.8-13.4 30.1-29.6 30.1-19.7 0-30.5-12.1-31.5-13.3z"/>
  </symbol>
  <symbol id="mofo" viewBox="0 0 1000 249.9">
    <path class="svg__logo" d="M340.7 224.9h-26.8l13.4-26.9 13.4 26.9zm-30.2 7.1h33.6l8 16.4h8.1l-29.8-60.8h-6.3l-30.1 60.8h8.2l8.3-16.4zM533.2 0h186.5v26.6h-186.5zM532.9 133.4h26.5v-53.3h159.9v-26.3h-186.4zM800.2 106.5v-79.7h132.9v79.6h-132.9zm159.7-106.5h-186.5v133.3h186.6v-133.3zM320.2 106.5v-79.7h132.9v79.6h-132.9zm159.7-106.5h-186.5v133.3h186.6v-133.3zM239.8 133.3h-26.8v-106.5h-79.7v106.5h-26.8v-106.5h-79.7v106.5h-26.8v-133.3h239.8zM992.4 187.2h7.6v61.3h-7.6zM961.2 233.4c-2.8 5.3-6.6 9.4-11.5 12.2-4.8 2.9-10.3 4.3-16.5 4.3-9.1 0-16.6-3-22.5-9-5.9-6-8.9-13.6-8.9-22.8 0-9.2 3-16.8 8.9-22.8s13.4-9 22.5-9c5.6 0 10.8 1.2 15.4 3.7s8.3 6 11.2 10.5l-6.3 4.5c-1.9-3.6-4.7-6.5-8.3-8.5-3.6-2-7.6-3.1-12-3.1-6.8 0-12.4 2.3-16.9 7-4.5 4.7-6.7 10.6-6.7 17.8 0 7.2 2.2 13.1 6.7 17.7s10.1 7 16.9 7c9.7 0 17-4.6 21.9-13.8l6.1 4.3zM878.9 248.4h-9.1l-24.6-34.1-14.7 12.4v21.7h-7.6v-61h7.6v30.4l34.8-30.4h9.9l-24.6 21.7zM794.1 248.4h-50.3v-60.8h47.8v7h-40.3v17.8h24.4v7h-24.4v21.9h42.8zM723 194.6h-25.7v53.8h-7.5v-53.8h-25.6v-7h58.8zM635.7 187.2h7.6v61.3h-7.6zM599.7 248.4h-7.6v-29.7h-35.9v29.7h-7.6v-60.8h7.6v24h35.9v-24h7.6zM517.5 233.4c-2.8 5.3-6.6 9.4-11.5 12.2-4.8 2.9-10.3 4.3-16.5 4.3-9.1 0-16.6-3-22.5-9-5.9-6-8.9-13.6-8.9-22.8 0-9.2 3-16.8 8.9-22.8s13.5-9 22.5-9c5.6 0 10.8 1.2 15.4 3.7s8.4 6 11.2 10.5l-6.3 4.5c-1.9-3.6-4.7-6.5-8.3-8.5-3.6-2-7.6-3.1-12-3.1-6.8 0-12.4 2.3-16.9 7-4.5 4.7-6.7 10.6-6.7 17.8 0 7.2 2.2 13.1 6.7 17.7s10.1 7 16.9 7c9.7 0 17-4.6 21.9-13.8l6.1 4.3zM411.9 214.6h-26.8v-20h27.2c3.6 0 6.4.9 8.3 2.7 1.9 1.8 2.9 4.3 2.9 7.5 0 6.5-3.8 9.8-11.6 9.8zm5.1 7.1c4.4-.8 7.9-2.8 10.5-5.9 2.6-3.2 3.9-6.9 3.9-11.2 0-5.3-1.7-9.5-5-12.4-3.4-3-8-4.5-14-4.5h-34.8v60.8h7.6v-26.6h23.6l15.2 26.6h8.3l-15.3-26.8z"/>
  </symbol>
  <symbol id="echo" viewBox="0 0 1000 391">
    <path class="svg__logo" d="M989 371.1v-55.6h11v-12.1h-11v-27.1h-13.1v27.1h-18.1v12.1h18.2v52.2s0 10.1 2.4 14.6c1.8 3.6 5.3 6.6 10.6 7.8 0 0 5.2 1.3 11 .9v-12s-4.6.1-7.8-1.3c-3.2-1.6-3.2-6.6-3.2-6.6zM869.5 246.9c-72.1 0-130.5-55.1-130.5-123.1s58.4-123.1 130.5-123.1 130.5 55.1 130.5 123.1-58.4 123.1-130.5 123.1zm0-187.6c-37.8 0-68.4 28.9-68.4 64.5s30.6 64.5 68.4 64.5 68.4-28.9 68.4-64.5-30.6-64.5-68.4-64.5zM783.1 299.8c12.3 0 21 3 27.8 7.4 22.3 15 20 42.7 20 42.7h-81.7c2.4 22.5 20.4 28.5 33.9 28.9 26.5 1.1 31.9-19.4 31.9-19.4h13.7c-1.7 4.2-9.4 32-45.7 31.6-38.4-.9-47.6-28.5-47.1-47.3 3.1-45.6 47.2-43.9 47.2-43.9zm33.3 38s-4-25.9-33.4-25.9c-29.8.5-33.3 25.9-33.3 25.9h66.7zM708.2 330.2s1.3-16.7-13.1-25.2c-5.2-3.1-14.5-5.2-22.9-5.2-10.6 0-22.6 2.7-30.9 15.2-6.4-11.7-18.1-15.2-31.1-15.2-12.1.4-21.1 4.2-28.2 11.2v-8.7h-13.1v86.1h13.1v-50.7s-.8-15.2 11.9-22.3c4.9-2.2 8.8-3.5 15.1-3.5 11.5 0 17.3 3.7 20.2 7.9 2.8 4.5 2.8 9 2.8 10.3v58.3h13.1v-54.4s0-8.7 5.4-14.2c3.9-4.2 10.9-8 21.7-8 21.8.7 22.4 15.2 23 18.2v58.3h13.1v-58.1zM638.2 246.9h65v-246.9h-65v94h-94.5l-.1-94h-65.1l-.1 246.9h65.3v-95.3h94.5zM402.8 324.7c.6-4.5 2-8.3 10.1-11 8.2-2.7 22.9-2 29.8.7 6.9 2.6 10.3 6.7 11 15.8h13s.2-7.2-3.6-14.6c-2.3-4.6-7.2-9-13.9-11.9-6.9-2.7-14.5-3.8-22.6-3.8-18.5 0-26.1 6.3-28.3 7.9-3.6 2.8-10.6 10.9-8.2 22.4 2.4 11.7 12.2 15.2 15.2 16.3 2.9 1.2 8 2 11.5 2.5 6.3.7 25 3.3 25 3.3s10.6.5 13.6 6.7c2.2 5.4 1.5 13-6.3 16.9-8.8 2.9-17.1 3.8-29.2 2.4-9.2-1.1-15.4-4.3-18.5-9.6-1.8-3.3-2.2-6.8-2.4-9.3h-13c.3 2.4.7 10.8 5.3 16.9 4.7 6.9 10.9 10.3 17.7 12.3 11.1 3.5 30.2 3.1 40.1 0 11.3-3 17.7-9.4 20-18.9.7-4.8 2.3-16.7-9.1-24.6-3.3-2.2-7.9-3.7-12.3-4.8-4-.7-11.8-1.8-18.3-2.7-7.8-1.1-14-1.9-14-1.9s-13.3-1-12.6-11zM259.6 123.7c0-35.6 30.6-64.5 68.4-64.5 25.9 0 48.3 13.5 60 33.5l55.5-26.3c-21.8-39.1-65.3-65.8-115.5-65.8-72.1 0-130.6 55.1-130.6 123.2 0 68 58.5 123.2 130.6 123.2 51.2 0 95.5-27.9 116.8-68.4l-56.1-25.1c-11.2 21.3-33.8 34.9-60.7 34.9-37.7-.1-68.4-29-68.4-64.7zM0 246.9h178.3v-55.7h-112.8v-48.6h96v-50.2h-96v-39.1h109.7v-52.5h-175.2zM0 271.9h12.9v22.3h-12.9zM0 303.3h12.9v85.3h-12.9zM61.3 302.4h-13v86.1h13v-50.8s-.5-25.7 31.8-25.7c23.3 0 26.4 12.5 26.1 25.7v50.8h13.2v-56.4c0-5.3-1.2-32.3-39.2-32.3-21.8 0-30.6 11.7-31.8 12.8v-10.2zM166 302.3h-14.7l42.7 86.1h10.8l42.4-86.1h-14.7l-33.2 69.3zM309.8 299.8c12.3 0 21 3 27.8 7.4 22.3 15 20 42.7 20 42.7h-81.7c2.4 22.5 20.4 28.5 33.9 28.9 26.5 1.1 32-19.4 32-19.4h13.7c-1.7 4.2-9.4 32-45.7 31.6-38.4-.9-47.5-28.5-47.1-47.3 3.1-45.6 47.1-43.9 47.1-43.9zm33.4 38s-4-25.9-33.4-25.9c-29.8.5-33.3 25.9-33.3 25.9h66.7zM508.2 303.4h-18.1v12.1h18.3v52.2s0 10.1 2.4 14.6c1.8 3.6 5.3 6.6 10.6 7.8 0 0 5.2 1.3 11 .9v-12s-4.6.1-7.8-1.3c-3.2-1.5-3.2-6.5-3.2-6.5v-55.6h11v-12.1h-11v-27.1h-13.2v27zM871.9 302.4h-13v86.1h13v-50.8s-.5-25.7 31.8-25.7c23.3 0 26.4 12.5 26 25.7v50.8h13.3v-56.4c0-5.3-1.2-32.3-39.2-32.3-21.8 0-30.6 11.7-31.8 12.8v-10.2z"/>
  </symbol>
  <symbol id="hackett-hamilton" viewBox="0 0 1000 354.3">
    <path class="svg__logo" d="M0 332.8l29.7-1 152-56.7-12.8-4.3-44.3 19.2 29.2-39.6 43.5-26.5zM176 267.9l20 5.7 61.9-10.5 5.1-33.3zM137 280.2l184.7-79.9 17.1-56.7-181.1 109zM267.8 228l-4.8 35.5h64l53.9-19 32.6-82.7-55.2-8.7-16.6-27-58.8 41.9-6 9 67.9-41-19.5 67zM389.4 234.5l54-58.1 1.4-57.4h-5.3l-15.5 44.3-6.9-.9zM406.4 223.2l48.8-43 23.3-54.1-10.4-63.3 1.7-25.6-2.3-.9-11 13.5-6.1 22.3-34.8-17.2-40.3 21.7-12.7 23.2 53.3-39.5 27.5 46.4-1.8 8.2 7.4.7-1.9 63zM360.5 149.1l60.8 9.5 18-51.2-24.2-41.9-72.3 54.8zM372.5 73.4l42.9-23 32 15.9 5.9-20.1 10.9-12.2-18.3-13.2 28.8-5.9-23.7-14.9-32.3 12.3zM455.6 23l17.6 12.2 3.7-5.4-5.2-5.5 1.5-4.8zM478.5 17.6l-1.6 6.2 4.5 3.6 9.2-2.5zM231.8 325.5c-4.1 0-4.3.2-4.3 2.7v12.1c0 9 .4 10.2 5.2 10.7l2.5.3c.5.3.3 1.9-.2 2.1-4.6-.2-7.5-.3-10.9-.3-3.7 0-6.6.2-9.9.3-.5-.3-.7-1.6-.2-2.1l1.5-.3c4.8-.9 5-1.7 5-10.7v-30.8c0-9-.6-10.4-5-10.8l-2.2-.2c-.5-.3-.3-1.9.2-2.1 4.2.1 7.1.3 10.8.3 3.3 0 6.2-.1 9.9-.3.5.3.7 1.8.2 2.1l-1.6.2c-5 .5-5.1 1.8-5.1 10.8v9.8c0 2.6.2 2.7 4.3 2.7h24.4c4.1 0 4.3-.1 4.3-2.7v-9.8c0-9-.2-10.3-5.2-10.8l-1.6-.2c-.5-.3-.3-1.9.2-2.1 3.9.2 6.8.3 10.3.3 3.3 0 6.2-.1 10.1-.3.5.3.7 1.8.2 2.1l-1.8.2c-5 .5-5.1 1.8-5.1 10.8v30.8c0 9 .2 10.1 5.1 10.7l2.1.3c.5.3.3 1.9-.2 2.1-4.1-.2-7-.3-10.3-.3-3.5 0-6.6.1-10.3.3-.5-.3-.7-1.6-.2-2.1l1.6-.3c5.2-.9 5.2-1.7 5.2-10.7v-12.1c0-2.6-.2-2.7-4.3-2.7h-24.7zM610 325.5c-4.1 0-4.3.2-4.3 2.7v12.1c0 9 .4 10.2 5.2 10.7l2.5.3c.5.3.3 1.9-.2 2.1-4.6-.2-7.5-.3-10.9-.3-3.7 0-6.6.2-9.9.3-.5-.3-.7-1.6-.2-2.1l1.5-.3c4.8-.9 5-1.7 5-10.7v-30.8c0-9-.6-10.4-5-10.8l-2.2-.2c-.5-.3-.3-1.9.2-2.1 4.2.1 7.1.3 10.8.3 3.3 0 6.2-.1 9.9-.3.5.3.7 1.8.2 2.1l-1.6.2c-5 .5-5.1 1.8-5.1 10.8v9.8c0 2.6.2 2.7 4.3 2.7h24.4c4.1 0 4.3-.1 4.3-2.7v-9.8c0-9-.2-10.3-5.2-10.8l-1.6-.2c-.5-.3-.3-1.9.2-2.1 3.9.2 6.8.3 10.3.3 3.3 0 6.2-.1 10.1-.3.5.3.7 1.8.2 2.1l-1.8.2c-5 .5-5.1 1.8-5.1 10.8v30.8c0 9 .2 10.1 5.1 10.7l2.1.3c.5.3.3 1.9-.2 2.1-4.1-.2-7-.3-10.3-.3-3.5 0-6.6.1-10.3.3-.5-.3-.7-1.6-.2-2.1l1.6-.3c5.2-.9 5.2-1.7 5.2-10.7v-12.1c0-2.6-.2-2.7-4.3-2.7h-24.7zM311.1 337.4c-.5-1.5-.8-1.7-3.1-1.7h-11.5c-1.9 0-2.4.2-2.9 1.6l-2.7 7.2c-1.1 3.1-1.7 4.9-1.7 5.7 0 .8.4 1.2 2.2 1.4l2.5.2c.5.3.5 1.4-.2 1.7-2-.1-4.3-.1-7.9-.2-2.5 0-5.2.1-7.3.2-.5-.3-.6-1.4-.2-1.7l2.5-.2c1.8-.1 3.5-.9 4.6-3.3 1.4-3.1 3.5-7.6 6.7-15.2l7.7-18.4c1.1-2.5 1.5-3.7 1.3-4.8 1.8-.5 3.1-1.7 3.9-2.6.5 0 1 .1 1.1.6 1 3 2.2 6.1 3.3 9.1l10.4 27.4c2.2 5.9 3.2 6.9 6.4 7.2l2 .2c.5.3.4 1.4 0 1.7-3.1-.1-5.8-.2-9.2-.2-3.6 0-6.5.1-8.7.2-.6-.3-.7-1.4-.2-1.7l2.2-.2c1.6-.1 2.7-.5 2.7-1.2s-.4-2-1-3.6l-2.9-9.4zm-15-6.1c-.6 1.6-.5 1.6 1.6 1.6h9.3c2.2 0 2.4-.3 1.7-2.1l-4.1-11.1c-.6-1.6-1.3-3.5-1.7-4.3h-.2c-.2.3-1 2-1.8 4l-4.8 11.9zM690.8 337.4c-.5-1.5-.8-1.7-3.1-1.7h-11.5c-1.9 0-2.4.2-2.9 1.6l-2.7 7.2c-1.1 3.1-1.7 4.9-1.7 5.7 0 .8.4 1.2 2.2 1.4l2.5.2c.5.3.5 1.4-.2 1.7-2-.1-4.3-.1-7.9-.2-2.5 0-5.2.1-7.3.2-.5-.3-.6-1.4-.2-1.7l2.5-.2c1.8-.1 3.5-.9 4.6-3.3 1.4-3.1 3.5-7.6 6.7-15.2l7.7-18.4c1.1-2.5 1.5-3.7 1.3-4.8 1.8-.5 3.1-1.7 3.9-2.6.5 0 1 .1 1.1.6 1 3 2.2 6.1 3.3 9.1l10.4 27.4c2.2 5.9 3.2 6.9 6.4 7.2l2 .2c.5.3.4 1.4 0 1.7-3.1-.1-5.8-.2-9.2-.2-3.6 0-6.5.1-8.7.2-.6-.3-.7-1.4-.2-1.7l2.2-.2c1.6-.1 2.7-.5 2.7-1.2s-.4-2-1-3.6l-2.9-9.4zm-15-6.1c-.6 1.6-.5 1.6 1.6 1.6h9.3c2.2 0 2.4-.3 1.7-2.1l-4.1-11.1c-.6-1.6-1.3-3.5-1.7-4.3h-.2c-.2.3-1 2-1.8 4l-4.8 11.9zM340.8 312.9c5.2-3.9 11.9-5.8 19.4-5.8 3.9 0 9.3.7 12.7 1.6.9.2 1.4.3 2 .3.1 1.6.4 5.9 1 10-.4.5-1.4.5-1.9.1-1.1-4.6-4.3-10-14.7-10-11 0-20.3 6.6-20.3 20.7 0 14.3 9.5 22.2 21.3 22.2 9.3 0 13.3-5.7 15-9.7.5-.3 1.6-.2 1.9.3-.5 3.5-2.4 8-3.4 9.3-.9.1-1.7.4-2.5.7-1.6.5-6.7 1.6-11.3 1.6-6.5 0-12.6-1.2-17.9-4.6-5.7-3.7-10.2-10-10.2-18.7-.2-7.5 3.4-14 8.9-18zM391.3 318.4c0-7.2-.1-8.2-4.1-8.6l-1.7-.1c-.4-.3-.3-1.5.1-1.7 3.3.1 5.5.2 8.6.2 2.7 0 5-.1 7.9-.2.4.2.5 1.4.1 1.7l-1.3.1c-4 .4-4.1 1.4-4.1 8.6v7.8c0 1.3.1 2.6.9 2.6.6 0 1.4-.4 1.9-.7 1-.8 2.7-2.6 3.5-3.3l7.4-7.3c1.3-1.2 4.6-4.7 5.3-5.7.3-.5.5-.8.5-1.1s-.3-.5-1.2-.7l-1.8-.4c-.5-.5-.4-1.4.1-1.7 2.4.1 5.1.2 7.5.2 2.4 0 4.7-.1 6.7-.2.5.3.5 1.3.1 1.7-1.8.1-4.4.8-6.3 1.9-1.9 1.1-5.7 4.3-9.5 7.9l-6.1 5.8c-1 1-1.6 1.6-1.6 2.1s.4 1 1.3 2.1c6.5 7.4 11.7 13.6 17 19.2 1.6 1.6 3.1 2.5 5.5 2.8l1.8.2c.5.3.3 1.5-.1 1.7-1.8-.1-4.4-.2-7.6-.2-2.8 0-5.2.1-8.3.2-.5-.1-.7-1.3-.3-1.7l1.6-.3c1-.1 1.6-.3 1.6-.7 0-.4-.5-1-1-1.6-1.3-1.6-3.1-3.5-5.7-6.4l-5.5-6.1c-3.9-4.4-5-5.7-6.6-5.7-1 0-1.2.9-1.2 3.3v8.8c0 7.2.1 8.1 4 8.5l1.8.2c.4.3.3 1.5-.1 1.7-3.3-.1-5.7-.2-8.3-.2-2.8 0-5.1.1-7.9.2-.4-.2-.5-1.2-.1-1.7l1.4-.2c3.6-.5 3.7-1.4 3.7-8.5v-24.5zM440 318.4c0-7.1-.1-8.1-4.2-8.6l-1.1-.1c-.4-.3-.3-1.5.1-1.7 2.9.1 5.2.2 8 .2h12.8c4.4 0 8.4 0 9.2-.2.4 1.2.8 6.1 1.1 9.1-.3.4-1.4.5-1.7.1-1-3.2-1.6-5.6-5.2-6.5-1.4-.3-3.6-.4-6.6-.4h-4.9c-2 0-2 .1-2 2.7v13.6c0 1.9.2 1.9 2.2 1.9h4c2.9 0 5-.1 5.8-.4.8-.3 1.3-.7 1.6-2.4l.5-2.8c.3-.4 1.5-.4 1.8.1 0 1.6-.3 4.3-.3 6.9 0 2.5.3 5 .3 6.5-.3.5-1.4.5-1.8.1l-.6-2.7c-.3-1.2-.7-2.2-2.1-2.6-1-.3-2.6-.3-5.2-.3h-4c-2 0-2.2.1-2.2 1.8v9.6c0 3.6.2 5.9 1.3 7.1.8.8 2.2 1.6 8.2 1.6 5.2 0 7.2-.3 8.7-1 1.2-.7 3.1-3.1 4.8-6.6.5-.3 1.4-.1 1.7.5-.5 2.4-2.2 7.6-3.1 9.5-6.1-.1-12.2-.2-18.3-.2h-6.1c-2.9 0-5.2.1-9.3.2-.4-.2-.5-1.3-.1-1.7l2.2-.2c3.9-.3 4.2-1.4 4.2-8.5v-24.6zM495 342.9c0 7.2.1 8.2 4.1 8.5l2.2.2c.4.3.3 1.5-.1 1.7-3.9-.1-6.2-.2-8.9-.2s-5.1.1-9.5.2c-.4-.2-.5-1.4 0-1.7l2.5-.2c3.9-.3 4.2-1.4 4.2-8.5v-30.5c0-2.1 0-2.2-2-2.2h-3.7c-2.9 0-6.7.1-8.4 1.7-1.6 1.5-2.3 3-3.1 4.7-.5.4-1.5.1-1.8-.5 1.1-3.1 2.1-7.4 2.6-10.2.2-.1 1.1-.2 1.3 0 .4 2.2 2.7 2.1 5.8 2.1h27.6c3.7 0 4.3-.1 5.3-1.9.3-.1 1.1-.1 1.2.2-.7 2.8-1.2 8.3-1 10.4-.3.5-1.4.5-1.8.1-.2-1.7-.7-4.2-1.7-5-1.6-1.2-4.2-1.7-7.9-1.7h-4.9c-2 0-2 .1-2 2.3v30.5zM540.7 342.9c0 7.2.1 8.2 4.1 8.5l2.2.2c.4.3.3 1.5-.1 1.7-3.9-.1-6.2-.2-8.9-.2s-5.1.1-9.5.2c-.4-.2-.5-1.4 0-1.7l2.5-.2c3.9-.3 4.2-1.4 4.2-8.5v-30.5c0-2.1 0-2.2-2-2.2h-3.7c-2.9 0-6.7.1-8.4 1.7-1.6 1.5-2.3 3-3.1 4.7-.5.4-1.5.1-1.8-.5 1.1-3.1 2.1-7.4 2.6-10.2.2-.1 1.1-.2 1.3 0 .4 2.2 2.7 2.1 5.8 2.1h27.6c3.7 0 4.3-.1 5.3-1.9.3-.1 1.1-.1 1.2.2-.7 2.8-1.2 8.3-1 10.4-.3.5-1.4.5-1.8.1-.2-1.7-.7-4.2-1.7-5-1.6-1.2-4.2-1.7-7.9-1.7h-4.8c-2 0-2 .1-2 2.3v30.5zM737.9 335c1.7 3.2 3.4 6.3 5.2 9.3h.2c2-3.2 3.9-6.7 5.8-10.2l7.1-13c3.4-6.2 5.6-10 5.7-13.1 2.6.2 4.1.2 5.6.2 1.9 0 4.4-.1 6.7-.2.5.3.5 1.4.1 1.7l-1.6.1c-4.7.4-5.3 1.7-5.3 6.5.2 7.2.2 19.8.8 29.6.2 3.4.2 5.2 3.7 5.5l2.4.2c.5.4.4 1.4-.2 1.7-3.1-.1-6.2-.2-8.9-.2-2.6 0-6 .1-9.1.2-.5-.3-.6-1.3-.2-1.7l2.2-.2c3.7-.3 3.7-1.4 3.7-5.8l-.2-28.4h-.2c-.5.7-3.4 6.2-4.9 8.9l-6.7 11.9c-3.4 6-6.8 12.4-8.1 15.5-.2.2-.5.3-.8.3-.2 0-.5-.1-.7-.3-1.3-3.6-4.9-10.3-6.6-13.6l-6.8-13.2-4.8-9.8c-.3 4.2-.5 8.2-.8 12.1-.2 4.2-.5 10.2-.5 16 0 5 .5 6.1 3.4 6.3l2.9.2c.5.4.5 1.5-.1 1.7-2.6-.1-5.5-.2-8.4-.2-2.4 0-5.1.1-7.7.2-.5-.3-.6-1.4-.2-1.7l1.7-.2c3.2-.4 4.2-.8 4.7-5.6.5-4.5.8-8.2 1.3-15 .4-5.7.7-11.5.8-15.2.2-4.3-.5-5.3-5-5.9l-1.2-.1c-.4-.4-.3-1.4.3-1.7 2.3.1 4.1.2 5.9.2 1.7 0 3.8 0 6.2-.2-.3 2.7 1.6 6.9 3.9 11.2l8.7 16zM787.9 318.5c0-7.2-.1-8.4-4.2-8.7l-1.7-.1c-.4-.3-.3-1.5.1-1.7 3.4.1 5.7.2 8.6.2 2.7 0 5-.1 8.5-.2.4.2.5 1.4.1 1.7l-1.7.1c-4 .3-4.2 1.5-4.2 8.7v24.3c0 7.2.1 8.2 4.2 8.7l1.7.2c.4.3.3 1.5-.1 1.7-3.4-.1-5.7-.2-8.5-.2-2.9 0-5.2.1-8.6.2-.4-.2-.5-1.3-.1-1.7l1.7-.2c4-.5 4.2-1.4 4.2-8.7v-24.3zM815.5 318.4c0-7.2-.1-8.2-4.4-8.6l-1.7-.1c-.4-.3-.3-1.5.1-1.7 3.8.1 6.1.2 8.9.2 2.7 0 5-.1 8.4-.2.4.2.5 1.4.1 1.7l-1.6.1c-4 .3-4.2 1.4-4.2 8.6v23.7c0 4.3.2 6.1 1.4 7.4.7.7 2 1.6 7.4 1.6 5.8 0 7.2-.3 8.3-.9 1.4-.8 3.1-3.3 4.5-6.7.4-.3 1.7-.1 1.7.4 0 .7-1.9 7.7-2.9 9.5-3.5-.1-10-.2-17-.2h-6.3c-2.9 0-5 .1-8.9.2-.4-.2-.5-1.3-.1-1.7l2-.2c4-.4 4.1-1.4 4.1-8.5v-24.6zM864.9 342.9c0 7.2.1 8.2 4.1 8.5l2.2.2c.4.3.3 1.5-.1 1.7-3.9-.1-6.2-.2-8.9-.2s-5.1.1-9.5.2c-.4-.2-.5-1.4 0-1.7l2.5-.2c3.9-.3 4.2-1.4 4.2-8.5v-30.5c0-2.1 0-2.2-2-2.2h-3.7c-2.9 0-6.7.1-8.4 1.7-1.6 1.5-2.3 3-3.1 4.7-.5.4-1.5.1-1.8-.5 1.1-3.1 2.1-7.4 2.6-10.2.2-.1 1.1-.2 1.3 0 .4 2.2 2.7 2.1 5.8 2.1h27.6c3.7 0 4.3-.1 5.3-1.9.3-.1 1.1-.1 1.2.2-.7 2.8-1.2 8.3-1 10.4-.3.5-1.4.5-1.8.1-.2-1.7-.7-4.2-1.7-5-1.6-1.2-4.2-1.7-7.9-1.7h-4.8c-2 0-2 .1-2 2.3v30.5zM885.9 331.2c0-13.6 11.3-24.1 26.9-24.1 17.5 0 26.2 11.4 26.2 23.4 0 13.8-11.6 23.8-26.2 23.8-16.7 0-26.9-10.9-26.9-23.1zm45.6 1.4c0-11.2-5.5-23.4-20-23.4-7.9 0-18.1 4.8-18.1 19.8 0 10.1 5.4 23.2 20.3 23.2 9.2-.1 17.8-6.2 17.8-19.6zM993.2 341.6c0 2 0 10.2.2 11.9-.2.4-.6.7-1.5.7-.9-1.2-3.1-3.5-9.8-10.3l-17.8-18c-2.1-2.1-7.3-7.7-8.9-9.2h-.2c-.3.8-.4 2.4-.4 4.4v14.9c0 3.2.1 12.1 1.4 14.1.5.7 2 1.2 3.9 1.3l2.4.2c.5.5.4 1.4-.2 1.7-3.4-.1-6.1-.2-9-.2-3.2 0-5.3.1-8 .2-.5-.3-.6-1.3-.2-1.7l2.1-.2c1.8-.2 3-.6 3.4-1.4 1.1-2.5 1-10.8 1-14v-19.7c0-1.9-.1-3.3-1.7-4.9-1.1-1-2.9-1.4-4.7-1.6l-1.3-.1c-.5-.4-.5-1.4.2-1.7 3.2.2 7.3.2 8.7.2 1.2 0 2.5-.1 3.5-.2 1.5 3.5 10.6 12.5 13.1 15l7.4 7.4c5.3 5.2 9 9.1 12.6 12.3h.2c.3-.3.3-1.4.3-2.9v-14.6c0-3.2-.1-12.1-1.5-14.1-.5-.6-1.7-1-4.7-1.4l-1.3-.1c-.5-.4-.5-1.5.2-1.7 3.5.1 6.1.2 9 .2 3.3 0 5.3-.1 7.9-.2.6.3.6 1.3.2 1.7l-1.1.1c-2.5.3-4 .9-4.3 1.4-1.3 2.5-1.1 10.9-1.1 14v16.5z"/>
  </symbol>
  <symbol id="mallson" viewBox="0 0 1000 283.7">
    <path class="svg__logo" d="M.3 186.8c.3 0 0-186.8 0-186.8h78.8l35.8 122.9 37.7-122.9h76.3v186.8h-49.4v-137.4l-43 137.4h-47.7l-41.6-134.5v134.5h-46.9zm407.8-186.8h49.4v186.8h-49.4v-186.8zm75.6 0h49.4v186.8h-49.4v-186.8zm282.9 189.6h-20.4c-37.7 0-68.6-30.9-68.6-68.6v-8.2c0-37.7 30.9-68.6 68.6-68.6h20.4c37.7 0 68.6 30.9 68.6 68.6v8.2c0 37.7-30.9 68.6-68.6 68.6zm-10.3-109.9c-15 0-27.2 16.6-27.2 37.1s12.2 37.1 27.2 37.1 27.2-16.6 27.2-37.1-12.1-37.1-27.2-37.1zm-443.6 76c-12 0-18.4-5.2-18.4-13.6 0-9.3 9.2-16.5 22-16.5h20.2c0 19.9-12.1 30.1-23.8 30.1zm-9.6-58.4c-10.2 0-31.7 2.5-46 17.6-9.8 10.3-10.7 17.3-10.7 30.2 0 13.8 4.4 23.5 14.9 32.8 9.6 8.5 21.1 8.9 33.9 8.9 21.8 0 33.7-5.1 44.5-17.4v17.4h44.2v-87.9c0-11.2-5-27-16-39.2-10.5-11.4-28.4-16.8-50.9-16.7-23.4.1-42.3 5.6-54.2 11.2v35.8c23.9-13 30.6-13.6 48.9-13.6 10 0 24.9 7.3 24.9 20.8h-33.5m251.9 44.7c9.5 6.1 22.4 12.2 37.1 12.2 16.6 0 25.4 0 25.4-8.4s-7.5-10-22.8-14.5c-33.2-10.4-44.6-17-44.6-43.7 0-24.7 25.5-43.4 65.1-43.4 18.2 0 33.8 3.5 44.1 7.6l-4.3 36.4c-7.7-3.2-21.2-11.2-34.6-11.2-14.4 0-19.3 4.3-19.3 8.4 0 5 5 9.3 27.5 15.2 30.5 8 39.4 19.9 39.4 43.4 0 21.1-12.9 45.7-69.2 45.7-19.5 0-32.1-1.6-43.9-7l.1-40.7zm345.3-79.6c8.8-8 19.8-18.3 44.5-18.3 35.4 0 55.2 17.8 55.2 57v85.7h-49.4v-75.7c0-17.1-7.5-25.7-23.8-25.7-11.1 0-21.4 10-21.4 25v76.4h-50.6v-139.6h45.6l-.1 15.2zm-900.3 220.6v-54.4c3.9-.6 9.4-1.1 16.4-1.1 8 0 14 1.4 18 4.4 3.8 2.8 6.1 7.2 6.1 12.3 0 15.1-14.5 18.5-23.9 18.5-1.7 0-3.2-.1-4.4-.3v20.6h-12.2zm12.1-28.9c1.2.2 2.5.3 4.3.3 7.6 0 12-3.7 12-9.7 0-5.9-4.3-9-11-9-2.5 0-4.2.2-5.3.4v18zm61.9-25.5c4.2-.6 10.1-1.1 16.3-1.1 8 0 24.1.9 24.1 15.6 0 6.7-4.9 11.7-10.8 13.7v.2c4.4 1.5 6.9 5.2 8.4 10.8 1.8 6.5 3.5 13.1 4.7 15.2h-12.7c-.9-1.6-2.5-6.4-3.9-13-1.6-7.1-4.2-9.3-9.9-9.3h-4.2v22.4h-12v-54.5zm12 24.2h5c6.9 0 11.1-3.5 11.1-8.7 0-7.1-6.1-8.5-10.5-8.5-2.7 0-4.6.1-5.6.4v16.8zm112.9 2c0 19.2-11.2 29-26.9 29-16.7 0-26.1-12.2-26.1-28.2 0-16.5 10.4-28.6 26.9-28.6 17.6 0 26.1 13.1 26.1 27.8zm-40.2.6c0 10.8 4.8 19.7 13.8 19.7s13.7-8.8 13.7-19.9c0-10.1-4.4-19.5-13.6-19.5-9.6 0-13.9 9.6-13.9 19.7zm74.2 27.6v-54.4c3.9-.6 9.4-1.1 16.4-1.1 8 0 14 1.4 18 4.4 3.8 2.8 6.1 7.2 6.1 12.3 0 15.1-14.5 18.5-23.9 18.5-1.7 0-3.2-.1-4.4-.3v20.6h-12.2zm12-28.9c1.2.2 2.5.3 4.3.3 7.6 0 12-3.7 12-9.7 0-5.9-4.3-9-11-9-2.5 0-4.2.2-5.3.4v18zm97.2 20v8.9h-35.3v-55.1h34v8.9h-21.8v13.3h20.6v8.7h-20.6v15.3h23.1zm34-45.5c4.2-.6 10.1-1.1 16.3-1.1 8 0 24.1.9 24.1 15.6 0 6.7-4.9 11.7-10.8 13.7v.2c4.4 1.5 6.9 5.2 8.4 10.8 1.8 6.5 3.5 13.1 4.7 15.2h-12.5c-.9-1.6-2.5-6.4-3.9-13-1.6-7.1-4.2-9.3-9.9-9.3h-4.1v22.4h-12.1v-54.5h-.2zm12.1 24.2h5c6.9 0 11.1-3.5 11.1-8.7 0-7.1-6.1-8.5-10.5-8.5-2.7 0-4.6.1-5.6.4v16.8zm101.3-24.9v9.2h-15.6v45.9h-12.2v-45.9h-15.5v-9.2h43.3zm61.4 0h13.4l-18.7 32.3v22.8h-12.2v-22.4l-17.9-32.7h13.6l6.2 13.5c1.8 3.9 3.3 7.4 4.8 11.2h.2c1.2-3.7 2.8-7.2 4.6-11.3l6-13.4zm132.3 24.4v28.6c-3.7 1.2-10.8 2.7-18 2.7-9.6 0-16.9-2.1-22.3-6.7-5.4-4.7-8.5-12.2-8.5-20.9 0-18.6 14.2-28.6 32.4-28.6 6.4 0 11.7 1 14.8 2.3l-2.5 8.7c-2.9-1.1-6.5-2-12.1-2-11.3 0-19.8 6-19.8 19.4 0 12.8 7.8 19.2 18.2 19.2 3 0 5.2-.4 6.2-.8v-13.5h-9.1v-8.4h20.7zm35.5-23.7c4.2-.6 10.1-1.1 16.3-1.1 8 0 24.1.9 24.1 15.6 0 6.7-4.9 11.7-10.8 13.7v.2c4.4 1.5 6.9 5.2 8.4 10.8 1.8 6.5 3.5 13.1 4.7 15.2h-12.5c-.9-1.6-2.5-6.4-3.9-13-1.6-7.1-4.2-9.3-9.9-9.3h-4.1v22.4h-12.1v-54.5h-.2zm12.1 24.2h5c6.9 0 11.1-3.5 11.1-8.7 0-7.1-6.1-8.5-10.5-8.5-2.7 0-4.6.1-5.6.4v16.8zm112.9 2c0 19.2-11.2 29-26.9 29-16.7 0-26.1-12.2-26.1-28.2 0-16.5 10.4-28.6 26.9-28.6 17.5 0 26.1 13.1 26.1 27.8zm-40.3.6c0 10.8 4.8 19.7 13.8 19.7s13.7-8.8 13.7-19.9c0-10.1-4.4-19.5-13.6-19.5-9.6 0-13.9 9.6-13.9 19.7zm119.4-27.6v32.3c0 16.1-8.8 23.7-23.1 23.7-14.2 0-22.3-7.4-22.3-23.6v-32.4h12.2v33.3c0 9.7 4.2 13.9 10.4 13.9 6.6 0 10.6-4.1 10.6-13.9v-33.3h12.2zm36.8 55.2v-54.4c3.9-.6 9.4-1.1 16.4-1.1 8 0 14 1.4 18 4.4 3.8 2.8 6.1 7.2 6.1 12.3 0 15.1-14.5 18.5-23.9 18.5-1.7 0-3.2-.1-4.4-.3v20.6h-12.2zm12.1-28.9c1.2.2 2.5.3 4.3.3 7.6 0 12-3.7 12-9.7 0-5.9-4.3-9-11-9-2.5 0-4.2.2-5.3.4v18z"/>
  </symbol>
  <symbol id="studio-thoernblom" viewBox="0 0 1000 153.8">
    <path class="svg__logo" d="M121.8 69l18.8-2.1c.8 2.7 1.9 4.6 3.2 5.7 1.4 1.2 3.2 1.7 5.6 1.7 2.5 0 4.5-.6 5.9-1.9 1.1-1 1.6-2.2 1.6-3.6 0-1.6-.7-2.9-2.1-3.8-1-.6-3.7-1.4-8.1-2.3-6.6-1.4-11.1-2.6-13.7-3.8-2.6-1.2-4.7-3.1-6.5-5.9-1.7-2.8-2.6-5.9-2.6-9.5 0-3.9.9-7.2 2.8-10.1 1.9-2.8 4.5-4.9 7.8-6.3 3.3-1.4 7.8-2.1 13.3-2.1 5.9 0 10.2.5 13 1.6 2.8 1.1 5.1 2.7 7 5 1.9 2.3 3.4 5.3 4.7 9.2l-17.9 2.1c-.5-1.9-1.2-3.3-2.3-4.2-1.5-1.2-3.3-1.8-5.4-1.8-2.1 0-3.7.5-4.7 1.4s-1.5 2-1.5 3.3c0 1.4.6 2.5 1.9 3.3 1.2.7 3.9 1.4 8.1 2 6.3.9 11 2 14 3.6 3.1 1.5 5.4 3.7 7 6.5 1.6 2.8 2.4 5.9 2.4 9.3 0 3.4-.9 6.7-2.6 10-1.7 3.2-4.4 5.8-8.1 7.7-3.7 1.9-8.7 2.9-15.1 2.9-9 0-15.4-1.5-19.2-4.6-3.8-3.3-6.3-7.7-7.3-13.3zM203.6 8.1v19.4h9.9v14.2h-9.9v22.1c0 2.5 0 3.5.4 4.3.6 1.3 1.7 1.6 3.2 1.6 1.3 0 3.4-.1 6.5-.1v16h-12c-4.5 0-7.8-.7-9.9-2.2-2.1-1.4-3.7-3.6-4.7-6.6-1-2.9-1.5-6.5-1.5-13.1v-22h-6.6v-14.2h6.6v-19.4h18zM94.8 8.1h-43.7v17.1h8.7v13.4h-8.7v22.1c0 2.4 0 3.3.4 4 .6 1.2 1.7 1.5 3.2 1.5 1.3 0 3.4-.1 6.5-.1v15.1h-12c-4.5 0-7.8-.7-9.9-2s-3.7-3.4-4.7-6.2c-1-2.8-1.5-6.2-1.5-12.4v-22h-5.4v-13.4h5.3v-17.1h-33v95.9h94.8v-95.9zM489.1 8.1v19.4h9.9v14.2h-9.9v22.1c0 2.5 0 3.5.4 4.3.6 1.3 1.7 1.6 3.2 1.6 1.3 0 3.4-.1 6.5-.1v16h-12c-4.5 0-7.8-.7-9.9-2.2-2.1-1.4-3.7-3.6-4.7-6.6-1-2.9-1.5-6.5-1.5-13.1v-22h-6.6v-14.2h6.6v-19.4h18zM276.1 85.4h-16.4v-9.6c-2.6 3.9-5.3 6.7-8 8.4-2.7 1.7-6 2.5-9.9 2.5-5.2 0-9.3-1.9-12.2-5.6-3-3.7-4.4-9.5-4.4-17.2v-37.6h16.6v32.5c0 3.7.6 6.3 1.7 7.9 1.1 1.6 4 2.3 6 2.3 2.3 0 5.3-1 6.7-3.1 1.4-2.1 2.2-5.8 2.2-11.2v-28.4h17.7v59.1zM339.5 3.8v81.6h-16.5v-8.7c-2.5 3.7-4.7 6.2-6.8 7.5-2.7 1.7-5.8 2.6-9.1 2.6-6.7 0-11.8-3.1-15.4-9.2-3.5-6.1-5.3-13.6-5.3-22.3 0-9.8 2-17.3 5.9-22.5 3.9-5.2 8.9-7.8 14.9-7.8 2.9 0 5.6.6 8 1.8 2.4 1.2 4.5 3 6.4 5.3v-28.3h17.9zm-17.8 51.9c0-4.6-.8-8.1-2.5-10.4-1.6-2.3-3.7-3.4-6.2-3.4-2.2 0-4 1.1-5.5 3.3-1.5 2.2-2.2 5.9-2.2 11 0 4.8.8 8.4 2.3 10.6 1.5 2.2 3.4 3.4 5.7 3.4 2.4 0 4.4-1.1 6-3.4 1.6-2.3 2.4-6 2.4-11.1zM352.9 3.8h17.7v13h-17.7v-13zm0 22.5h17.7v59.1h-17.7v-59.1zM381.3 55.1c0-9.3 2.4-16.9 7.1-22.9 4.7-6 11.1-9 19.1-9 9.2 0 16.1 3.5 20.8 10.6 3.8 5.7 5.7 12.7 5.7 21 0 9.4-2.3 17-7 23s-11.2 9-19.4 9c-7.4 0-13.3-2.5-17.9-7.4-5.6-6.3-8.4-14.3-8.4-24.3zm17.7 0c0 5.4.8 9.4 2.5 12 1.7 2.6 3.7 3.9 6.2 3.9s4.6-1.3 6.2-3.8c1.6-2.6 2.4-6.7 2.4-12.3 0-5.3-.8-9.2-2.5-11.8-1.6-2.6-3.7-3.9-6.1-3.9-2.6 0-4.7 1.3-6.4 3.9-1.5 2.6-2.3 6.6-2.3 12zM570.7 55.1c0-9.3 2.4-16.9 7.1-22.9 4.7-6 11.1-9 19.1-9 9.2 0 16.1 3.5 20.8 10.6 3.8 5.7 5.7 12.7 5.7 21 0 9.4-2.3 17-7 23s-11.2 9-19.4 9c-7.4 0-13.3-2.5-17.9-7.4-5.6-6.3-8.4-14.3-8.4-24.3zm17.6 0c0 5.4.8 9.4 2.5 12 1.7 2.6 3.7 3.9 6.2 3.9s4.6-1.3 6.2-3.8c1.6-2.6 2.4-6.7 2.4-12.3 0-5.3-.8-9.2-2.5-11.8-1.6-2.6-3.7-3.9-6.1-3.9-2.6 0-4.7 1.3-6.4 3.9-1.4 2.6-2.3 6.6-2.3 12zM851 55.1c0-9.3 2.4-16.9 7.1-22.9 4.7-6 11.1-9 19.1-9 9.2 0 16.1 3.5 20.8 10.6 3.8 5.7 5.7 12.7 5.7 21 0 9.4-2.3 17-7 23s-11.2 9-19.4 9c-7.4 0-13.3-2.5-17.9-7.4-5.6-6.3-8.4-14.3-8.4-24.3zm17.6 0c0 5.4.8 9.4 2.5 12 1.7 2.6 3.7 3.9 6.2 3.9s4.6-1.3 6.2-3.8c1.6-2.6 2.4-6.7 2.4-12.3 0-5.3-.8-9.2-2.5-11.8-1.6-2.6-3.7-3.9-6.1-3.9-2.6 0-4.7 1.3-6.4 3.9-1.4 2.6-2.3 6.6-2.3 12zM509.3 3.8h18.9v30.1c2.6-3.2 5.1-5.5 7.7-6.8 2.5-1.4 5.5-2.1 9-2.1 5.1 0 9.2 1.9 12.1 5.6 3 3.7 4.4 9.5 4.4 17.3v37.6h-19v-32.6c0-3.7-.6-6.3-1.7-7.9-1.1-1.5-2.8-2.3-4.8-2.3-2.3 0-4.1 1-5.6 3.1-1.4 2.1-2.1 5.8-2.1 11.2v28.4h-18.9v-81.6zM634.4 23.9h17.7v12.1c1.7-4.2 3.5-7.1 5.3-8.7 1.8-1.6 5.5-3.3 10.5-3.3 4.8 0 7.9.9 13 5.3l-13.4 14.9c-2.2-1.1-4-1.7-5.3-1.7-2.5 0-4.4 1.2-5.8 3.7-1.9 3.5-2.9 9.9-2.9 19.4v19.8h-19v-61.5zM686.4 23.9h17.6v6.4c2.6-3.9 4.2-4.7 6.9-5.5 4.3-1.2 7.1-.9 11.4-.9 5.2 0 8.8 2.9 11.8 6.7 3 3.7 4.4 9.5 4.4 17.3v37.6h-19v-32.6c0-3.7-.6-6.3-1.7-7.9-1.1-1.5-2.8-2.3-4.8-2.3-2.3 0-4.1 1-5.6 3.1-1.4 2.1-2.1 5.8-2.1 11.2v28.4h-18.9v-61.5zM752.5 3.8h18.3v28.3c1.8-2.4 3.9-4.2 6.2-5.3 2.3-1.2 4.9-1.8 7.6-1.8 5.8 0 10.5 2.6 14.3 7.8 3.8 5.2 5.7 12.6 5.7 22.3 0 6.5-.9 12.1-2.6 17.1-1.7 4.9-4.1 8.6-7.2 11-3 2.4-6.4 3.6-10.1 3.6-3.2 0-6.1-.9-8.7-2.6-2-1.3-4.2-3.8-6.5-7.5v8.7h-17v-81.6zm18.2 51.9c0 5.1.8 8.8 2.3 11 1.5 2.3 3.5 3.4 5.8 3.4 2.2 0 4-1.1 5.5-3.4 1.5-2.2 2.2-6 2.2-11.3 0-4.7-.7-8.1-2.2-10.3-1.4-2.2-3.2-3.3-5.2-3.3-2.5 0-4.5 1.1-6 3.4-1.7 2.4-2.4 5.8-2.4 10.5zM914.6 24.5h18v8.9c2.6-3.7 5.2-6.3 7.9-7.9 2.6-1.6 5.8-2.3 9.6-2.3 4 0 7.2.9 9.5 2.6 2.3 1.7 4.3 4.3 5.7 7.7 3-4 5.8-6.7 8.3-8.1 2.5-1.4 5.6-2.1 9.2-2.1 5.4 0 9.6 1.9 12.6 5.8s4.5 9.9 4.5 18.2v38.2h-19.3v-34.8c0-2.8-.4-4.8-1.3-6.1-1.3-2.1-2.9-3.2-4.8-3.2-2.3 0-4.1 1-5.5 3-1.4 2-2.1 5.2-2.1 9.6v31.4h-19.3v-33.5c0-2.7-.1-4.5-.4-5.4-.4-1.5-1.1-2.8-2.1-3.7-1-.9-2.2-1.4-3.6-1.4-2.2 0-4 1-5.5 3-1.4 2-2.1 5.3-2.1 10v31.1h-19.3v-61zM833.1 3.8h-18.1v64.1c0 9.7 7.8 17.5 17.5 17.5h11v-15.9h-7.8c-1.4 0-2.5-1.1-2.5-2.5v-63.2zM575.9 0h16v16h-16zM601.2 0h16v16h-16zM165.8 116.4h6.1v6.1h-6.1zM176.8 116.4h6.1v6.1h-6.1zM335.1 116.4h6.1v6.1h-6.1zM346.1 116.4h6.1v6.1h-6.1zM127.9 153.2h-4.1v-36h4.4v12.8c1.9-2.3 4.2-3.5 7.1-3.5 1.6 0 3.1.3 4.6 1 1.4.6 2.6 1.6 3.5 2.7.9 1.2 1.7 2.6 2.2 4.2.5 1.7.8 3.4.8 5.3 0 4.5-1.1 7.9-3.3 10.4-2.2 2.4-4.9 3.7-8 3.7-3.1 0-5.5-1.3-7.2-3.9v3.3zm0-13.2c0 3.1.4 5.4 1.3 6.8 1.4 2.3 3.3 3.4 5.7 3.4 1.9 0 3.6-.8 5-2.5s2.1-4.2 2.1-7.5c0-3.4-.7-5.9-2-7.5s-3-2.4-4.9-2.4c-1.9 0-3.6.8-5 2.5-1.5 1.6-2.2 4-2.2 7.2zM181.6 153.2v-3.8c-2 2.9-4.8 4.4-8.3 4.4-1.5 0-3-.3-4.3-.9-1.3-.6-2.3-1.3-3-2.2s-1.1-2-1.4-3.3c-.2-.9-.3-2.2-.3-4.1v-16.2h4.4v14.5c0 2.3.1 3.9.3 4.7.3 1.2.9 2.1 1.8 2.7.9.7 2 1 3.3 1s2.6-.3 3.7-1c1.2-.7 2-1.6 2.5-2.8.5-1.2.7-2.9.7-5.1v-14h4.4v26.1h-3.8zM207.5 153.2v-26.1h4v4c1-1.9 2-3.1 2.8-3.7.9-.6 1.8-.9 2.8-.9 1.5 0 3 .5 4.5 1.4l-1.5 4.1c-1.1-.6-2.2-1-3.2-1s-1.8.3-2.6.9c-.8.6-1.3 1.4-1.6 2.4-.5 1.6-.7 3.3-.7 5.2v13.7h-4.5zM238.8 140.2c0-4.8 1.3-8.4 4-10.7 2.2-1.9 5-2.9 8.2-2.9 3.6 0 6.5 1.2 8.8 3.5 2.3 2.4 3.4 5.6 3.4 9.7 0 3.4-.5 6-1.5 7.9-1 1.9-2.5 3.4-4.4 4.5-1.9 1.1-4 1.6-6.3 1.6-3.7 0-6.6-1.2-8.9-3.5s-3.3-5.7-3.3-10.1zm4.6 0c0 3.3.7 5.8 2.2 7.5 1.5 1.7 3.3 2.5 5.5 2.5s4-.8 5.5-2.5 2.2-4.2 2.2-7.6c0-3.2-.7-5.7-2.2-7.3-1.5-1.7-3.3-2.5-5.5-2.5s-4 .8-5.5 2.5c-1.5 1.5-2.2 4-2.2 7.4zM306.4 153.2v-22.7h-3.9v-3.4h3.9v-2.8c0-1.8.2-3.1.5-3.9.4-1.1 1.2-2.1 2.2-2.8 1.1-.7 2.6-1.1 4.5-1.1 1.2 0 2.6.1 4.1.4l-.7 3.9c-.9-.2-1.8-.2-2.6-.2-1.3 0-2.3.3-2.8.9-.6.6-.8 1.6-.8 3.2v2.4h5.1v3.4h-5.1v22.7h-4.4zM350.2 153.2v-3.8c-2 2.9-4.8 4.4-8.3 4.4-1.5 0-3-.3-4.3-.9-1.3-.6-2.3-1.3-3-2.2-.6-.9-1.1-2-1.4-3.3-.2-.9-.3-2.2-.3-4.1v-16.2h4.4v14.5c0 2.3.1 3.9.3 4.7.3 1.2.9 2.1 1.8 2.7.9.7 2 1 3.3 1 1.3 0 2.6-.3 3.7-1 1.2-.7 2-1.6 2.5-2.8.5-1.2.7-2.9.7-5.1v-14h4.4v26.1h-3.8zM377.3 153.2v-26.1h4v4c1-1.9 2-3.1 2.8-3.7.9-.6 1.8-.9 2.8-.9 1.5 0 3 .5 4.5 1.4l-1.5 4.1c-1.1-.6-2.2-1-3.2-1s-1.8.3-2.6.9c-.8.6-1.3 1.4-1.6 2.4-.5 1.6-.7 3.3-.7 5.2v13.7h-4.5zM433.4 122.3v-5.1h4.4v5.1h-4.4zm0 30.9v-26.1h4.4v26.1h-4.4zM460.8 153.2v-26.1h4v3.7c1.9-2.9 4.7-4.3 8.3-4.3 1.6 0 3 .3 4.3.8 1.3.6 2.3 1.3 3 2.2.7.9 1.1 2 1.4 3.3.2.8.2 2.3.2 4.3v16h-4.4v-15.9c0-1.8-.2-3.1-.5-4s-1-1.6-1.8-2.1c-.9-.5-1.9-.8-3.1-.8-1.9 0-3.5.6-4.9 1.8-1.4 1.2-2.1 3.5-2.1 6.8v14.2h-4.4zM500.2 153.2v-26.1h4v3.7c1.9-2.9 4.7-4.3 8.3-4.3 1.6 0 3 .3 4.3.8 1.3.6 2.3 1.3 3 2.2s1.1 2 1.4 3.3c.2.8.2 2.3.2 4.3v16h-4.4v-15.9c0-1.8-.2-3.1-.5-4s-1-1.6-1.8-2.1c-.9-.5-1.9-.8-3.1-.8-1.9 0-3.5.6-4.9 1.8-1.4 1.2-2.1 3.5-2.1 6.8v14.2h-4.4zM559.9 144.8l4.6.6c-.7 2.7-2.1 4.7-4 6.2s-4.4 2.2-7.5 2.2c-3.8 0-6.8-1.2-9.1-3.5-2.2-2.3-3.4-5.6-3.4-9.9 0-4.4 1.1-7.8 3.4-10.2 2.3-2.4 5.2-3.6 8.8-3.6 3.5 0 6.3 1.2 8.5 3.6 2.2 2.4 3.3 5.7 3.3 10v1.2h-19.5c.2 2.9 1 5.1 2.4 6.6 1.5 1.5 3.3 2.3 5.5 2.3 1.6 0 3-.4 4.2-1.3s2.1-2.3 2.8-4.2zm-14.6-7.1h14.6c-.2-2.2-.8-3.8-1.7-4.9-1.4-1.7-3.2-2.6-5.5-2.6-2 0-3.7.7-5.1 2s-2.1 3.2-2.3 5.5zM582.6 153.2v-26.1h4v3.7c1.9-2.9 4.7-4.3 8.3-4.3 1.6 0 3 .3 4.3.8 1.3.6 2.3 1.3 3 2.2s1.1 2 1.4 3.3c.2.8.2 2.3.2 4.3v16h-4.4v-15.9c0-1.8-.2-3.1-.5-4s-1-1.6-1.8-2.1c-.9-.5-1.9-.8-3.1-.8-1.9 0-3.5.6-4.9 1.8-1.4 1.2-2.1 3.5-2.1 6.8v14.2h-4.4zM641.5 150c-1.6 1.4-3.2 2.4-4.7 2.9-1.5.6-3.1.9-4.9.9-2.9 0-5.1-.7-6.6-2.1-1.5-1.4-2.3-3.2-2.3-5.4 0-1.3.3-2.4.9-3.5.6-1.1 1.3-1.9 2.3-2.5.9-.6 2-1.1 3.2-1.4.9-.2 2.2-.5 3.9-.7 3.6-.4 6.2-.9 7.9-1.5v-1.2c0-1.8-.4-3.1-1.3-3.8-1.1-1-2.8-1.5-5-1.5-2.1 0-3.6.4-4.6 1.1s-1.7 2-2.2 3.9l-4.3-.6c.4-1.9 1-3.3 1.9-4.5.9-1.1 2.2-2 3.9-2.6 1.7-.6 3.7-.9 5.9-.9s4 .3 5.4.8 2.4 1.2 3.1 2c.7.8 1.1 1.8 1.4 3 .1.8.2 2.1.2 4.1v5.9c0 4.1.1 6.7.3 7.8.2 1.1.6 2.1 1.1 3.1h-4.6c-.5-1-.8-2.1-.9-3.3zm-.4-9.9c-1.6.7-4 1.2-7.2 1.7-1.8.3-3.1.6-3.9.9-.8.3-1.3.8-1.7 1.4-.4.6-.6 1.3-.6 2.1 0 1.2.4 2.2 1.3 2.9.9.8 2.2 1.2 3.9 1.2 1.7 0 3.2-.4 4.5-1.1s2.3-1.8 2.9-3.1c.5-1 .7-2.5.7-4.4v-1.6zM663.8 153.2v-26.1h4v4c1-1.9 2-3.1 2.8-3.7.9-.6 1.8-.9 2.8-.9 1.5 0 3 .5 4.5 1.4l-1.5 4.1c-1.1-.6-2.2-1-3.2-1s-1.8.3-2.6.9c-.8.6-1.3 1.4-1.6 2.4-.5 1.6-.7 3.3-.7 5.2v13.7h-4.5zM716.3 143.7l4.3.6c-.5 3-1.7 5.3-3.6 7-2 1.7-4.4 2.5-7.2 2.5-3.6 0-6.4-1.2-8.6-3.5-2.2-2.3-3.3-5.7-3.3-10 0-2.8.5-5.3 1.4-7.4.9-2.1 2.4-3.7 4.3-4.8 1.9-1.1 4-1.6 6.2-1.6 2.8 0 5.2.7 7 2.2 1.8 1.4 3 3.5 3.5 6.1l-4.3.7c-.4-1.8-1.1-3.1-2.2-4-1-.9-2.3-1.3-3.8-1.3-2.2 0-4 .8-5.4 2.4-1.4 1.6-2.1 4.1-2.1 7.6s.7 6.1 2 7.6 3.1 2.4 5.3 2.4c1.7 0 3.2-.5 4.3-1.6 1.1-1.1 1.9-2.7 2.2-4.9zM735.8 153.2v-36h4.4v12.9c2.1-2.4 4.7-3.6 7.8-3.6 1.9 0 3.6.4 5 1.1 1.4.8 2.4 1.8 3.1 3.2.6 1.3.9 3.3.9 5.8v16.5h-4.4v-16.5c0-2.2-.5-3.8-1.4-4.8-1-1-2.3-1.5-4.1-1.5-1.3 0-2.5.3-3.7 1-1.2.7-2 1.6-2.5 2.8-.5 1.2-.7 2.8-.7 4.8v14.3h-4.4zM776.5 122.3v-5.1h4.4v5.1h-4.4zm0 30.9v-26.1h4.4v26.1h-4.4zM812.3 149.3l.6 3.9c-1.2.3-2.4.4-3.3.4-1.6 0-2.8-.3-3.7-.8s-1.5-1.2-1.9-2c-.4-.8-.5-2.6-.5-5.2v-15h-3.2v-3.4h3.2v-6.5l4.4-2.7v9.1h4.4v3.4h-4.4v15.3c0 1.3.1 2.1.2 2.4.2.4.4.6.8.9.4.2.9.3 1.5.3.5 0 1.1 0 1.9-.1zM849.5 144.8l4.6.6c-.7 2.7-2.1 4.7-4 6.2s-4.4 2.2-7.5 2.2c-3.8 0-6.8-1.2-9.1-3.5-2.2-2.3-3.4-5.6-3.4-9.9 0-4.4 1.1-7.8 3.4-10.2 2.3-2.4 5.2-3.6 8.8-3.6 3.5 0 6.3 1.2 8.5 3.6 2.2 2.4 3.3 5.7 3.3 10v1.2h-19.5c.2 2.9 1 5.1 2.4 6.6s3.3 2.3 5.5 2.3c1.6 0 3-.4 4.2-1.3s2.2-2.3 2.8-4.2zm-14.5-7.1h14.6c-.2-2.2-.8-3.8-1.7-4.9-1.4-1.7-3.2-2.6-5.5-2.6-2 0-3.7.7-5.1 2s-2.1 3.2-2.3 5.5zM872.3 153.2v-36h4.4v20.5l10.5-10.6h5.7l-10 9.7 11 16.4h-5.5l-8.6-13.3-3.1 3v10.3h-4.4zM922.1 149.3l.6 3.9c-1.2.3-2.4.4-3.3.4-1.6 0-2.8-.3-3.7-.8s-1.5-1.2-1.9-2c-.4-.8-.5-2.6-.5-5.2v-15h-3.2v-3.4h3.2v-6.5l4.4-2.7v9.1h4.4v3.4h-4.4v15.3c0 1.3.1 2.1.2 2.4.2.4.4.6.8.9.4.2.9.3 1.5.3.5 0 1.1 0 1.9-.1zM959.8 153.2v-3.8c-2 2.9-4.8 4.4-8.3 4.4-1.5 0-3-.3-4.3-.9-1.3-.6-2.3-1.3-3-2.2-.6-.9-1.1-2-1.4-3.3-.2-.9-.3-2.2-.3-4.1v-16.2h4.4v14.5c0 2.3.1 3.9.3 4.7.3 1.2.9 2.1 1.8 2.7.9.7 2 1 3.3 1 1.3 0 2.6-.3 3.7-1 1.2-.7 2-1.6 2.5-2.8.5-1.2.7-2.9.7-5.1v-14h4.4v26.1h-3.8zM984.5 153.2v-26.1h4v4c1-1.9 2-3.1 2.8-3.7.9-.6 1.8-.9 2.8-.9 1.5 0 3 .5 4.5 1.4l-1.5 4.1c-1.1-.6-2.2-1-3.2-1s-1.8.3-2.6.9c-.8.6-1.3 1.4-1.6 2.4-.5 1.6-.7 3.3-.7 5.2v13.7h-4.5z"/>
  </symbol>
  <symbol id="terroir" viewBox="0 0 1000 154.6">
    <path class="svg__logo" d="M0 0v18.2h47.8v136.4h18.8v-136.4h47v-18.2zM799.1 0h19.4v154.6h-19.4zM162.1 0v154.6h91.1v-16.6h-71.7v-53.7h66.6v-17.9h-66.6v-48.9h71.7v-17.5zM705.1 154.6h-28.5c-23.1 0-41.8-18.7-41.8-41.8v-71c0-23.1 18.7-41.8 41.8-41.8h28.5c23.1 0 41.9 18.7 41.9 41.8v70.9c0 23.1-18.8 41.9-41.9 41.9zm22.5-43.6v-67.5c0-15.5-12.5-28-28-28h-17.5c-15.5 0-28 12.5-28 28v67.5c0 15.5 12.5 28 28 28h17.5c15.5 0 28-12.5 28-28zM391.5 96.9l40.1 57.7h-22.1l-39.2-56.2h-11.3v-15.8h20.2c9.9 0 17.9-8 17.9-17.9v-29.1c0-9.9-8-17.9-17.9-17.9h-47.2v136.9h-20.2v-154.6h69.8c18.9 0 34.3 15.3 34.3 34.3v29.8c0 15.5-10.3 28.5-24.4 32.8zM558 96.9l40.1 57.7h-22.1l-39.2-56.2h-11.3v-15.8h20.2c9.9 0 17.9-8 17.9-17.9v-29.1c0-9.9-8-17.9-17.9-17.9h-47.3v136.9h-20.2v-154.6h69.8c18.9 0 34.3 15.3 34.3 34.3v29.8c.1 15.5-10.2 28.5-24.3 32.8zM959.9 96.9l40.1 57.7h-22.1l-39.2-56.2h-11.3v-15.8h20.2c9.9 0 17.9-8 17.9-17.9v-29.1c0-9.9-8-17.9-17.9-17.9h-47.3v136.9h-20.2v-154.6h69.9c18.9 0 34.3 15.3 34.3 34.3v29.8c-.1 15.5-10.3 28.5-24.4 32.8z"/>
  </symbol>
  <symbol id="olawolczyk" viewBox="0 0 1000 305.6">
    <path class="svg__logo" d="M49.4 60.6c14.6 0 26.7 5.3 36.3 15.8 8.7 9.6 13.1 21 13.1 34.2 0 13.2-4.6 24.8-13.8 34.7-9.2 9.9-21.1 14.8-35.5 14.8-14.5 0-26.4-4.9-35.6-14.8-9.3-9.9-13.9-21.4-13.9-34.7 0-13.1 4.4-24.5 13.1-34.1 9.6-10.6 21.7-15.9 36.3-15.9zm0 11.9c-10.1 0-18.8 3.7-26.1 11.2-7.3 7.5-10.9 16.5-10.9 27.2 0 6.8 1.7 13.2 5 19.1 3.3 5.9 7.8 10.5 13.5 13.7 5.6 3.2 11.8 4.8 18.6 4.8 6.8 0 13-1.6 18.6-4.8 5.6-3.2 10.1-7.8 13.5-13.7 3.3-5.9 5-12.3 5-19.1 0-10.6-3.7-19.7-11-27.2-7.4-7.4-16.1-11.2-26.2-11.2zM119.5 0h12.2v157.7h-12.2v-157.7zM248.7 63v94.7h-12v-16.3c-5.1 6.2-10.8 10.9-17.2 14-6.4 3.1-13.3 4.7-20.8 4.7-13.4 0-24.8-4.9-34.3-14.6-9.5-9.7-14.2-21.5-14.2-35.5 0-13.6 4.8-25.3 14.4-35 9.6-9.7 21.1-14.5 34.6-14.5 7.8 0 14.8 1.7 21.1 5 6.3 3.3 11.8 8.3 16.6 14.9v-17.4h11.8zm-48.7 9.3c-6.8 0-13 1.7-18.8 5-5.7 3.3-10.3 8-13.7 14-3.4 6-5.1 12.4-5.1 19.1 0 6.7 1.7 13 5.1 19.1 3.4 6.1 8 10.8 13.8 14.2 5.8 3.4 12 5.1 18.6 5.1 6.7 0 13-1.7 19-5 6-3.4 10.6-7.9 13.8-13.6 3.2-5.7 4.8-12.2 4.8-19.4 0-11-3.6-20.1-10.8-27.5-7.3-7.3-16.2-11-26.7-11zM260.2 63h25.4l20.8 53.9 22.5-53.9h15.6l22 53.3 20.8-53.3h25.6l-37.8 94.7h-16.5l-22.1-54-22.8 54h-16.3l-37.2-94.7zM471.4 56.4c9.3 0 18.1 2.3 26.3 7s14.6 11 19.2 19 6.9 16.6 6.9 25.9c0 9.3-2.3 18-6.9 26.1-4.6 8.1-10.9 14.4-18.9 19-8 4.6-16.8 6.8-26.4 6.8-14.2 0-26.2-5-36.2-15.1-10-10.1-15-22.3-15-36.7 0-15.4 5.7-28.3 17-38.6 9.7-8.9 21.1-13.4 34-13.4zm.4 23.3c-7.7 0-14.1 2.7-19.2 8-5.1 5.4-7.7 12.2-7.7 20.5 0 8.6 2.5 15.5 7.6 20.9 5.1 5.3 11.5 8 19.2 8 7.8 0 14.2-2.7 19.4-8.1 5.1-5.4 7.7-12.3 7.7-20.8s-2.5-15.3-7.6-20.6c-5.1-5.3-11.5-7.9-19.4-7.9zM576.1 63.3l9.4-7 11.7 14-21.1 15.5v71.8h-23.8v-54.3l-9.5 7-10.6-14.6 20.1-14.9v-80.8h23.8v63.3zM692 78.9l-18 11.3c-3.4-4.1-6.7-6.9-10-8.4-3.3-1.6-7.2-2.4-11.6-2.4-8.1 0-14.6 2.8-19.6 8.3-5 5.5-7.5 12.6-7.5 21.2 0 8.4 2.4 15.2 7.2 20.6 4.8 5.3 11.1 8 19 8 9.7 0 17.2-3.8 22.6-11.3l17.1 13.4c-9.2 13.8-22.3 20.6-39.1 20.6-15.2 0-27-5.1-35.6-15.4-8.6-10.3-12.9-22.3-12.9-36.1 0-9.6 2.1-18.4 6.3-26.4 4.2-8 10-14.4 17.5-19s15.8-6.9 25.1-6.9c8.6 0 16.2 2 23.1 5.9s12.1 9.4 16.4 16.6zM699.6 63h84l-49.3 74.6h46.5v20.1h-88.8l49.5-74.6h-42v-20.1zM904.4 0h24.3v100.8l35.8-39.9h30.5l-41.7 46.4 46.7 50.5h-30.2l-41.1-44.7v44.7h-24.3v-157.8zM27.9 225.5l26.2 63.2h-6.1l-8.8-20.7h-24.2l-8.7 20.8h-6.3l26.5-63.2h1.4zm-.7 13.5l-9.6 22.9h19.2l-9.6-22.9zM61.1 225.5h10.7c6 0 10 .3 12.1.9 3.2.9 5.8 2.7 7.8 5.5s3 6.3 3 10.4c0 3.4-.7 6.5-2.1 9.1-1.4 2.6-3.3 4.6-5.9 5.9-2.6 1.3-6.1 2-10.6 2l19.3 29.4h-6.6l-19.3-29.4h-3v29.4h-5.4v-63.2zm5.3 6.2v21.5l9.2.1c3.6 0 6.2-.4 7.9-1.2 1.7-.8 3.1-2.1 4-3.8 1-1.8 1.4-3.7 1.4-5.9 0-2.1-.5-4-1.5-5.8-1-1.7-2.3-3-3.8-3.7-1.6-.7-4.2-1.1-7.9-1.1h-9.3zM159.1 237.3l-4.6 3.8c-2.6-3.6-5.6-6.3-9.2-8.1-3.6-1.8-7.5-2.8-11.8-2.8-4.7 0-9.1 1.2-13.1 3.6-4 2.4-7.1 5.7-9.3 9.8-2.2 4.1-3.3 8.7-3.3 13.8 0 7.7 2.5 14.1 7.4 19.3 4.9 5.2 11.1 7.7 18.6 7.7 8.3 0 15.2-3.5 20.7-10.4l4.6 3.8c-2.9 4-6.6 7.1-11 9.3-4.4 2.2-9.3 3.3-14.7 3.3-10.3 0-18.4-3.7-24.4-11-5-6.2-7.5-13.7-7.5-22.5 0-9.3 3-17 9.1-23.4 6-6.3 13.6-9.5 22.7-9.5 5.5 0 10.5 1.2 14.9 3.5s8.1 5.6 10.9 9.8zM165.2 225.5h6.2v26.5h31.8v-26.5h6.2v63.2h-6.2v-30.5h-31.8v30.5h-6.2v-63.2zM229.3 225.5h6.2v63.2h-6.2v-63.2zM248 231.7v-6.2h34.3v6.2h-13.9v57h-6.4v-57h-14zM298.1 225.5h30.8v6.2h-25.4v19.8h25.2v6.2h-25.2v24.8h25.2v6.2h-30.6v-63.2zM342.3 225.5h6.7v23.7l26.2-23.7h8.8l-31.4 28.4 33.9 34.9h-8.7l-28.8-29.5v29.4h-6.7v-63.2zM390.3 231.7v-6.2h34.3v6.2h-13.9v57h-6.4v-57h-14zM459.2 225.5h6.2l12.3 45.6 17.3-45.6h1.3l17.1 45.6 12.6-45.6h6.2l-17.4 63.2h-1.1l-17.9-47.8-18.3 47.8h-1.1l-17.2-63.2zM542.9 288.8v-63.2h1.4l41.6 48.5v-48.5h6.2v63.2h-1.4l-41.3-47.9v47.9h-6.5zM606.9 225.5h35.8v6.2h-29.6v19.8h29.3v6.2h-29.3v24.8h29.3v6.2h-35.6v-63.2zm27 63.3h4.6c-3.4 3-5.1 5.7-5.1 8.3 0 1.3.5 2.4 1.6 3.4 1.1.9 2.6 1.4 4.6 1.4.8 0 1.8-.1 2.9-.2l-.4 3.7c-1.2.3-2.4.4-3.6.4-3.1 0-5.5-.8-7.2-2.3-1.7-1.5-2.5-3.3-2.5-5.5 0-3.8 1.7-6.9 5.1-9.2zM649.1 231.7v-6.2h34.3v6.2h-13.9v57h-6.4v-57h-14zM699 225.5h10.8c6 0 10.1.3 12.3.9 3.2.9 5.9 2.7 7.9 5.5s3 6.3 3 10.4c0 3.4-.7 6.5-2.1 9.1-1.4 2.6-3.4 4.6-6 5.9s-6.2 2-10.7 2l19.6 29.4h-6.8l-19.6-29.4h-3.1v29.4h-5.3v-63.2zm5.4 6.2v21.5l9.4.1c3.6 0 6.3-.4 8.1-1.2 1.7-.8 3.1-2.1 4.1-3.8 1-1.8 1.5-3.7 1.5-5.9 0-2.1-.5-4-1.5-5.8-1-1.7-2.3-3-3.9-3.7-1.6-.7-4.3-1.1-8-1.1h-9.7zM745.3 231.6v-6.1h38.3l-30.3 57h28.7v6.2h-40l30.6-57.1h-27.3zM828.3 200.9h-828.3v-4.8h805.6l21.8-45.4-36.8-87.7h24.8l25.1 59.5 27.7-59.5h24.8z"/>
  </symbol>
  <symbol id="real2b" viewBox="0 0 1000 775.2">
    <path class="svg__logo" d="M48.5 738.7h9.5c2.5 0 4.6.2 6.4.7 1.8.5 3.4 1.3 4.8 2.6 3.7 3.2 5.6 8.1 5.6 14.6 0 2.2-.2 4.1-.6 5.9-.4 1.8-1 3.4-1.7 4.8-.8 1.4-1.8 2.7-3 3.8-1 .9-2 1.6-3.2 2.1-1.1.5-2.4.9-3.7 1.1-1.3.2-2.8.3-4.5.3h-9.5c-1.3 0-2.3-.2-3-.6-.7-.4-1.1-1-1.3-1.7-.2-.7-.3-1.7-.3-2.8v-26.4c0-1.6.4-2.7 1.1-3.4.7-.7 1.9-1 3.4-1zm2.9 5.7v24.4h5.5c1.2 0 2.2 0 2.8-.1.7-.1 1.4-.2 2.1-.5.7-.3 1.4-.6 1.9-1.1 2.4-2.1 3.7-5.6 3.7-10.6 0-3.5-.5-6.2-1.6-8-1.1-1.8-2.4-2.9-4-3.4s-3.5-.7-5.7-.7h-4.7zM162 744.3h-16.4v8.8h15.1c1.1 0 1.9.2 2.5.7.5.5.8 1.2.8 2s-.3 1.5-.8 2-1.4.8-2.5.8h-15.1v10.2h17c1.1 0 2 .3 2.6.8.6.5.9 1.2.9 2.1 0 .8-.3 1.5-.9 2.1-.6.5-1.4.8-2.6.8h-19.8c-1.6 0-2.7-.4-3.4-1.1-.7-.7-1-1.8-1-3.4v-27c0-1 .2-1.9.5-2.6.3-.7.8-1.1 1.5-1.4s1.5-.5 2.5-.5h19.1c1.2 0 2 .3 2.6.8s.8 1.2.8 2-.3 1.5-.8 2-1.5.9-2.6.9zM232.3 742.8l8.1 24.1 8.2-24.3c.4-1.3.7-2.2 1-2.7.2-.5.6-.9 1.1-1.3.5-.4 1.2-.6 2-.6.6 0 1.2.2 1.7.5s.9.7 1.3 1.2c.3.5.5 1 .5 1.6 0 .4 0 .7-.1 1.2-.1.4-.2.8-.4 1.2s-.3.8-.4 1.2l-8.7 23.5c-.3.9-.6 1.8-.9 2.6-.3.8-.7 1.5-1.1 2.1-.4.6-1 1.1-1.6 1.5-.7.4-1.5.6-2.5.6s-1.8-.2-2.5-.6c-.7-.4-1.2-.9-1.6-1.5-.4-.6-.8-1.3-1.1-2.1l-.9-2.5-8.6-23.3c-.1-.4-.3-.8-.5-1.3-.2-.4-.3-.8-.4-1.3-.1-.5-.2-.9-.2-1.2 0-.8.3-1.6 1-2.3.7-.7 1.5-1 2.5-1 1.2 0 2.1.4 2.6 1.1s.9 2 1.5 3.6zM340.7 744.3h-16.4v8.8h15.1c1.1 0 1.9.2 2.5.7.5.5.8 1.2.8 2s-.3 1.5-.8 2-1.4.8-2.5.8h-15.1v10.2h17c1.1 0 2 .3 2.6.8.6.5.9 1.2.9 2.1 0 .8-.3 1.5-.9 2.1-.6.5-1.4.8-2.6.8h-19.8c-1.6 0-2.7-.4-3.4-1.1-.7-.7-1-1.8-1-3.4v-27c0-1 .2-1.9.5-2.6.3-.7.8-1.1 1.5-1.4s1.5-.5 2.5-.5h19.2c1.2 0 2 .3 2.6.8.6.5.8 1.2.8 2s-.3 1.5-.8 2c-.6.6-1.5.9-2.7.9zM413.1 742.5v26.2h14.8c1.2 0 2.1.3 2.7.9.6.6.9 1.3.9 2.2 0 .9-.3 1.6-.9 2.1-.6.5-1.5.8-2.7.8h-17.6c-1.6 0-2.7-.4-3.4-1.1-.7-.7-1-1.8-1-3.4v-27.7c0-1.5.3-2.6 1-3.3.7-.7 1.5-1.1 2.6-1.1s2 .4 2.7 1.1c.5.7.9 1.8.9 3.3zM506.7 738.1c3.7 0 6.9.8 9.6 2.3 2.7 1.5 4.7 3.7 6.1 6.4 1.4 2.8 2.1 6.1 2.1 9.8 0 2.8-.4 5.3-1.1 7.6-.8 2.3-1.9 4.2-3.4 5.9s-3.4 2.9-5.5 3.8c-2.2.9-4.7 1.3-7.5 1.3s-5.3-.5-7.6-1.4c-2.2-.9-4.1-2.2-5.6-3.8-1.5-1.7-2.6-3.6-3.4-6-.8-2.3-1.1-4.8-1.1-7.5 0-2.8.4-5.3 1.2-7.6.8-2.3 1.9-4.3 3.4-5.9 1.5-1.6 3.3-2.9 5.5-3.7 2.1-.8 4.5-1.2 7.3-1.2zm10.3 18.4c0-2.6-.4-4.9-1.3-6.8-.8-1.9-2.1-3.4-3.6-4.4s-3.4-1.5-5.4-1.5c-1.5 0-2.8.3-4 .8-1.2.5-2.3 1.3-3.2 2.4-.9 1-1.6 2.4-2.1 4s-.8 3.5-.8 5.5.3 3.9.8 5.5c.5 1.7 1.2 3 2.2 4.1.9 1.1 2 1.9 3.2 2.4 1.2.5 2.6.8 4 .8 1.9 0 3.6-.5 5.1-1.4 1.6-.9 2.8-2.4 3.7-4.3.9-1.8 1.4-4.2 1.4-7.1zM601.6 760.6h-6.6v10.2c0 1.5-.3 2.6-1 3.3-.7.8-1.6 1.1-2.6 1.1-1.1 0-2-.4-2.6-1.1s-1-1.8-1-3.3v-27.7c0-1.6.4-2.7 1.1-3.4.7-.7 1.9-1 3.5-1h9.3c2.8 0 4.9.2 6.4.6 1.5.4 2.7 1.1 3.8 2 1.1.9 1.9 2.1 2.4 3.5.6 1.4.8 2.9.8 4.6 0 3.7-1.1 6.4-3.4 8.3-2.2 2-5.6 2.9-10.1 2.9zm-1.7-16.5h-4.9v11h4.9c1.7 0 3.2-.2 4.3-.5s2-.9 2.6-1.8c.6-.8.9-1.9.9-3.2 0-1.6-.5-2.9-1.4-3.9-1-1-3.2-1.6-6.4-1.6zM687.4 769.2l-5.8-22.9v24.8c0 1.4-.3 2.4-.9 3.1-.6.7-1.4 1-2.4 1s-1.8-.3-2.4-1c-.6-.7-.9-1.7-.9-3.1v-28.4c0-1.6.4-2.6 1.2-3.2.8-.5 1.9-.8 3.3-.8h2.3c1.4 0 2.3.1 3 .4s1.1.7 1.4 1.3c.3.6.6 1.7 1 3.1l5.2 19.7 5.2-19.7c.4-1.4.7-2.5 1-3.1.3-.6.7-1.1 1.4-1.3.6-.2 1.6-.4 3-.4h2.3c1.4 0 2.5.3 3.3.8.8.5 1.2 1.6 1.2 3.2v28.4c0 1.4-.3 2.4-.9 3.1-.6.7-1.4 1-2.5 1-1 0-1.8-.3-2.4-1-.6-.7-.9-1.7-.9-3.1v-24.8l-5.8 22.9c-.4 1.5-.7 2.6-.9 3.3-.2.7-.7 1.3-1.3 1.9-.6.6-1.5.9-2.6.9-.8 0-1.6-.2-2.2-.6-.6-.4-1-.8-1.4-1.4s-.6-1.2-.8-1.9c-.3-.7-.5-1.5-.7-2.2zM797 744.3h-16.4v8.8h15.1c1.1 0 1.9.2 2.5.7.5.5.8 1.2.8 2s-.3 1.5-.8 2-1.4.8-2.5.8h-15.1v10.2h17c1.1 0 2 .3 2.6.8.6.5.9 1.2.9 2.1 0 .8-.3 1.5-.9 2.1-.6.5-1.4.8-2.6.8h-19.8c-1.6 0-2.7-.4-3.4-1.1-.7-.7-1-1.8-1-3.4v-27c0-1 .2-1.9.5-2.6.3-.7.8-1.1 1.5-1.4s1.5-.5 2.5-.5h19.1c1.2 0 2 .3 2.6.8s.8 1.2.8 2-.3 1.5-.8 2-1.4.9-2.6.9zM871.5 742.4l14 21.2v-21.4c0-1.4.3-2.4.9-3.1.6-.7 1.4-1 2.4-1s1.9.3 2.5 1c.6.7.9 1.7.9 3.1v28.3c0 3.2-1.3 4.7-3.9 4.7-.7 0-1.2-.1-1.8-.3-.5-.2-1-.5-1.5-.9s-.9-.9-1.3-1.4c-.4-.5-.8-1.1-1.2-1.7l-13.5-20.9v21.1c0 1.4-.3 2.4-1 3.1-.6.7-1.5 1.1-2.5 1.1s-1.9-.4-2.5-1.1c-.6-.7-.9-1.7-.9-3.1v-27.7c0-1.2.1-2.1.4-2.8.3-.7.8-1.3 1.5-1.8s1.5-.7 2.3-.7c.7 0 1.2.1 1.7.3.5.2.9.5 1.2.9.4.4.7.8 1.1 1.4.5.5.9 1.1 1.2 1.7zM979.5 744.7h-7.9v26.1c0 1.5-.3 2.6-1 3.3-.7.7-1.5 1.1-2.6 1.1s-2-.4-2.6-1.1c-.7-.7-1-1.8-1-3.3v-26.1h-7.9c-1.2 0-2.2-.3-2.8-.8-.6-.5-.9-1.3-.9-2.2 0-.9.3-1.7.9-2.2.6-.5 1.5-.8 2.7-.8h23.1c1.3 0 2.2.3 2.8.8.6.6.9 1.3.9 2.2s-.3 1.6-.9 2.2c-.7.5-1.6.8-2.8.8zM103.1 573c-4.5 2.2-11.4 8.4-13.6 11.9-3 4.7-5.2 8.4-7 13.6-1.8 5.2-2.3 6.4-3 13.6-.7 7.2-1 16-1 26.3v28.8c0 7-1.6 12.2-4.9 15.7-3.3 3.5-7.4 5.2-12.5 5.2-5 0-9-1.8-12.2-5.3-3.2-3.5-4.8-8.7-4.8-15.6v-107.8c0-15.5 5.6-23.2 16.8-23.2 5.7 0 9.5 2.1 12.4 5.4 3.4 4 4.2 5.8 4.2 25.3 4.1-7.1 6.9-10.2 10.4-14.7 5.3-6.9 14.3-16 27.8-16 11.3 0 15.4 3.9 16 11.6.8 10-1.9 16.5-9.2 18.9-6.1 2-12 2.7-19.4 6.3zM209.3 658.8m45.8 14.2c-5.6 3.7-8.5 5.7-16.5 8.5-7.9 2.8-16.6 3.8-27.5 3.8-23.5 0-37.3-5.8-51.5-19.5-13.8-13.3-23.5-31.6-23.5-55.5 0-11.3 2.5-21.2 5.7-30.8 3.2-9.6 8.3-17.3 14.5-24.2 6.2-6.9 13.7-12.9 22-16.5 8.9-3.9 18.6-6 29.6-6 14.3 0 26.6 3.1 36.8 9.4 10.2 6.3 16.6 15.2 23 24.4 6.9 9.8 9.4 22.5 9.4 32.9 0 9.6-2.9 16.9-8.4 19.3-4.6 2-13.9 1.1-23.5 1.1h-75.7c.4 12.5 4.9 19 10.1 24.3 6 6.2 16.5 14.1 29.8 14.1 7.3 0 15.7-.6 21.1-2.5 7.9-2.8 17.2-13.3 25.6-13.3 8.9.1 12.7 9.7 12.4 13.6-.7 10-7.2 12.9-13.4 16.9zm-8.9-25.7-76.6-49.1l76.3.1c-.9-13-5.2-20.3-11.9-28.1-5.7-6.6-17-10.2-26.6-10.2-9.1 0-19.1 4.6-25.5 10.6-8 7.5-11.1 14.7-12.3 27.6zM458 667.1v-166c0-6.9 1.5-12.1 4.6-15.6 3.1-3.5 7.2-5.3 12.4-5.3s9.4 1.7 12.6 5.2c3.2 3.5 4.8 8.7 4.8 15.7v166c0 7-1.6 12.2-4.9 15.7-3.2 3.5-7.4 5.2-12.5 5.2-5 0-9.1-1.8-12.3-5.4-3.2-3.6-4.7-8.7-4.7-15.5zM884.4 685.3h-85.9c-12.4 0-21.2-2.8-26.5-8.3-5.3-5.6-8-14.4-8-23.9v-213.6c0-15 2.7-23.9 8.1-29.3 5.4-5.4 14.2-8.1 17.5-8.1h91c22.2 0 33.9.8 43.7 2.5 9.8 1.7 18.7 4.9 26.5 9.6 6.6 4 12.5 9 17.6 15 5.1 6.1 9.9 14.1 12.5 21.5 2.7 7.3 3.2 16 3.2 24.2 0 28.1-13.9 50.1-42 63.1 36.9 11.8 57.8 33.5 57.8 67.5 0 15.7-4.5 31.2-12.6 43.8-8.1 12.6-19.2 20.6-32.9 26.6-8.6 3.6-20.1 5.8-31.2 7.2-11 1.5-24 2.2-38.8 2.2zm-72.3-238.2v72.6h72.2c14.2 0 20.5-.9 28.3-3.6 7.7-2.7 13.6-7.8 17.7-15.3 3.2-5.4 4.8-11.4 4.8-18 0-14.2-6-21.9-15.1-28.3-12.3-8.6-20.9-7.4-41.6-7.4h-66.3zm79.3 116h-79.2v79.4h81.2c38.5 0 57.7-13.9 57.7-41.6 0-14.2-5-21.9-15-28.3-10.1-6.3-24.9-9.5-44.7-9.5zM409.8 683.2c-4.9.1-8.1-.8-11.1-3.8-5-5.1-4.4-7.8-5.5-15.3-4.9 4.9-21.1 20-45.5 21.2-7 .3-21.6 1.1-35-9-17.4-13.1-18.4-33.8-18.5-35.4-.1-1.9-.4-20.2 13.3-33.9 12.9-12.9 30.1-13.4 46.6-13.9 17.1-.5 31.2 2.9 40.6 6 .2-3.2 1-18-9.2-27.9-10.1-9.8-24.8-8.9-29.6-8.6-14.9.9-21.5 2.9-30.5 5.9-7.5 2.5-15.8.3-18.2-7.2-2.3-7.4 1.3-14 5.8-16.6 11.8-6.8 28.2-10.3 48.9-10 21.5.3 38 5.7 49.9 17.8 6.8 6.9 13.8 15.9 13.8 32.8v85.2c0 8.6-7.6 12.5-15.8 12.7zm-14.6-63.8c-6.9-3.5-19.1-6.5-34.4-6.4-7.7.1-19.9.2-28.4 9.5-1.7 1.9-6.9 7.5-6.9 15.9 0 10.4 8 17 9.4 18.2 8 6.6 17.6 6.1 23.3 5.9 4.2-.2 15.2-.9 24.9-9.3 8.2-7.1 10.7-15.4 11.2-19.1.8-4.9.9-9.9.9-14.7zM694.1 560c-31.6 27-65.4 56-97 83.1h117.4c10.9 0 21.7 10.1 21.7 21 0 10.7-9.7 20.8-20 20.8-63 0-130 .4-169.5.4-5.3 0-13.6-5.6-17.6-13.7-5.2-10.7-2.4-22.2 4.5-29 29.8-24.7 100.4-86.9 127.5-111 27-24.3 25.5-63.4 2.6-81.5-16.2-12.9-40.6-11.7-61.2-.4-13.6 7.4-19.2 19.3-29.8 27.6-7.3 5.7-15.5 6.4-26.1-1.6-8.6-6.5-10.5-19.1-4.1-28.9 9.3-14.4 21.6-23.6 33.9-31.8 8.9-5.9 28.4-17.4 58.9-17.3 15.3 0 41.6.1 64.8 19.3 25 20.7 29.5 49.7 30.5 58.4.5 4.5 2.5 25.6-8.6 49.4-8.6 18.4-21 29.7-27.9 35.2zM134.9 427.6l-127.4-127.4c-10-10-10-26.1 0-36.1l127.4-127.4c10-10 26.1-10 36.1 0l127.4 127.4c10 10 10 26.1 0 36.1l-127.4 127.4c-10 10-26.1 10-36.1 0zM332.9 479.4l-72.4-72.4c-5-5-5-13 0-18l72.4-72.4c5-5 13-5 18 0l72.4 72.4c5 5 5 13 0 18l-72.4 72.4c-5 5-13.1 5-18 0zM323.8 244l-103.5-103.4c-8.5-8.5-8.5-22.3 0-30.8l103.5-103.4c8.5-8.5 22.3-8.5 30.8 0l103.4 103.4c8.5 8.5 8.5 22.3 0 30.8l-103.5 103.4c-8.5 8.5-22.2 8.5-30.7 0zM417.1 337.4l-46.2-46.2c-3.6-3.6-3.6-9.3 0-12.9l46.2-46.2c3.6-3.6 9.3-3.6 12.9 0l46.2 46.2c3.6 3.6 3.6 9.3 0 12.9l-46.2 46.2c-3.5 3.5-9.3 3.5-12.9 0z"/>
  </symbol>
  <symbol id="atelier3" viewBox="0 0 1000 668.3">
    <path class="svg__logo" d="M447.6 83.3c21.2 0 40.1 11.7 48.4 27.8l39.6 67.9h-149.7l61.7-95.7zm-16-83.3l-210.4 326.1h68.4l68.4-106h201.2l45.3 79.2c8.5 14.8 25.2 26.8 42.9 26.8h153.1l-168.5-294.1c-10.3-16.9-30-32-51.4-32h-149zM831.4 374.2c-10.2-16.9-29.9-32-51.4-32h-148.9l-126.4 196-93.9-163.9c-10.2-16.9-29.9-32-51.4-32h-149l-210.4 326h68.4l68.4-106h201.2l45.3 79.2c8.5 14.8 25.2 26.7 42.9 26.7h153.1l-42.4-74 20.7-32h201.2l45.3 79.2c8.5 14.8 25.2 26.7 42.9 26.7h153l-168.6-293.9zm-666.8 146.9l61.7-95.7c21.2 0 40.1 11.7 48.4 27.8l39.6 67.9h-149.7zm420.7 0l61.7-95.7c21.2 0 40.1 11.7 48.4 27.8l39.6 67.9h-149.7z"/>
  </symbol>
  <symbol id="svet-vmes" viewBox="0 0 1000 929.3">
    <path class="svg__logo" d="M83.2 823.6c1.7 2.3 2.6 4.7 2.6 7.2 0 1.7-.3 3.3-.9 4.8-.6 1.5-1.4 2.8-2.6 4-1.1 1.1-2.4 2-3.8 2.7-1.4.7-3 1-4.6 1-3.9 0-7.1-1.5-9.6-4.5-.8-1.1-2.1-2-3.8-2.9-1.7-.8-3.5-1.5-5.5-1.9-2-.5-4-.8-6-1-2-.2-3.8-.3-5.5-.3-3.3.1-6.1.5-8.6 1.2-2.4.7-4.5 1.6-6.1 2.8-1.6 1.2-2.8 2.5-3.6 3.9-.8 1.4-1.2 2.9-1.2 4.4 0 1.6.5 3.1 1.5 4.5 1 1.5 2.3 2.7 4.1 3.8 1.8 1 3.9 1.9 6.3 2.6 2.4.7 5.1 1 8 1.1 5.6.4 10.9 1.4 16 3.1 5.1 1.7 9.4 4 13.2 6.9 3.8 2.9 6.8 6.4 9 10.5s3.3 8.7 3.3 13.8c0 5.6-1.2 10.7-3.5 15.4-2.3 4.7-5.5 8.7-9.5 12.1-4 3.4-8.6 6-13.8 7.9s-10.8 2.8-16.6 2.8c-5.2 0-10.3-.7-15.4-2.2-5.1-1.5-9.5-3.4-13.5-5.9-3.9-2.5-7.1-5.2-9.5-8.3-2.5-3.1-3.7-6.2-3.7-9.3 0-1.6.3-3 .9-4.5.6-1.4 1.4-2.7 2.5-3.8 1-1.1 2.2-2 3.7-2.7 1.5-.7 3.1-1 4.8-1 2 0 3.9.4 5.8 1.3 1.8.8 3.3 2.2 4.5 4 .2.5.8 1.1 1.7 2 .9.9 2.1 1.8 3.8 2.8 1.6 1 3.6 1.9 5.9 2.6 2.3.7 5 1.1 8 1.1 2.9 0 5.5-.4 8-1.2 2.5-.8 4.6-1.8 6.4-3 1.8-1.3 3.2-2.7 4.2-4.4 1-1.7 1.5-3.4 1.5-5.2 0-2.8-1.7-5.2-5-7.2s-8-3.2-14-3.6c-6.3-.4-12-1.5-17.2-3.4-5.2-1.9-9.7-4.4-13.4-7.5-3.8-3.1-6.7-6.7-8.7-10.8-2.3-4.3-3.3-8.9-3.3-14 0-4.7 1-9.3 3-13.7 2-4.4 5-8.4 8.8-11.8 3.9-3.4 8.6-6.2 14.2-8.2 5.5-2.1 11.9-3.1 18.9-3.1 2.6 0 5.5.2 8.8.6 3.3.4 6.7 1.1 10.2 2.2 3.5 1.1 6.9 2.6 10.2 4.5 3.4 2 6.4 4.6 9.1 7.8"/>
    <path class="svg__logo" d="M104.2 824.8c-.6-1.6-.9-3.1-.9-4.5 0-1.7.4-3.3 1.1-4.8.7-1.5 1.7-2.7 2.8-3.7 1.1-1 2.4-1.8 3.9-2.4 1.5-.6 2.9-.9 4.3-.9 2.7 0 5.1.7 7 2.3 2 1.5 3.4 3.4 4.3 5.5l25 66.6 24.9-66.6c.8-2.1 2.2-3.9 4.2-5.5s4.3-2.4 6.9-2.4c1.6 0 3.2.3 4.6.9 1.4.6 2.7 1.5 3.9 2.6 1.2 1.1 2.1 2.4 2.7 3.9.7 1.5 1 3.1 1 4.8-.1.7-.2 1.4-.2 2.1-.1.7-.2 1.4-.5 2.1l-36.3 96.5c-.5 1.5-1.1 2.7-2 3.7-.9 1-1.9 1.8-2.9 2.4-1 .6-2.1 1.1-3.2 1.3-1.1.3-2.1.4-3 .4-2.8 0-5.2-.7-7.2-2.2-2-1.5-3.4-3.3-4.1-5.6l-18.2-48.3-18.1-48.2zM244.2 840c-1.8 2.5-3.1 5.1-4 7.9-.8 2.8-1.5 5.8-2 9h46c-.5-3.4-1.3-6.6-2.3-9.6-1-3-2.3-5.6-4.1-7.7-1.8-2.2-4-3.9-6.7-5.1-2.7-1.2-6-1.8-9.9-1.8-3.9 0-7.2.6-10.1 1.9-2.7 1.3-5 3.1-6.9 5.4m33.9 58c1.1-1.5 2.5-2.8 4.1-3.6 1.7-.9 3.5-1.3 5.6-1.3 1.5 0 2.9.3 4.4.9 1.4.6 2.7 1.5 3.8 2.6 1.1 1.1 2 2.3 2.7 3.8.7 1.4 1 3 1 4.7 0 1.6-.3 3.2-.9 4.7-.6 1.5-1.4 2.9-2.4 4.1-1 1.2-2.1 2.4-3.3 3.4-1.2 1-2.2 1.9-3 2.6-2.8 2.2-5.5 4-8.1 5.2-2.6 1.2-5.1 2.1-7.5 2.8-2.4.7-4.7 1.1-6.9 1.2-2.2.2-4.3.2-6.2.2-7.5 0-14.3-1.3-20.3-4s-11-6.6-15.1-11.7-7.2-11.4-9.4-18.9c-2.2-7.5-3.3-16.1-3.3-25.8 0-10 1.1-18.8 3.4-26.3 2.2-7.5 5.5-13.8 9.7-18.9 4.2-5 9.2-8.8 15.1-11.4 5.9-2.6 12.5-3.8 19.8-3.8 6.7 0 12.9 1.2 18.7 3.5 5.8 2.3 10.9 6 15.2 10.9 4.3 4.9 7.7 11.2 10.2 18.9 2.5 7.6 3.7 16.7 3.7 27.2 0 1.7-.3 3.3-1 4.7-.7 1.4-1.5 2.7-2.6 3.8-1.1 1.1-2.4 2-3.8 2.6-1.5.6-3 .9-4.7.9h-58.8c.5 3.8 1.3 7.2 2.4 10.2 1.1 3 2.6 5.6 4.4 7.6 1.8 2.1 4.1 3.6 6.8 4.7s5.8 1.6 9.5 1.6c2.6 0 4.8-.2 6.6-.7 1.9-.5 3.4-1 4.7-1.8 1.3-.7 2.4-1.5 3.3-2.3.9-.6 1.6-1.5 2.2-2.3"/>
    <path class="svg__logo" d="M335.1 772.2c0-1.7.3-3.3 1-4.7.7-1.4 1.5-2.7 2.6-3.8 1.1-1.1 2.4-1.9 3.8-2.6 1.5-.6 3.1-.9 4.8-.9 1.7 0 3.3.3 4.8.9 1.5.6 2.8 1.5 3.8 2.6 1.1 1.1 1.9 2.4 2.5 3.8.6 1.4.9 3 .9 4.6v36.2h12c1.7 0 3.3.3 4.8 1s2.7 1.6 3.8 2.7c1 1.1 1.9 2.4 2.6 3.9.7 1.5 1 3 1 4.5 0 1.8-.3 3.4-1 4.8s-1.5 2.7-2.6 3.8c-1.1 1.1-2.3 1.9-3.8 2.6-1.4.6-3 .9-4.7.9h-12v60.5c0 1.5 0 2.6.1 3.3.1.7.2 1.3.4 1.6l.6.9c.2.2.5.5.8.9l1.5 2.2c.3.5.7.9 1.1 1.2.4.3 1 .6 1.7.8.7.2 1.8.6 3.4 1.2.3.1 1.1.1 2.5.1 1.5 0 3 .3 4.5.9 1.4.6 2.7 1.4 3.8 2.5 1.1 1.1 2 2.4 2.7 3.8.7 1.5 1 3.1 1 4.8 0 1.7-.3 3.3-1 4.8s-1.5 2.7-2.6 3.8c-1.1 1-2.3 1.9-3.8 2.5-1.4.6-3 .9-4.6.9-8.7 0-16.2-2.3-22.5-7-6.3-4.7-10.8-12-13.4-22-.5-2.3-.7-4.7-.7-7.2v-60.3c-3.4 0-6.3-1.1-8.6-3.4s-3.4-5.2-3.4-8.7c0-1.6.3-3.1.9-4.5.6-1.5 1.5-2.8 2.6-3.8 1.1-1.1 2.4-2 3.8-2.7 1.5-.7 3-1 4.7-1v-36.4zM498.3 824.8c-.6-1.6-.9-3.1-.9-4.5 0-1.7.4-3.3 1.1-4.8.7-1.5 1.7-2.7 2.8-3.7 1.1-1 2.4-1.8 3.9-2.4 1.5-.6 2.9-.9 4.3-.9 2.7 0 5.1.7 7.1 2.3 2 1.5 3.4 3.4 4.2 5.5l25 66.6 24.9-66.6c.8-2.1 2.2-3.9 4.2-5.5s4.3-2.4 6.9-2.4c1.6 0 3.2.3 4.6.9 1.4.6 2.7 1.5 3.9 2.6 1.2 1.1 2.1 2.4 2.7 3.9.7 1.5 1 3.1 1 4.8-.1.7-.2 1.4-.2 2.1-.1.7-.2 1.4-.5 2.1l-36.3 96.6c-.5 1.5-1.1 2.7-2 3.7-.9 1-1.9 1.8-2.9 2.4-1 .6-2.1 1.1-3.2 1.3-1.1.3-2.1.4-3 .4-2.8 0-5.2-.7-7.2-2.2-2-1.5-3.4-3.3-4.1-5.6l-18.2-48.3-18.1-48.3zM635 815.5c2.3-1.3 4.5-2.4 6.6-3.3 2.1-.9 4.1-1.6 6.1-2.2 2-.6 4-1 6.1-1.3 2-.3 4.1-.4 6.4-.4 6.4 0 12.5 1.2 18.2 3.6 5.8 2.4 11.1 5.9 16 10.6.3.4.6.8 1 1.2l1.1 1.1c4.7-4.8 10.1-8.8 16.1-11.8 6-3.1 12.7-4.6 20.1-4.6 3.9 0 7.8.5 11.6 1.6 3.9 1 7.6 2.5 11.2 4.5 3.6 1.9 6.9 4.3 10 7.2 3.1 2.8 5.8 6 8 9.6 2.3 3.6 4.1 7.5 5.4 11.8 1.3 4.3 2 8.9 2 13.8v60.3c0 1.6-.3 3.2-1 4.7s-1.5 2.8-2.6 3.8c-1.1 1.1-2.4 2-3.8 2.6-1.5.7-3 1-4.7 1-1.7 0-3.3-.3-4.7-1-1.4-.7-2.7-1.5-3.8-2.6-1.1-1-2-2.3-2.6-3.8-.6-1.5-.9-3.1-.9-4.7v-60.3c0-2.7-.5-5.5-1.6-8.4-1.1-2.9-2.7-5.5-4.7-7.9-2.1-2.3-4.6-4.2-7.6-5.7s-6.4-2.2-10.2-2.2c-4.1 0-7.7.8-10.8 2.4-3.1 1.6-5.6 3.6-7.6 6.1-2 2.4-3.5 5.1-4.4 7.8-.9 2.8-1.4 5.4-1.4 7.9v60.3c0 1.8-.4 3.4-1 5-.7 1.5-1.6 2.8-2.7 3.8s-2.4 1.9-3.8 2.4c-1.5.6-3 .9-4.4.9-1.7 0-3.3-.3-4.7-1-1.4-.7-2.7-1.5-3.8-2.6-1.1-1.1-2-2.4-2.7-3.8-.7-1.5-1-3-1-4.7v-60.3c0-3.1-.6-6.1-1.8-9.1-1.2-3-2.9-5.6-5-7.8-2.1-2.3-4.7-4-7.6-5.4-3-1.3-6.2-2-9.7-2-3.9 0-7.3.7-10.3 2.2-3 1.5-5.5 3.4-7.6 5.8-2.1 2.4-3.6 5-4.7 7.9-1.1 2.9-1.6 5.7-1.6 8.4v60.3c0 1.6-.3 3.2-1 4.7s-1.5 2.8-2.7 3.8c-1.1 1.1-2.4 2-3.8 2.6-1.4.7-3 1-4.7 1-1.6 0-3.2-.3-4.7-1s-2.8-1.5-3.8-2.6c-1.1-1.1-1.9-2.4-2.6-3.8-.6-1.5-.9-3-.9-4.7v-96.6c0-1.6.3-3.1.9-4.6.6-1.5 1.5-2.8 2.6-3.8 1.1-1.1 2.4-2 3.8-2.7 1.5-.7 3-1.1 4.7-1.1 2.3 0 4.5.6 6.5 1.9 2 1.3 3.6 3.1 4.6 5.2M830.3 840c-1.8 2.5-3.1 5.1-4 7.9-.9 2.8-1.5 5.8-2 9h46c-.5-3.4-1.3-6.6-2.3-9.6-1-3-2.3-5.6-4.1-7.7-1.7-2.2-4-3.9-6.7-5.1-2.7-1.2-6-1.8-9.9-1.8-3.9 0-7.2.6-10.1 1.9-2.7 1.3-5 3.1-6.9 5.4m33.9 58c1.1-1.5 2.5-2.8 4.1-3.6 1.7-.9 3.5-1.3 5.7-1.3 1.5 0 2.9.3 4.4.9 1.4.6 2.7 1.5 3.8 2.6 1.1 1.1 2 2.3 2.7 3.8.7 1.4 1 3 1 4.7 0 1.6-.3 3.2-.9 4.7-.6 1.5-1.4 2.9-2.4 4.1-1 1.2-2.1 2.4-3.3 3.4-1.2 1-2.2 1.9-3 2.6-2.8 2.2-5.5 4-8.1 5.2-2.6 1.2-5.1 2.1-7.5 2.8-2.4.7-4.7 1.1-6.9 1.2-2.2.2-4.3.2-6.2.2-7.5 0-14.3-1.3-20.3-4s-11-6.6-15.1-11.7-7.2-11.4-9.4-18.9c-2.2-7.5-3.3-16.1-3.3-25.8 0-10 1.1-18.8 3.4-26.3s5.5-13.8 9.7-18.9c4.2-5 9.2-8.8 15.1-11.4 5.9-2.6 12.5-3.8 19.8-3.8 6.7 0 12.9 1.2 18.8 3.5 5.8 2.3 10.9 6 15.2 10.9 4.3 4.9 7.7 11.2 10.2 18.9 2.5 7.6 3.7 16.7 3.7 27.2 0 1.7-.3 3.3-1 4.7-.7 1.4-1.5 2.7-2.6 3.8-1.1 1.1-2.4 2-3.8 2.6-1.5.6-3 .9-4.7.9h-58.8c.5 3.8 1.3 7.2 2.4 10.2 1.1 3 2.6 5.6 4.4 7.6 1.8 2.1 4.1 3.6 6.7 4.7 2.7 1.1 5.8 1.6 9.5 1.6 2.6 0 4.8-.2 6.6-.7 1.9-.5 3.4-1 4.7-1.8 1.3-.7 2.4-1.5 3.3-2.3.9-.6 1.6-1.5 2.1-2.3M997.4 823.6c1.7 2.3 2.6 4.7 2.6 7.2 0 1.7-.3 3.3-.9 4.8-.6 1.5-1.4 2.8-2.6 4s-2.4 2-3.8 2.7c-1.4.7-3 1-4.6 1-3.9 0-7.1-1.5-9.6-4.5-.9-1.1-2.1-2-3.8-2.9-1.7-.8-3.5-1.5-5.5-1.9-2-.5-4-.8-6-1-2-.2-3.8-.3-5.5-.3-3.3.1-6.1.5-8.6 1.2s-4.5 1.6-6.1 2.8c-1.6 1.2-2.8 2.5-3.6 3.9-.8 1.4-1.2 2.9-1.2 4.4 0 1.6.5 3.1 1.5 4.5 1 1.5 2.3 2.7 4.1 3.8 1.8 1 3.9 1.9 6.3 2.6 2.4.7 5.1 1 8 1.1 5.6.4 10.9 1.4 16 3.1 5 1.7 9.5 4 13.2 6.9 3.8 2.9 6.7 6.4 9 10.5 2.2 4.1 3.3 8.7 3.3 13.8 0 5.6-1.2 10.7-3.5 15.4-2.3 4.7-5.5 8.7-9.5 12.1-4 3.4-8.6 6-13.9 7.9-5.2 1.9-10.8 2.8-16.6 2.8-5.2 0-10.3-.7-15.4-2.2-5-1.5-9.5-3.4-13.5-5.9-3.9-2.5-7.1-5.2-9.5-8.3-2.4-3.1-3.7-6.2-3.7-9.3 0-1.6.3-3 .9-4.5.6-1.4 1.4-2.7 2.5-3.8 1-1.1 2.2-2 3.7-2.7 1.5-.7 3.1-1 4.8-1 2 0 3.9.4 5.8 1.3 1.8.8 3.3 2.2 4.5 4 .2.5.8 1.1 1.7 2 .9.9 2.2 1.8 3.8 2.8 1.6 1 3.6 1.9 5.9 2.6 2.3.7 4.9 1.1 8 1.1 2.9 0 5.5-.4 8-1.2 2.4-.8 4.6-1.8 6.3-3 1.8-1.3 3.2-2.7 4.2-4.4 1-1.7 1.5-3.4 1.5-5.2 0-2.8-1.7-5.2-4.9-7.2-3.3-2-8-3.2-14-3.6-6.3-.4-12-1.5-17.2-3.4-5.2-1.9-9.7-4.4-13.4-7.5-3.8-3.1-6.7-6.7-8.7-10.8-2.1-4.1-3.1-8.7-3.1-13.8 0-4.7 1-9.3 3-13.7 2-4.4 5-8.4 8.9-11.8 3.9-3.4 8.6-6.2 14.1-8.2 5.5-2.1 11.9-3.1 18.9-3.1 2.6 0 5.5.2 8.8.6 3.3.4 6.7 1.1 10.2 2.2 3.5 1.1 6.9 2.6 10.2 4.5 3.4 1.8 6.4 4.4 9 7.6M749.7 510.3c15.7 0 30.4 4.4 42.9 12 8.6-14.1 16.2-28.9 22.8-44.2-15.3 19.6-39 32.2-65.7 32.2M815.4 208.8c-6.5-15.3-14.2-30.1-22.8-44.2-12.5 7.6-27.2 12-42.9 12 26.7 0 50.4 12.6 65.7 32.2M183.3 478.1c6.5 15.3 14.2 30.1 22.8 44.2 12.5-7.6 27.2-12 42.9-12-26.7 0-50.4-12.6-65.7-32.2M249 176.6c-15.7 0-30.4-4.4-42.9-12-8.6 14.1-16.2 28.9-22.8 44.2 15.3-19.6 39-32.2 65.7-32.2M666.2 260c0-46 37.3-83.4 83.4-83.4-46.1 0-83.4-37.4-83.4-83.4 0 46.1-37.3 83.4-83.4 83.4 46.1 0 83.4 37.4 83.4 83.4M364.7 27.4c-15.3 6.5-30.1 14.2-44.2 22.8 7.6 12.6 12 27.2 12 42.9 0-26.7 12.6-50.4 32.2-65.7M666.2 426.9c0 46.1-37.3 83.4-83.4 83.4 46.1 0 83.4 37.4 83.4 83.4 0-46.1 37.3-83.4 83.4-83.4-46.1 0-83.4-37.3-83.4-83.4M666.2 93.2c0-15.7 4.4-30.4 12-42.9-14.1-8.7-28.8-16.3-44.2-22.9 19.6 15.3 32.2 39 32.2 65.8M415.9 176.6c-46.1 0-83.4-37.4-83.4-83.4 0 46.1-37.3 83.4-83.4 83.4 46 0 83.4 37.4 83.4 83.4 0-46 37.3-83.4 83.4-83.4M499.4 593.7c0-46.1 37.3-83.4 83.4-83.4-46.1 0-83.4-37.4-83.4-83.4 0-46.1 37.4-83.4 83.4-83.4 46.1 0 83.4 37.3 83.4 83.4 0-46.1 37.4-83.4 83.4-83.4 45.5 0 82.4 36.4 83.3 81.6 6.4-26.2 9.8-53.5 9.8-81.6 0-28.1-3.5-55.4-9.8-81.6-1 45.2-37.9 81.6-83.3 81.6-46.1 0-83.4-37.3-83.4-83.4 0 46.1-37.4 83.4-83.4 83.4-46.1 0-83.4-37.4-83.4-83.4 0-46.1 37.3-83.4 83.4-83.4-46.1 0-83.4-37.4-83.4-83.4 0-45.5 36.4-82.4 81.6-83.3-26.2-6.5-53.5-10-81.6-10-28.1 0-55.5 3.5-81.6 9.8 45.2 1 81.6 37.9 81.6 83.3 0 46.1-37.3 83.4-83.4 83.4 46.1 0 83.4 37.4 83.4 83.4 0 46.1-37.4 83.4-83.4 83.4s-83.4-37.3-83.4-83.4c0 46.1-37.4 83.4-83.4 83.4-45.5 0-82.4-36.4-83.3-81.6-6.4 26.2-9.8 53.5-9.8 81.6 0 28.1 3.4 55.5 9.8 81.6 1-45.2 37.9-81.6 83.3-81.6 46.1 0 83.4 37.3 83.4 83.4 0-46.1 37.4-83.4 83.4-83.4s83.4 37.4 83.4 83.4c0 46.1-37.3 83.4-83.4 83.4 46 .2 83.3 37.6 83.4 83.6 0 45.5-36.4 82.4-81.7 83.3 26.2 6.4 53.5 9.9 81.7 9.9 28.1 0 55.5-3.5 81.6-9.9-45.2-.9-81.6-37.8-81.6-83.3M634 659.5c15.3-6.6 30.1-14.2 44.2-22.8-7.6-12.6-12-27.2-12-42.9 0 26.7-12.6 50.4-32.2 65.7M332.5 593.8c0 15.7-4.4 30.4-12 42.9 14.1 8.6 28.9 16.3 44.2 22.8-19.6-15.3-32.2-39-32.2-65.7M332.5 426.9c0 46.1-37.3 83.4-83.4 83.4 46.1 0 83.4 37.4 83.4 83.4 0-46.1 37.3-83.4 83.4-83.4-46.1 0-83.4-37.3-83.4-83.4"/>
  </symbol>
  <symbol id="pres" viewBox="0 0 1000 578">
    <path class="svg__logo" d="M472.4 5.2l-229.9 153.3c-3.7 2.4-4.6 7.4-2 11 2.4 3.4 7 4.3 10.5 2.2l222.4-135.7c10.1-6.1 22.7-6.1 32.7.2 47.7 29.7 186.7 116.3 217.5 135.6 3.5 2.2 8.1 1.4 10.7-1.7 3.1-3.8 2.3-9.4-1.7-12.1l-225.4-152.6c-10.5-7.1-24.2-7.2-34.8-.2zM294.3 223.1v102.4c0 3.8 3.1 6.9 6.9 6.9h392.1c5 0 8-5.7 5.1-9.8l-14.4-20.8c-2.2-3.1-5.7-5-9.5-5h-335.6c-3.8 0-6.9-3.1-6.9-6.9v-90.7l147.2-93.2c6.5-4.1 14.8-4.1 21.3 0l217.7 138c9.9 6.3 23.1 3.2 29.2-6.9 5.9-9.8 2.9-22.5-6.8-28.6l-231.1-144.6c-12-7.5-27.2-7.4-39.1.1l-236 150c-9.3 5.9-12 18.3-6.1 27.6 5.9 9.2 18.2 11.9 27.4 6l38.6-24.5zM736.4 440.6"/>
    <path class="svg__logo" d="M729 430.3l-13.6-19.1c-1.2-1.7-3.2-2.7-5.3-2.7h-171.3c-3.6 0-6.5 2.9-6.5 6.5v156.3c0 3.6 2.9 6.5 6.5 6.5h186.3c5 0 8.2-5.4 5.7-9.8l-10-17.5c-1.2-2-3.3-3.3-5.7-3.3h-118.3c-3.6 0-6.5-2.9-6.5-6.5v-93.6c0-3.6 2.9-6.5 6.5-6.5h126.9c5.3 0 8.4-6 5.3-10.3zM615 490.3l11.8 17.9c1.2 1.8 3.3 2.9 5.5 2.9h48.9c2.1 0 4-1 5.2-2.6l13.4-17.9c3.2-4.3.1-10.4-5.2-10.4h-74c-5.4 0-8.5 5.8-5.6 10.1zM0 577.9v-141.6c0-15.4 12.5-27.8 27.8-27.8h136.6c49.4 0 74.6 25.3 74.6 56.6s-26 56.6-74.6 56.6h-63.3c-1.8 0-3.5-.9-4.5-2.3l-16.1-22.2c-2.4-3.3 0-7.9 4-7.9h57.2c24.3 0 34-11.7 34-26.1 0-14.4-10.2-26.1-34-26.1h-84.2v140.9h-57.5zM454.5 518.7l53.4 59.1h-64l-49.9-56.2h-29.3c-1.8 0-3.5-.9-4.5-2.3l-16.2-22.2c-2.4-3.3 0-7.9 4-7.9h57.2c24.3 0 34-11.7 34-26.1 0-14.4-10.2-26.1-34-26.1h-84.2v140.9h-57.5v-141.6c0-15.4 12.5-27.8 27.8-27.8h136.6c49.4 0 74.6 25.3 74.6 56.6 0 24.9-16.6 46.1-48 53.6zM957.1 433.8l-17.5-22.4c-1.5-1.9-3.7-3-6.1-3h-106.4c-46.7 0-63.9 23-63.9 51.4s16.9 51.4 63.9 51.4h91c18.4 0 25.1 8.4 25.1 18.8s-6.7 18.8-25.1 18.8h-122.3c-2.1 0-4 .8-5.5 2.3l-19.8 19.8c-2.7 2.7-.8 7.2 3 7.2h166.6c44.2 0 59.9-21.9 59.9-48.9s-18.4-48.9-59.9-48.9h-94c-20.6 0-26.1-8.9-26.1-19.8s7.1-19.8 26.1-19.8h107.6c3.5-.1 5.5-4.1 3.4-6.9z"/>
  </symbol>
</svg>